RobotoAvar2-opsz144-wdth25-wght1000soedits.ufo
<glyph name="exclam" format="2">
  <advance width="592.1271028037384"/>
  <unicode hex="0021"/>
  <outline>
    <contour>
      <point x="36.400000000000006" y="205.67289719626166" type="qcurve" smooth="yes"/>
      <point x="36.400000000000006" y="308.6542056074766"/>
      <point x="170.71775700934577" y="455.3644859813084"/>
      <point x="296.0635514018692" y="455.3644859813084" type="qcurve" smooth="yes"/>
      <point x="422.1196261682243" y="455.3644859813084"/>
      <point x="555.7271028037383" y="308.6542056074766"/>
      <point x="555.7271028037383" y="205.67289719626166" type="qcurve" smooth="yes"/>
      <point x="555.7271028037383" y="103.4018691588785"/>
      <point x="422.1196261682243" y="-43.30841121495327"/>
      <point x="296.0635514018692" y="-43.30841121495327" type="qcurve" smooth="yes"/>
      <point x="170.71775700934577" y="-43.30841121495327"/>
      <point x="36.400000000000006" y="103.4018691588785"/>
    </contour>
    <contour>
      <point x="86.21308411214955" y="521.5140186915887" type="line"/>
      <point x="49.904672897196264" y="1456.0" type="line"/>
      <point x="542.2224299065421" y="1456.0" type="line"/>
      <point x="505.9140186915887" y="521.5140186915887" type="line"/>
    </contour>
  </outline>
</glyph>
<glyph name="ampersand" format="2">
  <advance width="1454.0392523364485"/>
  <unicode hex="0026"/>
  <outline>
    <contour>
      <point x="151.19158878504672" y="365.0841121495327" type="qcurve" smooth="yes"/>
      <point x="151.19158878504672" y="506.08411214953276"/>
      <point x="317.0215976193797" y="772.3667643092947"/>
      <point x="529.4073324963965" y="863.222253219882" type="qcurve" smooth="yes"/>
      <point x="601.4820988515366" y="903.4209792160692" type="line" smooth="yes"/>
      <point x="721.6597154414843" y="956.0207839308132"/>
      <point x="781.733644859813" y="1028.5471241921236"/>
      <point x="781.733644859813" y="1079.1094527363184" type="qcurve" smooth="yes"/>
      <point x="781.733644859813" y="1112.407960199005"/>
      <point x="765.9226995861811" y="1102.7313432835822"/>
      <point x="739.733644859813" y="1102.7313432835822" type="qcurve" smooth="yes"/>
      <point x="718.733644859813" y="1102.7313432835822"/>
      <point x="728.9724508299622" y="1102.8557213930349"/>
      <point x="728.9724508299622" y="1076.039800995025" type="qcurve" smooth="yes"/>
      <point x="728.9724508299622" y="1031.7412935323384"/>
      <point x="756.8007392941832" y="966.3220346863812"/>
      <point x="889.929906542056" y="806.6915887850467" type="qcurve" smooth="yes"/>
      <point x="1441.9392523364486" y="0.0" type="line"/>
      <point x="850.3691588785045" y="0.0" type="line"/>
      <point x="382.7897196261682" y="718.6915887850467" type="line" smooth="yes"/>
      <point x="320.19158878504675" y="828.2242990654206"/>
      <point x="240.62149532710282" y="1000.6417445482866"/>
      <point x="240.62149532710282" y="1136.866043613707" type="qcurve" smooth="yes"/>
      <point x="240.62149532710282" y="1315.3333333333333"/>
      <point x="468.84579439252343" y="1466.0"/>
      <point x="737.733644859813" y="1466.0" type="qcurve" smooth="yes"/>
      <point x="1006.3627888594411" y="1466.0"/>
      <point x="1230.7429906542056" y="1339.1047565908775"/>
      <point x="1230.7429906542056" y="1208.2182080252942" type="qcurve" smooth="yes"/>
      <point x="1230.7429906542056" y="945.089552238806"/>
      <point x="800.9613381689683" y="700.5407541730599"/>
      <point x="753.7163016692239" y="654.2379225368485" type="qcurve" smooth="yes"/>
      <point x="687.6415353140837" y="592.5106709443437" type="line" smooth="yes"/>
      <point x="651.0837634258613" y="524.1479053331474"/>
      <point x="633.5093457943925" y="372.19900497512435"/>
      <point x="633.5093457943925" y="319.32835820895525" type="qcurve" smooth="yes"/>
      <point x="633.5093457943925" y="308.53233830845767"/>
      <point x="588.57285999907" y="313.60696517412936"/>
      <point x="666.1201236806621" y="313.60696517412936" type="qcurve" smooth="yes"/>
      <point x="692.657437113498" y="313.60696517412936"/>
      <point x="926.3130841121495" y="420.0"/>
      <point x="963.2476635514017" y="674.0" type="qcurve"/>
      <point x="1472.6308411214955" y="674.0" type="line"/>
      <point x="1437.8271028037384" y="344.31775700934577"/>
      <point x="943.9485981308412" y="-6.666666666666668"/>
      <point x="696.2196261682243" y="-6.666666666666668" type="qcurve" smooth="yes"/>
      <point x="341.8831775700935" y="-6.666666666666668"/>
      <point x="151.19158878504672" y="147.0841121495327"/>
    </contour>
  </outline>
</glyph>
<glyph name="quotesingle" format="2">
  <advance width="531"/>
  <unicode hex="0027"/>
  <outline>
    <contour>
      <point x="48" y="910" type="line"/>
      <point x="23.5" y="1177.943925233645" type="line"/>
      <point x="23.5" y="1456.0" type="line"/>
      <point x="507.6121495327102" y="1456.0" type="line"/>
      <point x="507.6121495327102" y="1177.943925233645" type="line"/>
      <point x="482" y="910" type="line"/>
    </contour>
  </outline>
</glyph>
<glyph name="parenleft" format="2">
  <advance width="558.1121495327102"/>
  <unicode hex="0028"/>
  <outline>
    <contour>
      <point x="544.2121495327102" y="-436.0" type="line"/>
      <point x="281.1560747663551" y="-340.0"/>
      <point x="27.10000000000001" y="140.0"/>
      <point x="27.10000000000001" y="515.0" type="qcurve" smooth="yes"/>
      <point x="27.10000000000001" y="525.0" type="line" smooth="yes"/>
      <point x="27.10000000000001" y="917.0"/>
      <point x="281.1560747663551" y="1380.0"/>
      <point x="544.2121495327102" y="1476.0" type="qcurve"/>
      <point x="544.2121495327102" y="1073.6119402985075" type="line"/>
      <point x="475.21712465708833" y="971.6666666666667"/>
      <point x="506.2121495327102" y="716.4477611940299"/>
      <point x="506.2121495327102" y="532.0" type="qcurve" smooth="yes"/>
      <point x="506.2121495327102" y="508.0" type="line" smooth="yes"/>
      <point x="506.2121495327102" y="327.1741293532338"/>
      <point x="475.21712465708833" y="68.33333333333331"/>
      <point x="544.2121495327102" y="-33.61194029850748" type="qcurve"/>
    </contour>
  </outline>
</glyph>
<glyph name="parenright" format="2">
  <advance width="558.1121495327102"/>
  <unicode hex="0029"/>
  <outline>
    <contour>
      <point x="13.900000000000002" y="-436.0" type="qcurve"/>
      <point x="13.900000000000002" y="-33.61194029850748" type="line"/>
      <point x="82.89502487562189" y="68.33333333333331"/>
      <point x="51.900000000000006" y="313.9154228855721"/>
      <point x="51.900000000000006" y="508.0" type="qcurve" smooth="yes"/>
      <point x="51.900000000000006" y="532.0" type="line" smooth="yes"/>
      <point x="51.900000000000006" y="701.7064676616916"/>
      <point x="82.89502487562189" y="971.6666666666667"/>
      <point x="13.900000000000002" y="1073.6119402985075" type="qcurve"/>
      <point x="13.900000000000002" y="1476.0" type="line"/>
      <point x="276.9560747663551" y="1380.0"/>
      <point x="531.0121495327102" y="900.0"/>
      <point x="531.0121495327102" y="525.0" type="qcurve" smooth="yes"/>
      <point x="531.0121495327102" y="515.0" type="line" smooth="yes"/>
      <point x="531.0121495327102" y="123.0"/>
      <point x="276.9560747663551" y="-340.0"/>
    </contour>
  </outline>
</glyph>
<glyph name="comma" format="2">
  <advance width="542"/>
  <unicode hex="002C"/>
  <outline>
    <contour>
      <point x="-57" y="-199" type="line"/>
      <point x="-10" y="-149"/>
      <point x="40" y="-19"/>
      <point x="40" y="70" type="qcurve" smooth="yes"/>
      <point x="40" y="496" type="line"/>
      <point x="505" y="496" type="line"/>
      <point x="505" y="70" type="line" smooth="yes"/>
      <point x="505" y="-84"/>
      <point x="320" y="-330"/>
      <point x="154" y="-384" type="qcurve"/>
    </contour>
  </outline>
</glyph>
<glyph name="zero" format="2">
  <advance width="1045"/>
  <unicode hex="0030"/>
  <outline>
    <contour>
      <point x="25.0" y="599.214953271028" type="qcurve" smooth="yes"/>
      <point x="25.0" y="856.785046728972" type="line" smooth="yes"/>
      <point x="25.0" y="1199.2897196261683"/>
      <point x="272" y="1476"/>
      <point x="522" y="1476" type="qcurve" smooth="yes"/>
      <point x="773" y="1476"/>
      <point x="1019.7476635514017" y="1199.2897196261683"/>
      <point x="1019.7476635514017" y="856.785046728972" type="qcurve" smooth="yes"/>
      <point x="1019.7476635514017" y="599.214953271028" type="line" smooth="yes"/>
      <point x="1019.7476635514017" y="256.7102803738318"/>
      <point x="770" y="-20"/>
      <point x="521" y="-20" type="qcurve" smooth="yes"/>
      <point x="273" y="-20"/>
      <point x="25.0" y="256.7102803738318"/>
    </contour>
    <contour>
      <point x="507.37383177570086" y="651.6318407960199" type="line" smooth="yes"/>
      <point x="507.37383177570086" y="441.29850746268653"/>
      <point x="512" y="363"/>
      <point x="523" y="363" type="qcurve" smooth="yes"/>
      <point x="534" y="363"/>
      <point x="537.3738317757009" y="441.29850746268653"/>
      <point x="537.3738317757009" y="651.6318407960199" type="qcurve" smooth="yes"/>
      <point x="537.3738317757009" y="803.6268656716418" type="line" smooth="yes"/>
      <point x="537.3738317757009" y="994.7014925373135"/>
      <point x="535" y="1082"/>
      <point x="522" y="1082" type="qcurve" smooth="yes"/>
      <point x="509" y="1082"/>
      <point x="507.37383177570086" y="994.7014925373135"/>
      <point x="507.37383177570086" y="803.6268656716418" type="qcurve" smooth="yes"/>
    </contour>
  </outline>
</glyph>
<glyph name="one" format="2">
  <advance width="669.7457943925233"/>
  <unicode hex="0031"/>
  <outline>
    <contour>
      <point x="351.8046728971963" y="0.0" type="line"/>
      <point x="351.8046728971963" y="902.7462686567164" type="line"/>
      <point x="-49.69999999999999" y="829.7462686567164" type="line"/>
      <point x="-49.69999999999999" y="1346.0" type="line"/>
      <point x="513.8046728971963" y="1476.0" type="line"/>
      <point x="850.6457943925232" y="1476.0" type="line"/>
      <point x="850.6457943925232" y="0.0" type="line"/>
    </contour>
  </outline>
</glyph>
<glyph name="two" format="2">
  <advance width="1065.1476635514018"/>
  <unicode hex="0032"/>
  <outline>
    <contour>
      <point x="80.98130841121497" y="0.0" type="line"/>
      <point x="80.98130841121497" y="374.09369042637275" type="line"/>
      <point x="356.2616822429907" y="768.4009857255777" type="line" smooth="yes"/>
      <point x="407.63593248709725" y="843.2636350955503"/>
      <point x="450.8504672897195" y="964.4457153484913"/>
      <point x="450.8504672897195" y="1017.1579950713722" type="qcurve" smooth="yes"/>
      <point x="450.8504672897195" y="1117.352443390524"/>
      <point x="499.55567954619426" y="1039.636815920398"/>
      <point x="512.981308411215" y="1039.636815920398" type="qcurve" smooth="yes"/>
      <point x="512.9948388896638" y="1039.636815920398"/>
      <point x="579.9532710280373" y="1061.2743292881387"/>
      <point x="579.9532710280373" y="961.8242897661228" type="qcurve" smooth="yes"/>
      <point x="579.9532710280373" y="894.7894638954758" type="line"/>
      <point x="66.77570093457945" y="894.7894638954758" type="line"/>
      <point x="66.77570093457945" y="961.8242897661228" type="line" smooth="yes"/>
      <point x="66.77570093457945" y="1252.3801088017854"/>
      <point x="217.4710559352769" y="1486.0"/>
      <point x="502.9065420560747" y="1486.0" type="qcurve" smooth="yes"/>
      <point x="832.1351187985307" y="1486.0"/>
      <point x="967.5794392523364" y="1308.1277723531873"/>
      <point x="967.5794392523364" y="1039.3038545589807" type="qcurve" smooth="yes"/>
      <point x="967.5794392523364" y="873.3855023945692"/>
      <point x="886.0055795787417" y="666.350723020412"/>
      <point x="723.5794392523364" y="514.6483005533082" type="qcurve" smooth="yes"/>
      <point x="704.6191007578929" y="455.4146091970056" type="line"/>
      <point x="986.2710280373831" y="455.4146091970056" type="line"/>
      <point x="986.2710280373831" y="0.0" type="line"/>
    </contour>
  </outline>
</glyph>
<glyph name="three" format="2">
  <advance width="1066.8476635514016"/>
  <unicode hex="0033"/>
  <outline>
    <contour>
      <point x="83.04205607476635" y="467.7934160970847" type="qcurve" smooth="yes"/>
      <point x="83.04205607476635" y="545.6625749755893" type="line"/>
      <point x="590.088785046729" y="545.6625749755893" type="line"/>
      <point x="590.088785046729" y="467.7934160970847" type="line" smooth="yes"/>
      <point x="590.088785046729" y="395.8654391593435"/>
      <point x="524.0887385502394" y="408.2089552238806"/>
      <point x="543.714953271028" y="408.2089552238806" type="qcurve" smooth="yes"/>
      <point x="541.0395917608221" y="408.2089552238806"/>
      <point x="485.13551401869154" y="371.715906449063"/>
      <point x="485.13551401869154" y="487.4726368159204" type="qcurve" smooth="yes"/>
      <point x="485.13551401869154" y="566.0394755195982"/>
      <point x="534.2392476867997" y="566.3582089552239"/>
      <point x="523.6869158878504" y="566.3582089552239" type="qcurve" smooth="yes"/>
      <point x="389.53738317757006" y="566.3582089552239" type="line"/>
      <point x="389.53738317757006" y="916.0597014925373" type="line"/>
      <point x="530.107476635514" y="916.0597014925373" type="line" smooth="yes"/>
      <point x="516.0556795461943" y="916.0597014925373"/>
      <point x="475.9299065420561" y="914.3397963453759"/>
      <point x="475.9299065420561" y="992.5804156786163" type="qcurve" smooth="yes"/>
      <point x="475.9299065420561" y="1078.7462686567164"/>
      <point x="496.46596456967495" y="1050.0149253731342"/>
      <point x="525.6554377644488" y="1050.0149253731342" type="qcurve" smooth="yes"/>
      <point x="537.5470544473892" y="1050.0149253731342"/>
      <point x="576.6214953271028" y="1057.0861114985819"/>
      <point x="576.6214953271028" y="1005.9100292927883" type="qcurve" smooth="yes"/>
      <point x="576.6214953271028" y="937.3305900404519" type="line"/>
      <point x="80.93925233644859" y="937.3305900404519" type="line"/>
      <point x="80.93925233644859" y="1005.9100292927883" type="line" smooth="yes"/>
      <point x="80.93925233644859" y="1259.955223880597"/>
      <point x="296.2217185102525" y="1486.0"/>
      <point x="540.481308411215" y="1486.0" type="qcurve" smooth="yes"/>
      <point x="802.2731901241455" y="1486.0"/>
      <point x="988.9766355140187" y="1293.2251824987213"/>
      <point x="988.9766355140187" y="1100.0" type="qcurve" smooth="yes"/>
      <point x="988.9766355140187" y="928.7476635514018"/>
      <point x="875.6308411214952" y="786.230204119589"/>
      <point x="779.9018691588785" y="751.1741293532339" type="qcurve"/>
      <point x="779.9018691588785" y="747.1741293532339" type="line"/>
      <point x="904.3598130841121" y="731.6974938392152"/>
      <point x="1003.733644859813" y="582.7850467289719"/>
      <point x="1003.733644859813" y="401.0" type="qcurve" smooth="yes"/>
      <point x="1003.733644859813" y="189.8389826568094"/>
      <point x="837.7366671316314" y="-30.0"/>
      <point x="537.3224299065421" y="-30.0" type="qcurve" smooth="yes"/>
      <point x="262.30796949830284" y="-30.0"/>
      <point x="83.04205607476635" y="237.9258380992235"/>
    </contour>
  </outline>
</glyph>
<glyph name="five" format="2">
  <advance width="1061.7476635514017"/>
  <unicode hex="0035"/>
  <outline>
    <contour>
      <point x="69.64953271028037" y="442.51741293532336" type="qcurve" smooth="yes"/>
      <point x="69.64953271028037" y="522.5174129353234" type="line"/>
      <point x="581.088785046729" y="522.5174129353234" type="line"/>
      <point x="581.088785046729" y="442.51741293532336" type="line" smooth="yes"/>
      <point x="581.088785046729" y="407.0159017994141"/>
      <point x="533.2549635002557" y="395.60696517412936"/>
      <point x="545.2587297159065" y="395.60696517412936" type="qcurve" smooth="yes"/>
      <point x="528.3550704421816" y="395.60696517412936"/>
      <point x="478.97663551401865" y="378.7858836657832"/>
      <point x="478.97663551401865" y="496.8756218905473" type="qcurve" smooth="yes"/>
      <point x="478.97663551401865" y="603.5447993676477"/>
      <point x="546.0167154879806" y="592.1094527363184"/>
      <point x="565.1056167759334" y="592.1094527363184" type="qcurve" smooth="yes"/>
      <point x="562.5881573441204" y="592.1094527363184"/>
      <point x="568.9850048821314" y="525.8439577811876"/>
      <point x="586.7994373924768" y="492.34444599432743" type="qcurve"/>
      <point x="117.64018691588785" y="719.3397498488864" type="line"/>
      <point x="174.92056074766356" y="1456.0" type="line"/>
      <point x="925.7710280373831" y="1456.0" type="line"/>
      <point x="925.7710280373831" y="1000.6019900497513" type="line"/>
      <point x="553.6407913702516" y="1000.6019900497513" type="line"/>
      <point x="539.7534523643465" y="944.9402985074627" type="line"/>
      <point x="518.6871483702981" y="952.0532384804947"/>
      <point x="649.651392569861" y="966.8258706467661"/>
      <point x="647.3317757009345" y="966.8258706467661" type="qcurve" smooth="yes"/>
      <point x="879.2757009345794" y="966.8258706467661"/>
      <point x="994.2850467289718" y="715.0"/>
      <point x="994.2850467289718" y="465.0" type="qcurve" smooth="yes"/>
      <point x="994.2850467289718" y="215.0"/>
      <point x="828.2570093457944" y="-30.0"/>
      <point x="555.6028037383178" y="-30.0" type="qcurve" smooth="yes"/>
      <point x="317.35386153345416" y="-30.0"/>
      <point x="69.64953271028037" y="186.5273631840796"/>
    </contour>
  </outline>
</glyph>
<glyph name="colon" format="2">
  <advance width="557.1644859813084"/>
  <unicode hex="003A"/>
  <outline>
    <contour>
      <point x="34.900000000000006" y="226.98130841121494" type="qcurve" smooth="yes"/>
      <point x="34.900000000000006" y="328.5420560747664"/>
      <point x="168.507476635514" y="474.5420560747663"/>
      <point x="293.8532710280374" y="474.5420560747663" type="qcurve" smooth="yes"/>
      <point x="419.1990654205607" y="474.5420560747663"/>
      <point x="552.8065420560747" y="328.5420560747664"/>
      <point x="552.8065420560747" y="226.98130841121494" type="qcurve" smooth="yes"/>
      <point x="552.8065420560747" y="124.0"/>
      <point x="419.1990654205607" y="-22.0"/>
      <point x="293.8532710280374" y="-22.0" type="qcurve" smooth="yes"/>
      <point x="168.507476635514" y="-22.0"/>
      <point x="34.900000000000006" y="124.0"/>
    </contour>
    <contour>
      <point x="34.900000000000006" y="871.5794392523364" type="qcurve" smooth="yes"/>
      <point x="34.900000000000006" y="973.1401869158879"/>
      <point x="168.507476635514" y="1119.1401869158879"/>
      <point x="293.8532710280374" y="1119.1401869158879" type="qcurve" smooth="yes"/>
      <point x="419.1990654205607" y="1119.1401869158879"/>
      <point x="552.8065420560747" y="973.1401869158879"/>
      <point x="552.8065420560747" y="871.5794392523364" type="qcurve" smooth="yes"/>
      <point x="552.8065420560747" y="768.5981308411215"/>
      <point x="419.1990654205607" y="622.5981308411215"/>
      <point x="293.8532710280374" y="622.5981308411215" type="qcurve" smooth="yes"/>
      <point x="168.507476635514" y="622.5981308411215"/>
      <point x="34.900000000000006" y="768.5981308411215"/>
    </contour>
  </outline>
</glyph>
<glyph name="semicolon" format="2">
  <advance width="524"/>
  <unicode hex="003B"/>
  <outline>
    <contour>
      <point x="-57" y="-199" type="line"/>
      <point x="-10" y="-149"/>
      <point x="40" y="-19"/>
      <point x="40" y="70" type="qcurve" smooth="yes"/>
      <point x="40" y="396" type="line"/>
      <point x="505" y="396" type="line"/>
      <point x="505" y="70" type="line" smooth="yes"/>
      <point x="505" y="-84"/>
      <point x="320" y="-330"/>
      <point x="154" y="-384" type="qcurve"/>
    </contour>
    <contour>
      <point x="13" y="705" type="qcurve" smooth="yes"/>
      <point x="13" y="803"/>
      <point x="139" y="933"/>
      <point x="256" y="933" type="qcurve" smooth="yes"/>
      <point x="376" y="933"/>
      <point x="501" y="803"/>
      <point x="501" y="704" type="qcurve" smooth="yes"/>
      <point x="501" y="605"/>
      <point x="374" y="476"/>
      <point x="256" y="476" type="qcurve" smooth="yes"/>
      <point x="139" y="476"/>
      <point x="13" y="609"/>
    </contour>
  </outline>
</glyph>
<glyph name="greater" format="2">
  <advance width="651.6570093457943"/>
  <unicode hex="003E"/>
  <outline>
    <contour>
      <point x="24.400000000000006" y="78.94392523364488" type="line"/>
      <point x="24.400000000000006" y="621.4579439252336" type="line"/>
      <point x="208.14766355140185" y="684.1028037383178" type="line"/>
      <point x="24.400000000000006" y="749.588785046729" type="line"/>
      <point x="24.400000000000006" y="1265.056074766355" type="line"/>
      <point x="628.1570093457943" y="847.7009345794393" type="line"/>
      <point x="628.1570093457943" y="499.14018691588785" type="line"/>
    </contour>
  </outline>
</glyph>
<glyph name="A" format="2">
  <advance width="1097"/>
  <unicode hex="0041"/>
  <anchor x="752.5869019389036" y="0.0" name="bottom"/>
  <anchor x="1026.970079508997" y="0.0" name="ogonek"/>
  <anchor x="774.6055935276886" y="1456.0" name="top"/>
  <anchor x="289.63363091086626" y="1074.0" name="tonos"/>
  <outline>
    <contour>
      <point x="-7" y="0" type="line"/>
      <point x="259" y="1462" type="line"/>
      <point x="829" y="1462" type="line"/>
      <point x="1143" y="0" type="line"/>
      <point x="595" y="0" type="line"/>
      <point x="555" y="861" type="line" smooth="yes"/>
      <point x="553" y="896"/>
      <point x="550" y="957"/>
      <point x="548" y="988" type="qcurve"/>
      <point x="548" y="988" type="line"/>
      <point x="546" y="957"/>
      <point x="544" y="895"/>
      <point x="543" y="861" type="qcurve" smooth="yes"/>
      <point x="525" y="0" type="line"/>
    </contour>
    <contour>
      <point x="280" y="215" type="line"/>
      <point x="317" y="577" type="line"/>
      <point x="801" y="577" type="line"/>
      <point x="831" y="215" type="line"/>
    </contour>
  </outline>
</glyph>
<glyph name="B" format="2">
  <advance width="1086"/>
  <unicode hex="0042"/>
  <anchor x="509.31775700934577" y="0.0" name="bottom"/>
  <anchor x="509.31775700934577" y="1456.0" name="top"/>
  <outline>
    <contour>
      <point x="34" y="0" type="line"/>
      <point x="34" y="1456" type="line"/>
      <point x="629" y="1456" type="line" smooth="yes"/>
      <point x="841" y="1456"/>
      <point x="1041" y="1270"/>
      <point x="1041" y="1086" type="qcurve" smooth="yes"/>
      <point x="1041" y="946"/>
      <point x="985" y="784"/>
      <point x="932" y="764" type="qcurve"/>
      <point x="932" y="760" type="line"/>
      <point x="993" y="744"/>
      <point x="1063" y="568"/>
      <point x="1063" y="420" type="qcurve" smooth="yes"/>
      <point x="1063" y="220"/>
      <point x="878" y="0"/>
      <point x="670" y="0" type="qcurve" smooth="yes"/>
    </contour>
    <contour>
      <point x="511" y="392" type="line"/>
      <point x="522" y="392" type="line" smooth="yes"/>
      <point x="535" y="392"/>
      <point x="541" y="442"/>
      <point x="541" y="482" type="qcurve" smooth="yes"/>
      <point x="541" y="545"/>
      <point x="535" y="572"/>
      <point x="522" y="572" type="qcurve" smooth="yes"/>
      <point x="292" y="572" type="line"/>
      <point x="292" y="913" type="line"/>
      <point x="521" y="913" type="line" smooth="yes"/>
      <point x="531" y="913"/>
      <point x="538" y="945"/>
      <point x="538" y="988" type="qcurve" smooth="yes"/>
      <point x="538" y="1038"/>
      <point x="530" y="1060"/>
      <point x="521" y="1060" type="qcurve" smooth="yes"/>
      <point x="511" y="1060" type="line"/>
    </contour>
  </outline>
</glyph>
<glyph name="C" format="2">
  <advance width="1077.9528037383175"/>
  <unicode hex="0043"/>
  <anchor x="557.5817757009345" y="0.0" name="bottom"/>
  <anchor x="567.5817757009345" y="1456.0" name="top"/>
  <outline>
    <contour>
      <point x="25.75" y="641.1775700934579" type="qcurve" smooth="yes"/>
      <point x="25.75" y="801.2834890965731" type="line" smooth="yes"/>
      <point x="25.75" y="1101.8664155856234"/>
      <point x="272.6166015715814" y="1466.6666666666667"/>
      <point x="561.8995327102803" y="1466.6666666666667" type="qcurve" smooth="yes"/>
      <point x="827.7241014553401" y="1466.6666666666667"/>
      <point x="1050.1705607476636" y="1219.7290184591063"/>
      <point x="1068.6378504672898" y="915.9593620681637" type="qcurve" smooth="yes"/>
      <point x="1070.0584112149531" y="822.407960199005" type="line"/>
      <point x="565.535046728972" y="822.407960199005" type="line"/>
      <point x="564.1144859813085" y="915.9593620681637" type="line" smooth="yes"/>
      <point x="551.3294392523364" y="1030.8610219928396"/>
      <point x="557.6046984702656" y="1021.7164179104476"/>
      <point x="550.535046728972" y="1021.7164179104476" type="qcurve" smooth="yes"/>
      <point x="530.4322429906542" y="1021.7164179104476"/>
      <point x="536.535046728972" y="1091.0597014925372"/>
      <point x="536.535046728972" y="716.820802529409" type="qcurve" smooth="yes"/>
      <point x="536.535046728972" y="725.6402566606221" type="line" smooth="yes"/>
      <point x="536.535046728972" y="340.29850746268653"/>
      <point x="533.1735365229925" y="430.50248756218906"/>
      <point x="551.535046728972" y="430.50248756218906" type="qcurve" smooth="yes"/>
      <point x="565.2763402613103" y="430.50248756218906"/>
      <point x="577.5924233970336" y="427.7686799646626"/>
      <point x="565.8247663551401" y="543.604500860185" type="qcurve" smooth="yes"/>
      <point x="566.535046728972" y="634.2587064676617" type="line"/>
      <point x="1071.0584112149531" y="634.2587064676617" type="line"/>
      <point x="1071.0584112149531" y="552.8381457199981" type="line" smooth="yes"/>
      <point x="1065.0350234807272" y="268.7757939275584"/>
      <point x="809.7440019528526" y="-10.0"/>
      <point x="561.8995327102803" y="-10.0" type="qcurve" smooth="yes"/>
      <point x="276.6166015715814" y="-10.0"/>
      <point x="25.75" y="336.98716696889386"/>
    </contour>
  </outline>
</glyph>
<glyph name="D" format="2">
  <advance width="1097"/>
  <unicode hex="0044"/>
  <anchor x="543.4953271028037" y="0.0" name="bottom"/>
  <anchor x="308.0560747663551" y="728.0" name="center"/>
  <anchor x="543.4953271028037" y="1456.0" name="top"/>
  <outline>
    <contour>
      <point x="34" y="0" type="line"/>
      <point x="34" y="1456" type="line"/>
      <point x="586" y="1456" type="line" smooth="yes"/>
      <point x="793" y="1456"/>
      <point x="1071" y="1175"/>
      <point x="1071" y="745" type="qcurve" smooth="yes"/>
      <point x="1071" y="705" type="line" smooth="yes"/>
      <point x="1071" y="300"/>
      <point x="788" y="0"/>
      <point x="586" y="0" type="qcurve" smooth="yes"/>
    </contour>
    <contour>
      <point x="531" y="436" type="line"/>
      <point x="541" y="436" type="line" smooth="yes"/>
      <point x="551" y="436"/>
      <point x="561" y="486"/>
      <point x="561" y="710" type="qcurve" smooth="yes"/>
      <point x="561" y="740" type="line" smooth="yes"/>
      <point x="561" y="969"/>
      <point x="551" y="1015"/>
      <point x="541" y="1015" type="qcurve" smooth="yes"/>
      <point x="531" y="1015" type="line"/>
    </contour>
  </outline>
</glyph>
<glyph name="E" format="2">
  <advance width="990"/>
  <unicode hex="0045"/>
  <anchor x="693.8836657832334" y="0.0" name="bottom"/>
  <anchor x="1139.2591714325567" y="0.0" name="ogonek"/>
  <anchor x="695.6334216766634" y="1456.0" name="top"/>
  <anchor x="151.1061049890733" y="1074.0" name="tonos"/>
  <outline>
    <contour>
      <point x="34" y="0" type="line"/>
      <point x="34" y="1456" type="line"/>
      <point x="968" y="1456" type="line"/>
      <point x="968" y="990" type="line"/>
      <point x="531" y="990" type="line"/>
      <point x="531" y="466" type="line"/>
      <point x="972" y="466" type="line"/>
      <point x="972" y="0" type="line"/>
    </contour>
    <contour>
      <point x="285" y="496" type="line"/>
      <point x="285" y="962" type="line"/>
      <point x="948" y="962" type="line"/>
      <point x="948" y="496" type="line"/>
    </contour>
  </outline>
</glyph>
<glyph name="F" format="2">
  <advance width="887.2560747663551"/>
  <unicode hex="0046"/>
  <anchor x="552.4579439252336" y="0.0" name="bottom"/>
  <anchor x="594.018691588785" y="1457.0" name="top"/>
  <outline>
    <contour>
      <point x="34.0" y="0.0" type="line"/>
      <point x="34.0" y="1456.0" type="line"/>
      <point x="870.0560747663551" y="1456.0" type="line"/>
      <point x="870.0560747663551" y="1003.7064676616915" type="line"/>
      <point x="530.0" y="1003.7064676616915" type="line"/>
      <point x="530.0" y="0.0" type="line"/>
    </contour>
    <contour>
      <point x="283.7383177570093" y="422.09452736318406" type="line"/>
      <point x="283.7383177570093" y="867.7164179104477" type="line"/>
      <point x="842.0560747663551" y="867.7164179104477" type="line"/>
      <point x="842.0560747663551" y="422.09452736318406" type="line"/>
    </contour>
  </outline>
</glyph>
<glyph name="G" format="2">
  <advance width="1087"/>
  <unicode hex="0047"/>
  <anchor x="585.7593457943926" y="0.0" name="bottom"/>
  <anchor x="557.3481308411215" y="1456.0" name="top"/>
  <outline>
    <contour>
      <point x="26" y="628" type="qcurve" smooth="yes"/>
      <point x="26" y="831" type="line" smooth="yes"/>
      <point x="26" y="1176"/>
      <point x="303" y="1476"/>
      <point x="553" y="1476" type="qcurve" smooth="yes"/>
      <point x="795" y="1476"/>
      <point x="1054" y="1220"/>
      <point x="1054" y="1044" type="qcurve" smooth="yes"/>
      <point x="1054" y="925" type="line"/>
      <point x="566" y="925" type="line"/>
      <point x="566" y="1052" type="line" smooth="yes"/>
      <point x="566" y="1064"/>
      <point x="562" y="1077"/>
      <point x="552" y="1077" type="qcurve" smooth="yes"/>
      <point x="542" y="1077"/>
      <point x="537" y="1057"/>
      <point x="537" y="710" type="qcurve" smooth="yes"/>
      <point x="537" y="760" type="line" smooth="yes"/>
      <point x="537" y="432"/>
      <point x="544" y="410"/>
      <point x="552" y="410" type="qcurve" smooth="yes"/>
      <point x="560" y="410"/>
      <point x="567" y="423"/>
      <point x="567" y="442" type="qcurve"/>
      <point x="567" y="530" type="line"/>
      <point x="548" y="530" type="line"/>
      <point x="548" y="900" type="line"/>
      <point x="1057" y="900" type="line"/>
      <point x="1057" y="230" type="line"/>
      <point x="1016" y="160"/>
      <point x="783" y="-20"/>
      <point x="591" y="-20" type="qcurve" smooth="yes"/>
      <point x="327" y="-20"/>
      <point x="26" y="267"/>
    </contour>
  </outline>
</glyph>
<glyph name="J" format="2">
  <advance width="999"/>
  <unicode hex="004A"/>
  <anchor x="428.78271028037386" y="0.0" name="bottom"/>
  <anchor x="744.3434579439252" y="1456.0" name="top"/>
  <outline>
    <contour>
      <point x="15" y="564" type="qcurve" smooth="yes"/>
      <point x="15" y="645" type="line"/>
      <point x="460" y="645" type="line"/>
      <point x="460" y="564" type="line" smooth="yes"/>
      <point x="460" y="457"/>
      <point x="462" y="432"/>
      <point x="475" y="432" type="qcurve" smooth="yes"/>
      <point x="487" y="432"/>
      <point x="490" y="457"/>
      <point x="490" y="660" type="qcurve" smooth="yes"/>
      <point x="490" y="1456" type="line"/>
      <point x="986" y="1456" type="line"/>
      <point x="986" y="660" type="line" smooth="yes"/>
      <point x="986" y="234"/>
      <point x="715" y="-20"/>
      <point x="476" y="-20" type="qcurve" smooth="yes"/>
      <point x="240" y="-20"/>
      <point x="15" y="241"/>
    </contour>
  </outline>
</glyph>
<glyph name="K" format="2">
  <advance width="1352.0165295020226"/>
  <unicode hex="004B"/>
  <anchor x="565.3177570093458" y="0.0" name="bottom"/>
  <anchor x="565.3177570093458" y="1456.0" name="top"/>
  <outline>
    <contour>
      <point x="34.0" y="0.0" type="line"/>
      <point x="34.0" y="1456.0" type="line"/>
      <point x="530.7102803738318" y="1456.0" type="line"/>
      <point x="530.7102803738318" y="0.0" type="line"/>
    </contour>
    <contour>
      <point x="732.6664806807086" y="0.0" type="line"/>
      <point x="496.774213046915" y="721.281024782629" type="line"/>
      <point x="811.2198354024271" y="1180.1718510252474" type="line"/>
      <point x="1344.2926489050076" y="0.0" type="line"/>
    </contour>
    <contour>
      <point x="281.1898916631794" y="203.2477797926257" type="line"/>
      <point x="279.7073045985028" y="717.0736504393918" type="line"/>
      <point x="633.6000836936812" y="1456.0" type="line"/>
      <point x="1118.6100804389268" y="1456.0" type="line"/>
    </contour>
  </outline>
</glyph>
<glyph name="M" format="2">
  <advance width="1459"/>
  <unicode hex="004D"/>
  <anchor x="1019.5301529734504" y="0.0" name="bottom"/>
  <anchor x="1020.2404333472823" y="1456.0" name="top"/>
  <outline>
    <contour>
      <point x="34" y="0" type="line"/>
      <point x="34" y="1456" type="line"/>
      <point x="699" y="1456" type="line"/>
      <point x="728" y="626" type="line" smooth="yes"/>
      <point x="728" y="626"/>
      <point x="728" y="626"/>
      <point x="728" y="626" type="qcurve"/>
      <point x="728" y="626" type="line"/>
      <point x="728" y="626"/>
      <point x="728" y="626"/>
      <point x="728" y="626" type="qcurve" smooth="yes"/>
      <point x="760" y="1456" type="line"/>
      <point x="1425" y="1456" type="line"/>
      <point x="1425" y="0" type="line"/>
      <point x="992" y="0" type="line"/>
      <point x="992" y="898" type="line" smooth="yes"/>
      <point x="992" y="898"/>
      <point x="992" y="898"/>
      <point x="992" y="898" type="qcurve"/>
      <point x="992" y="898" type="line"/>
      <point x="992" y="898"/>
      <point x="992" y="898"/>
      <point x="992" y="898" type="qcurve" smooth="yes"/>
      <point x="943" y="0" type="line"/>
      <point x="515" y="0" type="line"/>
      <point x="467" y="898" type="line" smooth="yes"/>
      <point x="467" y="898"/>
      <point x="467" y="898"/>
      <point x="467" y="898" type="qcurve"/>
      <point x="467" y="898" type="line"/>
      <point x="467" y="898"/>
      <point x="467" y="898"/>
      <point x="467" y="898" type="qcurve" smooth="yes"/>
      <point x="467" y="0" type="line"/>
    </contour>
  </outline>
</glyph>
<glyph name="N" format="2">
  <advance width="1057"/>
  <unicode hex="004E"/>
  <anchor x="799.2599618728784" y="0.0" name="bottom"/>
  <anchor x="799.2599618728784" y="1456.0" name="top"/>
  <anchor x="1070.073045985028" y="0.0" name="engtail"/>
  <outline>
    <contour>
      <point x="34" y="0" type="line"/>
      <point x="34" y="1456" type="line"/>
      <point x="572" y="1456" type="line"/>
      <point x="629" y="938" type="line" smooth="yes"/>
      <point x="629" y="938"/>
      <point x="629" y="938"/>
      <point x="629" y="938" type="qcurve"/>
      <point x="629" y="938" type="line"/>
      <point x="629" y="938"/>
      <point x="629" y="938"/>
      <point x="629" y="938" type="qcurve" smooth="yes"/>
      <point x="629" y="1456" type="line"/>
      <point x="1023" y="1456" type="line"/>
      <point x="1023" y="0" type="line"/>
      <point x="485" y="0" type="line"/>
      <point x="429" y="514" type="line" smooth="yes"/>
      <point x="429" y="514"/>
      <point x="429" y="514"/>
      <point x="429" y="514" type="qcurve"/>
      <point x="429" y="514" type="line"/>
      <point x="429" y="514"/>
      <point x="429" y="514"/>
      <point x="429" y="514" type="qcurve" smooth="yes"/>
      <point x="429" y="0" type="line"/>
    </contour>
  </outline>
</glyph>
<glyph name="O" format="2">
  <advance width="1103.070093457944"/>
  <unicode hex="004F"/>
  <anchor x="551.535046728972" y="0.0" name="bottom"/>
  <anchor x="551.535046728972" y="728.0" name="center"/>
  <anchor x="762.179906542056" y="0.0" name="ogonek"/>
  <anchor x="551.535046728972" y="1456.0" name="top"/>
  <anchor x="765.179906542056" y="1456.0" name="topright"/>
  <anchor x="-95.8481308411215" y="1074.0" name="tonos"/>
  <anchor x="444.11448598130846" y="750.0" name="yu_dash"/>
  <outline>
    <contour>
      <point x="25.75" y="719.4392523364486" type="qcurve" smooth="yes"/>
      <point x="25.75" y="733.0529595015577" type="line" smooth="yes"/>
      <point x="25.75" y="1168.4610591900312"/>
      <point x="256.0957943925233" y="1466.0"/>
      <point x="551.535046728972" y="1466.0" type="qcurve" smooth="yes"/>
      <point x="846.9742990654206" y="1466.0"/>
      <point x="1077.320093457944" y="1168.4610591900312"/>
      <point x="1077.320093457944" y="733.0529595015577" type="qcurve" smooth="yes"/>
      <point x="1077.320093457944" y="719.4392523364486" type="line" smooth="yes"/>
      <point x="1077.320093457944" y="284.74143302180687"/>
      <point x="839.1612149532709" y="-10.0"/>
      <point x="551.535046728972" y="-10.0" type="qcurve" smooth="yes"/>
      <point x="263.9088785046729" y="-10.0"/>
      <point x="25.75" y="284.74143302180687"/>
    </contour>
    <contour>
      <point x="537.2453271028037" y="724.5373134328358" type="line" smooth="yes"/>
      <point x="537.2453271028037" y="370.6417910447761"/>
      <point x="541.2453271028037" y="434.2089552238806"/>
      <point x="552.2453271028037" y="434.2089552238806" type="qcurve" smooth="yes"/>
      <point x="563.2453271028037" y="434.2089552238806"/>
      <point x="567.2453271028037" y="370.6417910447761"/>
      <point x="567.2453271028037" y="724.5373134328358" type="qcurve" smooth="yes"/>
      <point x="567.2453271028037" y="730.1293532338309" type="line" smooth="yes"/>
      <point x="567.2453271028037" y="1105.358208955224"/>
      <point x="560.2453271028037" y="1021.7910447761194"/>
      <point x="552.2453271028037" y="1021.7910447761194" type="qcurve" smooth="yes"/>
      <point x="543.2453271028037" y="1021.7910447761194"/>
      <point x="537.2453271028037" y="1105.358208955224"/>
      <point x="537.2453271028037" y="730.1293532338309" type="qcurve" smooth="yes"/>
    </contour>
  </outline>
</glyph>
<glyph name="P" format="2">
  <advance width="1103"/>
  <unicode hex="0050"/>
  <anchor x="427.9065420560747" y="0.0" name="bottom"/>
  <anchor x="539.4205607476636" y="1456.0" name="top"/>
  <outline>
    <contour>
      <point x="34" y="0" type="line"/>
      <point x="34" y="1456" type="line"/>
      <point x="658" y="1456" type="line" smooth="yes"/>
      <point x="845" y="1456"/>
      <point x="1078" y="1165"/>
      <point x="1078" y="921" type="qcurve" smooth="yes"/>
      <point x="1078" y="614"/>
      <point x="845" y="344"/>
      <point x="658" y="344" type="qcurve" smooth="yes"/>
      <point x="289" y="344" type="line"/>
      <point x="289" y="775" type="line"/>
      <point x="552" y="775" type="line" smooth="yes"/>
      <point x="565" y="775"/>
      <point x="568" y="815"/>
      <point x="570" y="901" type="qcurve" smooth="yes"/>
      <point x="570" y="986"/>
      <point x="565" y="1021"/>
      <point x="552" y="1021" type="qcurve" smooth="yes"/>
      <point x="540" y="1021" type="line"/>
      <point x="540" y="0" type="line"/>
    </contour>
  </outline>
</glyph>
<glyph name="Q" format="2">
  <advance width="1103"/>
  <unicode hex="0051"/>
  <anchor x="551.535046728972" y="0.0" name="bottom"/>
  <anchor x="551.535046728972" y="1456.0" name="top"/>
  <outline>
    <contour>
      <point x="26" y="720" type="qcurve" smooth="yes"/>
      <point x="26" y="734" type="line" smooth="yes"/>
      <point x="26" y="1169"/>
      <point x="295" y="1476"/>
      <point x="552" y="1476" type="qcurve" smooth="yes"/>
      <point x="809" y="1476"/>
      <point x="1078" y="1169"/>
      <point x="1078" y="734" type="qcurve" smooth="yes"/>
      <point x="1078" y="720" type="line" smooth="yes"/>
      <point x="1078" y="315"/>
      <point x="809" y="-20"/>
      <point x="552" y="-20" type="qcurve" smooth="yes"/>
      <point x="295" y="-20"/>
      <point x="26" y="315"/>
    </contour>
    <contour>
      <point x="538" y="725" type="line" smooth="yes"/>
      <point x="537" y="470"/>
      <point x="542" y="435"/>
      <point x="553" y="435" type="qcurve" smooth="yes"/>
      <point x="564" y="435"/>
      <point x="567" y="470"/>
      <point x="568" y="725" type="qcurve" smooth="yes"/>
      <point x="568" y="731" type="line" smooth="yes"/>
      <point x="567" y="1006"/>
      <point x="561" y="1022"/>
      <point x="553" y="1022" type="qcurve" smooth="yes"/>
      <point x="544" y="1022"/>
      <point x="537" y="1006"/>
      <point x="538" y="731" type="qcurve" smooth="yes"/>
    </contour>
    <contour>
      <point x="772" y="-156" type="line"/>
      <point x="518" y="100" type="line"/>
      <point x="796" y="400" type="line"/>
      <point x="1054" y="144" type="line"/>
    </contour>
  </outline>
</glyph>
<glyph name="R" format="2">
  <advance width="1110"/>
  <unicode hex="0052"/>
  <anchor x="599.0849086343982" y="0.0" name="bottom"/>
  <anchor x="599.0849086343982" y="1456.0" name="top"/>
  <outline>
    <contour>
      <point x="45" y="0" type="line"/>
      <point x="45" y="1456" type="line"/>
      <point x="661" y="1456" type="line" smooth="yes"/>
      <point x="839" y="1456"/>
      <point x="1070" y="1214"/>
      <point x="1070" y="931" type="qcurve" smooth="yes"/>
      <point x="1070" y="653"/>
      <point x="827" y="342"/>
      <point x="668" y="342" type="qcurve" smooth="yes"/>
      <point x="292" y="342" type="line"/>
      <point x="292" y="769" type="line"/>
      <point x="550" y="769" type="line" smooth="yes"/>
      <point x="563" y="769"/>
      <point x="567" y="795"/>
      <point x="568" y="896" type="qcurve" smooth="yes"/>
      <point x="568" y="994"/>
      <point x="563" y="1021"/>
      <point x="550" y="1020" type="qcurve" smooth="yes"/>
      <point x="540" y="1020" type="line"/>
      <point x="540" y="0" type="line"/>
    </contour>
    <contour>
      <point x="593" y="0" type="line"/>
      <point x="521" y="626" type="line"/>
      <point x="926" y="758" type="line"/>
      <point x="1105" y="0" type="line"/>
    </contour>
  </outline>
</glyph>
<glyph name="S" format="2">
  <advance width="1065.3411214953271"/>
  <unicode hex="0053"/>
  <anchor x="528.4205607476636" y="0.0" name="bottom"/>
  <anchor x="528.4205607476636" y="1456.0" name="top"/>
  <outline>
    <contour>
      <point x="22.0" y="452.40135769749384" type="qcurve" smooth="yes"/>
      <point x="22.0" y="548.6069651741293" type="line"/>
      <point x="539.3084112149533" y="548.6069651741293" type="line"/>
      <point x="539.3084112149533" y="452.40135769749384" type="line" smooth="yes"/>
      <point x="539.3084112149533" y="361.2023527223695"/>
      <point x="480.2530803924303" y="428.2786069651741"/>
      <point x="558.4460408239177" y="428.2786069651741" type="qcurve" smooth="yes"/>
      <point x="593.4949551308877" y="428.2786069651741"/>
      <point x="587.744687776073" y="312.0039057051192"/>
      <point x="587.744687776073" y="407.4000557957874" type="qcurve" smooth="yes"/>
      <point x="587.744687776073" y="409.64839354628725"/>
      <point x="595.776398381922" y="450.30748128516296"/>
      <point x="480.1428372157902" y="488.9802854884457" type="qcurve" smooth="yes"/>
      <point x="305.45459617798855" y="542.395499139815"/>
      <point x="23.44859813084112" y="744.0519830752778"/>
      <point x="23.44859813084112" y="978.3027386432324" type="qcurve" smooth="yes"/>
      <point x="23.44859813084112" y="1226.7497558934301"/>
      <point x="277.30841121495325" y="1466.0"/>
      <point x="525.4205607476636" y="1466.0" type="qcurve" smooth="yes"/>
      <point x="782.4282326684335" y="1466.0"/>
      <point x="1016.5327102803737" y="1265.7212070488677"/>
      <point x="1022.7943925233644" y="1019.9767517552425" type="qcurve" smooth="yes"/>
      <point x="1022.7943925233644" y="923.7711442786069" type="line"/>
      <point x="525.3738317757009" y="923.7711442786069" type="line"/>
      <point x="525.3738317757009" y="1019.2354582229043" type="line" smooth="yes"/>
      <point x="525.3738317757009" y="1093.3299855860882"/>
      <point x="535.4205607476636" y="1028.4626865671642"/>
      <point x="515.5416841028502" y="1028.4626865671642" type="qcurve" smooth="yes"/>
      <point x="477.90579811224256" y="1028.4626865671642"/>
      <point x="443.3713209652671" y="1113.0317571023388"/>
      <point x="443.3713209652671" y="1051.3908959873531" type="qcurve" smooth="yes"/>
      <point x="443.3713209652671" y="1029.1964941646904"/>
      <point x="619.1179150974101" y="1049.1730599339753"/>
      <point x="662.4018691588785" y="1011.69512251825" type="qcurve" smooth="yes"/>
      <point x="848.7473845724647" y="952.4930022783279"/>
      <point x="1044.8411214953271" y="727.4402752592179"/>
      <point x="1044.8411214953271" y="494.4113079462501" type="qcurve" smooth="yes"/>
      <point x="1044.8411214953271" y="261.3823406332822"/>
      <point x="801.5794392523364" y="-10.0"/>
      <point x="551.3364485981308" y="-10.0" type="qcurve" smooth="yes"/>
      <point x="289.97405495885056" y="-10.0"/>
      <point x="34.78504672897196" y="192.10168782256937"/>
    </contour>
  </outline>
</glyph>
<glyph name="T" format="2">
  <advance width="1046.928971962617"/>
  <unicode hex="0054"/>
  <anchor x="529.4644859813085" y="0.0" name="bottom"/>
  <anchor x="529.4644859813085" y="728.0" name="center"/>
  <anchor x="529.4644859813085" y="1456.0" name="top"/>
  <anchor x="676.885046728972" y="0.0" name="cy_descender"/>
  <outline>
    <contour>
      <point x="271.2028037383178" y="0.0" type="line"/>
      <point x="271.2028037383178" y="1378.0" type="line"/>
      <point x="775.7261682242989" y="1378.0" type="line"/>
      <point x="775.7261682242989" y="0.0" type="line"/>
    </contour>
    <contour>
      <point x="12.1" y="1000.0" type="line"/>
      <point x="12.1" y="1456.0" type="line"/>
      <point x="1034.8289719626168" y="1456.0" type="line"/>
      <point x="1034.8289719626168" y="1000.0" type="line"/>
    </contour>
  </outline>
</glyph>
<glyph name="U" format="2">
  <advance width="1086.2102803738317"/>
  <unicode hex="0055"/>
  <anchor x="414.1892523364486" y="0.0" name="bottom"/>
  <anchor x="580.2453271028037" y="0.0" name="ogonek"/>
  <anchor x="510.78738317757006" y="1456.0" name="top"/>
  <anchor x="973.7339122146277" y="1456.0" name="topright"/>
  <outline>
    <contour>
      <point x="31.75" y="607.7360859255126" type="qcurve" smooth="yes"/>
      <point x="31.75" y="1456.0" type="line"/>
      <point x="527.75" y="1456.0" type="line"/>
      <point x="527.75" y="631.6616915422885" type="line" smooth="yes"/>
      <point x="527.75" y="473.1741293532338"/>
      <point x="526.3060515181104" y="469.7910447761194"/>
      <point x="544.4602803738318" y="469.7910447761194" type="qcurve" smooth="yes"/>
      <point x="562.614509229553" y="469.7910447761194"/>
      <point x="558.4602803738317" y="473.1741293532338"/>
      <point x="558.4602803738317" y="631.6616915422885" type="qcurve" smooth="yes"/>
      <point x="558.4602803738317" y="1456.0" type="line"/>
      <point x="1054.4602803738317" y="1456.0" type="line"/>
      <point x="1054.4602803738317" y="479.9975821825452" type="line" smooth="yes"/>
      <point x="1054.4602803738317" y="229.27539870739758"/>
      <point x="848.2079439252336" y="-10.0"/>
      <point x="538.7189868414935" y="-10.0" type="qcurve" smooth="yes"/>
      <point x="210.11448598130846" y="-10.0"/>
      <point x="31.75" y="254.35230390105545"/>
    </contour>
  </outline>
</glyph>
<glyph name="W" format="2">
  <advance width="1768.934579439252"/>
  <unicode hex="0057"/>
  <anchor x="374.4883526293765" y="0.0" name="bottom"/>
  <anchor x="374.4883526293765" y="1456.0" name="top"/>
  <outline>
    <contour>
      <point x="231.7289719626168" y="-10.0" type="line"/>
      <point x="16.0" y="1456.0" type="line"/>
      <point x="507.02803738317755" y="1456.0" type="line"/>
      <point x="563.6448598130842" y="634.411214953271" type="line" smooth="yes"/>
      <point x="568.6168224299065" y="596.9906542056075"/>
      <point x="568.196261682243" y="559.411214953271"/>
      <point x="569.4859813084113" y="524.9906542056075" type="qcurve"/>
      <point x="578.0654205607477" y="524.9906542056075" type="line"/>
      <point x="577.3551401869158" y="559.411214953271"/>
      <point x="575.9345794392523" y="600.8317757009345"/>
      <point x="580.9065420560747" y="634.411214953271" type="qcurve" smooth="yes"/>
      <point x="642.1495327102803" y="1455.2897196261683" type="line"/>
      <point x="1229.6448598130842" y="1455.2897196261683" type="line"/>
      <point x="1279.233644859813" y="636.5420560747664" type="line" smooth="yes"/>
      <point x="1284.2056074766356" y="601.5420560747664"/>
      <point x="1282.7850467289718" y="559.411214953271"/>
      <point x="1282.0747663551401" y="524.9906542056075" type="qcurve"/>
      <point x="1290.3644859813085" y="524.9906542056075" type="line"/>
      <point x="1290.6542056074768" y="559.411214953271"/>
      <point x="1288.1028037383176" y="600.5420560747664"/>
      <point x="1289.1028037383176" y="636.5420560747664" type="qcurve" smooth="yes"/>
      <point x="1354.8224299065419" y="1456.0" type="line"/>
      <point x="1752.934579439252" y="1456.0" type="line"/>
      <point x="1555.6728971962616" y="-10.0" type="line"/>
      <point x="942.7943925233644" y="-10.0" type="line"/>
      <point x="886.9158878504672" y="813.588785046729" type="line" smooth="yes"/>
      <point x="881.233644859813" y="850.0093457943925"/>
      <point x="885.2056074766356" y="902.196261682243"/>
      <point x="884.9158878504672" y="936.6168224299065" type="qcurve"/>
      <point x="876.9158878504672" y="936.6168224299065" type="line"/>
      <point x="876.6261682242989" y="902.196261682243"/>
      <point x="880.5981308411215" y="850.0093457943925"/>
      <point x="874.9158878504672" y="813.588785046729" type="qcurve" smooth="yes"/>
      <point x="819.0373831775701" y="-10.0" type="line"/>
    </contour>
  </outline>
</glyph>
<glyph name="X" format="2">
  <advance width="1084"/>
  <unicode hex="0058"/>
  <anchor x="582.2126168224299" y="0.0" name="bottom"/>
  <anchor x="582.2126168224299" y="1456.0" name="top"/>
  <anchor x="750.8481308411215" y="0.0" name="cy_descender"/>
  <outline>
    <contour>
      <point x="-30" y="0" type="line"/>
      <point x="374" y="955" type="line"/>
      <point x="484" y="955" type="line"/>
      <point x="667" y="1456" type="line"/>
      <point x="1114" y="1456" type="line"/>
      <point x="723" y="513" type="line"/>
      <point x="612" y="513" type="line"/>
      <point x="446" y="0" type="line"/>
    </contour>
    <contour>
      <point x="-8" y="1456" type="line"/>
      <point x="514" y="1456" type="line"/>
      <point x="711" y="915" type="line"/>
      <point x="778" y="917" type="line"/>
      <point x="1091" y="-1" type="line"/>
      <point x="569" y="-1" type="line"/>
      <point x="394" y="577" type="line"/>
      <point x="335" y="577" type="line"/>
    </contour>
  </outline>
</glyph>
<glyph name="Y" format="2">
  <advance width="1188"/>
  <unicode hex="0059"/>
  <anchor x="606.1238317757009" y="0.0" name="bottom"/>
  <anchor x="642.3481308411215" y="1456.0" name="top"/>
  <anchor x="50.04906542056074" y="1074.0" name="tonos"/>
  <outline>
    <contour>
      <point x="344" y="0" type="line"/>
      <point x="344" y="544" type="line"/>
      <point x="11" y="1456" type="line"/>
      <point x="578" y="1456" type="line"/>
      <point x="628" y="1028" type="line" smooth="yes"/>
      <point x="631" y="1001"/>
      <point x="637" y="948"/>
      <point x="640" y="921" type="qcurve"/>
      <point x="640" y="921" type="line"/>
      <point x="642" y="948"/>
      <point x="647" y="1003"/>
      <point x="650" y="1028" type="qcurve" smooth="yes"/>
      <point x="709" y="1456" type="line"/>
      <point x="1178" y="1456" type="line"/>
      <point x="848" y="544" type="line"/>
      <point x="848" y="0" type="line"/>
    </contour>
  </outline>
</glyph>
<glyph name="Z" format="2">
  <advance width="927"/>
  <unicode hex="005A"/>
  <anchor x="519.7453271028037" y="0.0" name="bottom"/>
  <anchor x="483.5210280373832" y="1456.0" name="top"/>
  <outline>
    <contour>
      <point x="19" y="0" type="line"/>
      <point x="19" y="363" type="line"/>
      <point x="260" y="1002" type="line"/>
      <point x="31" y="1002" type="line"/>
      <point x="31" y="1456" type="line"/>
      <point x="880" y="1456" type="line"/>
      <point x="880" y="1094" type="line"/>
      <point x="631" y="449" type="line"/>
      <point x="909" y="449" type="line"/>
      <point x="909" y="0" type="line"/>
    </contour>
  </outline>
</glyph>
<glyph name="bracketleft" format="2">
  <advance width="569.7121495327102"/>
  <unicode hex="005B"/>
  <outline>
    <contour>
      <point x="30.10000000000001" y="-310.0" type="line"/>
      <point x="30.10000000000001" y="1456.0" type="line"/>
      <point x="549.2121495327102" y="1456.0" type="line"/>
      <point x="549.2121495327102" y="999.4825870646766" type="line"/>
      <point x="499.2121495327102" y="999.4825870646766" type="line"/>
      <point x="499.2121495327102" y="146.51741293532336" type="line"/>
      <point x="549.2121495327102" y="146.51741293532336" type="line"/>
      <point x="549.2121495327102" y="-310.0" type="line"/>
    </contour>
  </outline>
</glyph>
<glyph name="backslash" format="2">
  <advance width="706.0597014925372"/>
  <unicode hex="005C"/>
  <outline>
    <contour>
      <point x="0.0" y="1456.0" type="line"/>
      <point x="554.0597014925372" y="1456.0" type="line"/>
      <point x="706.0597014925372" y="-125.0" type="line"/>
      <point x="152.0" y="-125.0" type="line"/>
    </contour>
  </outline>
</glyph>
<glyph name="asciicircum" format="2">
  <advance width="1144"/>
  <unicode hex="005E"/>
  <outline>
    <contour>
      <point x="13.0" y="720.0" type="line"/>
      <point x="364.3967661691542" y="1456" type="line"/>
      <point x="780.3967661691543" y="1456" type="line"/>
      <point x="1131.3967661691543" y="720" type="line"/>
      <point x="677" y="720" type="line"/>
      <point x="573" y="1057" type="line"/>
      <point x="478" y="720" type="line"/>
    </contour>
  </outline>
</glyph>
<glyph name="underscore" format="2">
  <advance width="714"/>
  <unicode hex="005F"/>
  <outline>
    <contour>
      <point x="0" y="-390" type="line"/>
      <point x="0" y="-30" type="line"/>
      <point x="714" y="-30" type="line"/>
      <point x="714" y="-390" type="line"/>
    </contour>
  </outline>
</glyph>
<glyph name="a" format="2">
  <advance width="1025"/>
  <unicode hex="0061"/>
  <anchor x="374.8411214953271" y="0.0" name="bottom"/>
  <anchor x="968.3644859813085" y="0.0" name="ogonek"/>
  <anchor x="484.9345794392523" y="916.0" name="top"/>
  <outline>
    <contour>
      <point x="283" y="-6" type="qcurve" smooth="yes"/>
      <point x="168" y="-6"/>
      <point x="22" y="130"/>
      <point x="22" y="276" type="qcurve" smooth="yes"/>
      <point x="22" y="410"/>
      <point x="183" y="574"/>
      <point x="442" y="574" type="qcurve" smooth="yes"/>
      <point x="590" y="574" type="line"/>
      <point x="590" y="377" type="line"/>
      <point x="511" y="377" type="line" smooth="yes"/>
      <point x="492" y="377"/>
      <point x="474" y="350"/>
      <point x="474" y="310" type="qcurve" smooth="yes"/>
      <point x="474" y="273"/>
      <point x="481" y="258"/>
      <point x="488" y="258" type="qcurve" smooth="yes"/>
      <point x="493" y="258"/>
      <point x="500" y="265"/>
      <point x="500" y="272" type="qcurve" smooth="yes"/>
      <point x="500" y="644" type="line" smooth="yes"/>
      <point x="500" y="650"/>
      <point x="494" y="655"/>
      <point x="486" y="655" type="qcurve" smooth="yes"/>
      <point x="481" y="655"/>
      <point x="470" y="651"/>
      <point x="470" y="644" type="qcurve" smooth="yes"/>
      <point x="470" y="586" type="line"/>
      <point x="48" y="586" type="line"/>
      <point x="48" y="644" type="line" smooth="yes"/>
      <point x="48" y="780"/>
      <point x="273" y="926"/>
      <point x="483" y="926" type="qcurve" smooth="yes"/>
      <point x="737" y="926"/>
      <point x="964" y="771"/>
      <point x="964" y="599" type="qcurve" smooth="yes"/>
      <point x="964" y="240" type="line" smooth="yes"/>
      <point x="964" y="175"/>
      <point x="984" y="60"/>
      <point x="1002" y="16" type="qcurve"/>
      <point x="1002" y="0" type="line"/>
      <point x="544" y="0" type="line"/>
      <point x="534" y="25"/>
      <point x="528" y="47"/>
      <point x="520" y="87" type="qcurve"/>
      <point x="501" y="49"/>
      <point x="392" y="-6"/>
    </contour>
  </outline>
</glyph>
<glyph name="b" format="2">
  <advance width="1037"/>
  <unicode hex="0062"/>
  <anchor x="606.5317757009345" y="0.0" name="bottom"/>
  <anchor x="606.5317757009345" y="1535.2897196261683" name="top"/>
  <outline>
    <contour>
      <point x="31" y="0" type="line"/>
      <point x="31" y="1456" type="line"/>
      <point x="501" y="1456" type="line"/>
      <point x="501" y="77" type="line"/>
      <point x="491" y="77" type="line"/>
      <point x="483" y="0" type="line"/>
    </contour>
    <contour>
      <point x="509" y="351" type="qcurve" smooth="yes"/>
      <point x="521" y="351"/>
      <point x="531" y="399"/>
      <point x="531" y="452" type="qcurve" smooth="yes"/>
      <point x="531" y="463" type="line" smooth="yes"/>
      <point x="531" y="517"/>
      <point x="520" y="566"/>
      <point x="507" y="566" type="qcurve" smooth="yes"/>
      <point x="492" y="566"/>
      <point x="478" y="518"/>
      <point x="478" y="465" type="qcurve" smooth="yes"/>
      <point x="478" y="456" type="line" smooth="yes"/>
      <point x="478" y="401"/>
      <point x="493" y="351"/>
    </contour>
    <contour>
      <point x="686" y="-7" type="qcurve" smooth="yes"/>
      <point x="528" y="-7"/>
      <point x="359" y="231"/>
      <point x="359" y="452" type="qcurve" smooth="yes"/>
      <point x="359" y="486" type="line" smooth="yes"/>
      <point x="359" y="697"/>
      <point x="533" y="923"/>
      <point x="695" y="923" type="qcurve" smooth="yes"/>
      <point x="850" y="923"/>
      <point x="1016" y="724"/>
      <point x="1016" y="488" type="qcurve" smooth="yes"/>
      <point x="1016" y="427" type="line" smooth="yes"/>
      <point x="1016" y="192"/>
      <point x="845" y="-7"/>
    </contour>
  </outline>
</glyph>
<glyph name="c" format="2">
  <advance width="999"/>
  <unicode hex="0063"/>
  <anchor x="519.3060747663551" y="0.0" name="bottom"/>
  <anchor x="519.3060747663551" y="916.0" name="top"/>
  <outline>
    <contour>
      <point x="20" y="427" type="qcurve" smooth="yes"/>
      <point x="20" y="487" type="line" smooth="yes"/>
      <point x="20" y="724"/>
      <point x="281" y="926"/>
      <point x="523" y="926" type="qcurve" smooth="yes"/>
      <point x="743" y="926"/>
      <point x="983" y="747"/>
      <point x="983" y="581" type="qcurve" smooth="yes"/>
      <point x="983" y="469" type="line"/>
      <point x="534" y="469" type="line"/>
      <point x="534" y="518" type="line" smooth="yes"/>
      <point x="534" y="548"/>
      <point x="527" y="566"/>
      <point x="519" y="566" type="qcurve" smooth="yes"/>
      <point x="508" y="566"/>
      <point x="504" y="529"/>
      <point x="504" y="463" type="qcurve" smooth="yes"/>
      <point x="504" y="453" type="line" smooth="yes"/>
      <point x="504" y="388"/>
      <point x="507" y="351"/>
      <point x="519" y="351" type="qcurve" smooth="yes"/>
      <point x="527" y="351"/>
      <point x="535" y="368"/>
      <point x="534" y="395" type="qcurve" smooth="yes"/>
      <point x="534" y="446" type="line"/>
      <point x="983" y="446" type="line"/>
      <point x="983" y="334" type="line" smooth="yes"/>
      <point x="983" y="168"/>
      <point x="743" y="-10"/>
      <point x="523" y="-10" type="qcurve" smooth="yes"/>
      <point x="281" y="-10"/>
      <point x="20" y="191"/>
    </contour>
  </outline>
</glyph>
<glyph name="d" format="2">
  <advance width="1037"/>
  <unicode hex="0064"/>
  <anchor x="372.6518691588785" y="0.0" name="bottom"/>
  <anchor x="572.3714953271028" y="1313.0" name="center"/>
  <anchor x="372.6518691588785" y="1536.0" name="top"/>
  <anchor x="1037.5490654205607" y="1052.0" name="topright"/>
  <outline>
    <contour>
      <point x="537" y="1456" type="line"/>
      <point x="1007" y="1456" type="line"/>
      <point x="1007" y="0" type="line"/>
      <point x="555" y="0" type="line"/>
      <point x="547" y="77" type="line"/>
      <point x="537" y="77" type="line"/>
    </contour>
    <contour>
      <point x="530" y="566" type="qcurve" smooth="yes"/>
      <point x="517" y="566"/>
      <point x="506" y="517"/>
      <point x="506" y="463" type="qcurve" smooth="yes"/>
      <point x="506" y="452" type="line" smooth="yes"/>
      <point x="506" y="399"/>
      <point x="516" y="351"/>
      <point x="528" y="351" type="qcurve" smooth="yes"/>
      <point x="544" y="351"/>
      <point x="559" y="401"/>
      <point x="559" y="456" type="qcurve" smooth="yes"/>
      <point x="559" y="465" type="line" smooth="yes"/>
      <point x="559" y="518"/>
      <point x="545" y="566"/>
    </contour>
    <contour>
      <point x="342" y="923" type="qcurve" smooth="yes"/>
      <point x="504" y="923"/>
      <point x="678" y="697"/>
      <point x="678" y="486" type="qcurve" smooth="yes"/>
      <point x="678" y="452" type="line" smooth="yes"/>
      <point x="678" y="231"/>
      <point x="509" y="-7"/>
      <point x="351" y="-7" type="qcurve" smooth="yes"/>
      <point x="192" y="-7"/>
      <point x="21" y="192"/>
      <point x="21" y="427" type="qcurve" smooth="yes"/>
      <point x="21" y="488" type="line" smooth="yes"/>
      <point x="21" y="724"/>
      <point x="187" y="923"/>
    </contour>
  </outline>
</glyph>
<glyph name="e" format="2">
  <advance width="1020"/>
  <unicode hex="0065"/>
  <anchor x="533.9322429906542" y="0.0" name="bottom"/>
  <anchor x="739.9976635514017" y="0.0" name="ogonek"/>
  <anchor x="519.7266355140187" y="916.0" name="top"/>
  <outline>
    <contour>
      <point x="20" y="427" type="qcurve" smooth="yes"/>
      <point x="20" y="487" type="line" smooth="yes"/>
      <point x="20" y="724"/>
      <point x="280" y="926"/>
      <point x="521" y="926" type="qcurve" smooth="yes"/>
      <point x="752" y="926"/>
      <point x="1000" y="699"/>
      <point x="1000" y="488" type="qcurve" smooth="yes"/>
      <point x="1000" y="411" type="line"/>
      <point x="232" y="411" type="line"/>
      <point x="232" y="517" type="line"/>
      <point x="526" y="517" type="line"/>
      <point x="526" y="559" type="line" smooth="yes"/>
      <point x="526" y="568"/>
      <point x="521" y="584"/>
      <point x="514" y="584" type="qcurve" smooth="yes"/>
      <point x="505" y="584"/>
      <point x="499" y="566"/>
      <point x="499" y="470" type="qcurve" smooth="yes"/>
      <point x="499" y="435" type="line" smooth="yes"/>
      <point x="499" y="358"/>
      <point x="512" y="340"/>
      <point x="524" y="340" type="qcurve" smooth="yes"/>
      <point x="539" y="340"/>
      <point x="554" y="368"/>
      <point x="556" y="402" type="qcurve"/>
      <point x="1000" y="375" type="line"/>
      <point x="975" y="190"/>
      <point x="743" y="-10"/>
      <point x="539" y="-10" type="qcurve" smooth="yes"/>
      <point x="289" y="-10"/>
      <point x="20" y="191"/>
    </contour>
  </outline>
</glyph>
<glyph name="f" format="2">
  <advance width="584.2032710280373"/>
  <unicode hex="0066"/>
  <anchor x="340.3060747663551" y="0.0" name="bottom"/>
  <anchor x="411.33411214953276" y="1536.0" name="top"/>
  <outline>
    <contour>
      <point x="52.25" y="0.0" type="line"/>
      <point x="52.25" y="1177.607476635514" type="line" smooth="yes"/>
      <point x="52.25" y="1392.0934579439252"/>
      <point x="216.0630841121495" y="1556.0"/>
      <point x="423.8668224299065" y="1556.0" type="qcurve" smooth="yes"/>
      <point x="487.035046728972" y="1556.0"/>
      <point x="564.0724299065421" y="1545.1588785046729"/>
      <point x="575.2032710280373" y="1538.5794392523364" type="qcurve"/>
      <point x="569.2032710280373" y="1106.8878969637792" type="line"/>
      <point x="565.2032710280373" y="1110.8878969637792"/>
      <point x="557.2032710280373" y="1118.3084577114428"/>
      <point x="547.2032710280373" y="1118.3084577114428" type="qcurve" smooth="yes"/>
      <point x="532.2032710280373" y="1118.3084577114428"/>
      <point x="525.2032710280373" y="1079.7910447761194"/>
      <point x="525.2032710280373" y="978.3084577114428" type="qcurve" smooth="yes"/>
      <point x="525.2032710280373" y="643.9900497512438" type="line"/>
      <point x="525.2032710280373" y="834.0" type="line"/>
      <point x="525.2032710280373" y="0.0" type="line"/>
    </contour>
    <contour>
      <point x="12.25" y="477.48258706467664" type="line"/>
      <point x="12.25" y="916.0" type="line"/>
      <point x="118.25" y="916.0" type="line"/>
      <point x="448.3621495327102" y="916.0" type="line"/>
      <point x="565.2032710280373" y="916.0" type="line"/>
      <point x="565.2032710280373" y="477.48258706467664" type="line"/>
    </contour>
  </outline>
</glyph>
<glyph name="g" format="2">
  <advance width="1037"/>
  <unicode hex="0067"/>
  <anchor x="459.9883177570093" y="-416.0" name="bottom"/>
  <anchor x="517.5210280373832" y="916.0" name="top"/>
  <outline>
    <contour>
      <point x="437" y="-436" type="qcurve" smooth="yes"/>
      <point x="309" y="-436"/>
      <point x="139" y="-419"/>
      <point x="109" y="-411" type="qcurve"/>
      <point x="104" y="-43" type="line"/>
      <point x="139" y="-60"/>
      <point x="274" y="-92"/>
      <point x="367" y="-92" type="qcurve" smooth="yes"/>
      <point x="448" y="-92"/>
      <point x="537" y="-23"/>
      <point x="537" y="41" type="qcurve" smooth="yes"/>
      <point x="537" y="779" type="line"/>
      <point x="539" y="779" type="line"/>
      <point x="541" y="916" type="line"/>
      <point x="1007" y="916" type="line"/>
      <point x="1007" y="10" type="line" smooth="yes"/>
      <point x="1007" y="-205"/>
      <point x="712" y="-436"/>
    </contour>
    <contour>
      <point x="528" y="351" type="qcurve" smooth="yes"/>
      <point x="544" y="351"/>
      <point x="559" y="401"/>
      <point x="559" y="456" type="qcurve" smooth="yes"/>
      <point x="559" y="465" type="line" smooth="yes"/>
      <point x="559" y="518"/>
      <point x="545" y="566"/>
      <point x="530" y="566" type="qcurve" smooth="yes"/>
      <point x="517" y="566"/>
      <point x="506" y="517"/>
      <point x="506" y="463" type="qcurve" smooth="yes"/>
      <point x="506" y="452" type="line" smooth="yes"/>
      <point x="506" y="399"/>
      <point x="516" y="351"/>
    </contour>
    <contour>
      <point x="351" y="-7" type="qcurve" smooth="yes"/>
      <point x="192" y="-7"/>
      <point x="21" y="192"/>
      <point x="21" y="427" type="qcurve" smooth="yes"/>
      <point x="21" y="488" type="line" smooth="yes"/>
      <point x="21" y="724"/>
      <point x="187" y="923"/>
      <point x="342" y="923" type="qcurve" smooth="yes"/>
      <point x="504" y="923"/>
      <point x="678" y="697"/>
      <point x="678" y="486" type="qcurve" smooth="yes"/>
      <point x="678" y="452" type="line" smooth="yes"/>
      <point x="678" y="231"/>
      <point x="509" y="-7"/>
    </contour>
  </outline>
</glyph>
<glyph name="h" format="2">
  <advance width="1030"/>
  <unicode hex="0068"/>
  <anchor x="512.9710280373832" y="0.0" name="bottom"/>
  <anchor x="284.7560747663551" y="1327.0" name="center"/>
  <anchor x="248.8682242990654" y="1536.0" name="top"/>
  <anchor x="765.8682242990656" y="0.0" name="engtail"/>
  <outline>
    <contour>
      <point x="501" y="0" type="line"/>
      <point x="31" y="0" type="line"/>
      <point x="31" y="1456" type="line"/>
      <point x="501" y="1456" type="line"/>
    </contour>
    <contour>
      <point x="280" y="402" type="line"/>
      <point x="423" y="773"/>
      <point x="599" y="923"/>
      <point x="717" y="923" type="qcurve" smooth="yes"/>
      <point x="842" y="923"/>
      <point x="1001" y="818"/>
      <point x="1001" y="690" type="qcurve" smooth="yes"/>
      <point x="1001" y="0" type="line"/>
      <point x="531" y="0" type="line"/>
      <point x="531" y="553" type="line" smooth="yes"/>
      <point x="531" y="567"/>
      <point x="525" y="576"/>
      <point x="520" y="576" type="qcurve" smooth="yes"/>
      <point x="499" y="576"/>
      <point x="416" y="445"/>
      <point x="280" y="131" type="qcurve"/>
    </contour>
  </outline>
</glyph>
<glyph name="k" format="2">
  <advance width="1071"/>
  <unicode hex="006B"/>
  <anchor x="516.8121495327102" y="0.0" name="bottom"/>
  <anchor x="516.8121495327102" y="1536.0" name="top"/>
  <outline>
    <contour>
      <point x="31" y="0" type="line"/>
      <point x="31" y="1456" type="line"/>
      <point x="501" y="1456" type="line"/>
      <point x="501" y="0" type="line"/>
    </contour>
    <contour>
      <point x="556" y="0" type="line"/>
      <point x="437" y="442" type="line"/>
      <point x="732" y="785" type="line"/>
      <point x="1065" y="0" type="line"/>
    </contour>
    <contour>
      <point x="253" y="18" type="line"/>
      <point x="253" y="502" type="line"/>
      <point x="581" y="916" type="line"/>
      <point x="1055" y="916" type="line"/>
    </contour>
  </outline>
</glyph>
<glyph name="l" format="2">
  <advance width="534"/>
  <unicode hex="006C"/>
  <anchor x="269.7971962616822" y="0.0" name="bottom"/>
  <anchor x="269.7971962616822" y="791.0" name="center"/>
  <anchor x="269.7971962616822" y="1536.0" name="top"/>
  <anchor x="538.4046728971963" y="1052.0" name="topright"/>
  <anchor x="266.2457943925233" y="471.96" name="yu_dash"/>
  <outline>
    <contour>
      <point x="32" y="0" type="line"/>
      <point x="32" y="1456" type="line"/>
      <point x="503" y="1456" type="line"/>
      <point x="503" y="0" type="line"/>
    </contour>
  </outline>
</glyph>
<glyph name="m" format="2">
  <advance width="1530"/>
  <unicode hex="006D"/>
  <anchor x="778.9429906542057" y="0.0" name="bottom"/>
  <anchor x="778.9429906542057" y="916.0" name="top"/>
  <outline>
    <contour>
      <point x="30.700000000000003" y="0.0" type="line"/>
      <point x="30.700000000000003" y="916.0" type="line"/>
      <point x="482.8121495327102" y="916.0" type="line"/>
      <point x="500.8121495327102" y="821.0" type="line"/>
      <point x="500.8121495327102" y="0.0" type="line"/>
    </contour>
    <contour>
      <point x="1001" y="690" type="qcurve" smooth="yes"/>
      <point x="1001" y="0" type="line"/>
      <point x="531" y="0" type="line"/>
      <point x="531" y="553" type="line" smooth="yes"/>
      <point x="531" y="567"/>
      <point x="525" y="576"/>
      <point x="520" y="576" type="qcurve" smooth="yes"/>
      <point x="499" y="576"/>
      <point x="416" y="445"/>
      <point x="280" y="131" type="qcurve"/>
      <point x="280" y="402" type="line"/>
      <point x="423" y="773"/>
      <point x="599" y="923"/>
      <point x="717" y="923" type="qcurve" smooth="yes"/>
      <point x="842" y="923"/>
      <point x="1001" y="818"/>
    </contour>
    <contour>
      <point x="780" y="402" type="line"/>
      <point x="923" y="773"/>
      <point x="1099" y="923"/>
      <point x="1217" y="923" type="qcurve" smooth="yes"/>
      <point x="1342" y="923"/>
      <point x="1501" y="818"/>
      <point x="1501" y="690" type="qcurve" smooth="yes"/>
      <point x="1501" y="0" type="line"/>
      <point x="1031" y="0" type="line"/>
      <point x="1031" y="553" type="line" smooth="yes"/>
      <point x="1031" y="567"/>
      <point x="1025" y="576"/>
      <point x="1020" y="576" type="qcurve" smooth="yes"/>
      <point x="999" y="576"/>
      <point x="916" y="445"/>
      <point x="780" y="131" type="qcurve"/>
    </contour>
  </outline>
</glyph>
<glyph name="o" format="2">
  <advance width="1041"/>
  <unicode hex="006F"/>
  <anchor x="518.6260974228264" y="0.0" name="bottom"/>
  <anchor x="519.3363777966581" y="458.0" name="center"/>
  <anchor x="706.8036675162843" y="20.0" name="ogonek"/>
  <anchor x="519.3363777966581" y="916.0" name="top"/>
  <anchor x="704.9625460209572" y="916.0" name="topright"/>
  <anchor x="280.3647890116115" y="470.03999999999996" name="yu_dash"/>
  <outline>
    <contour>
      <point x="23" y="427" type="qcurve" smooth="yes"/>
      <point x="23" y="487" type="line" smooth="yes"/>
      <point x="23" y="724"/>
      <point x="280.030303030303" y="926"/>
      <point x="521.030303030303" y="926" type="qcurve" smooth="yes"/>
      <point x="761.030303030303" y="926"/>
      <point x="1020" y="724"/>
      <point x="1020" y="487" type="qcurve" smooth="yes"/>
      <point x="1020" y="427" type="line" smooth="yes"/>
      <point x="1020" y="191"/>
      <point x="761.030303030303" y="-10"/>
      <point x="521.030303030303" y="-10" type="qcurve" smooth="yes"/>
      <point x="280.030303030303" y="-10"/>
      <point x="23" y="191"/>
    </contour>
    <contour>
      <point x="506.030303030303" y="463" type="qcurve" smooth="yes"/>
      <point x="506.030303030303" y="453" type="line" smooth="yes"/>
      <point x="505.030303030303" y="363"/>
      <point x="513.030303030303" y="351"/>
      <point x="520.030303030303" y="351" type="qcurve" smooth="yes"/>
      <point x="527.030303030303" y="351"/>
      <point x="535.030303030303" y="363"/>
      <point x="536.030303030303" y="453" type="qcurve" smooth="yes"/>
      <point x="536.030303030303" y="463" type="line" smooth="yes"/>
      <point x="535.030303030303" y="549"/>
      <point x="527.030303030303" y="566"/>
      <point x="520.030303030303" y="566" type="qcurve" smooth="yes"/>
      <point x="513.030303030303" y="566"/>
      <point x="505.030303030303" y="549"/>
    </contour>
  </outline>
</glyph>
<glyph name="p" format="2">
  <advance width="1037"/>
  <unicode hex="0070"/>
  <anchor x="629.6906542056074" y="0.0" name="bottom"/>
  <anchor x="630.4009345794393" y="916.0" name="top"/>
  <outline>
    <contour>
      <point x="31" y="-416" type="line"/>
      <point x="31" y="916" type="line"/>
      <point x="483" y="916" type="line"/>
      <point x="491" y="839" type="line"/>
      <point x="501" y="839" type="line"/>
      <point x="501" y="-416" type="line"/>
    </contour>
    <contour>
      <point x="509" y="351" type="qcurve" smooth="yes"/>
      <point x="521" y="351"/>
      <point x="531" y="399"/>
      <point x="531" y="452" type="qcurve" smooth="yes"/>
      <point x="531" y="463" type="line" smooth="yes"/>
      <point x="531" y="517"/>
      <point x="520" y="566"/>
      <point x="507" y="566" type="qcurve" smooth="yes"/>
      <point x="492" y="566"/>
      <point x="478" y="518"/>
      <point x="478" y="465" type="qcurve" smooth="yes"/>
      <point x="478" y="456" type="line" smooth="yes"/>
      <point x="478" y="401"/>
      <point x="493" y="351"/>
    </contour>
    <contour>
      <point x="686" y="-7" type="qcurve" smooth="yes"/>
      <point x="528" y="-7"/>
      <point x="359" y="231"/>
      <point x="359" y="452" type="qcurve" smooth="yes"/>
      <point x="359" y="486" type="line" smooth="yes"/>
      <point x="359" y="697"/>
      <point x="533" y="923"/>
      <point x="695" y="923" type="qcurve" smooth="yes"/>
      <point x="850" y="923"/>
      <point x="1016" y="724"/>
      <point x="1016" y="488" type="qcurve" smooth="yes"/>
      <point x="1016" y="427" type="line" smooth="yes"/>
      <point x="1016" y="192"/>
      <point x="845" y="-7"/>
    </contour>
  </outline>
</glyph>
<glyph name="q" format="2">
  <advance width="1036.8285046728972"/>
  <unicode hex="0071"/>
  <anchor x="369.0724299065421" y="0.0" name="bottom"/>
  <anchor x="369.0724299065421" y="916.0" name="top"/>
  <outline>
    <contour>
      <point x="536.016355140187" y="-416.0" type="line"/>
      <point x="536.016355140187" y="839.0" type="line"/>
      <point x="546.016355140187" y="839.0" type="line"/>
      <point x="554.016355140187" y="916.0" type="line"/>
      <point x="1006.1285046728972" y="916.0" type="line"/>
      <point x="1006.1285046728972" y="-416.0" type="line"/>
    </contour>
    <contour>
      <point x="527.3060747663551" y="412.94029850746267" type="qcurve" smooth="yes"/>
      <point x="549.8796071046635" y="412.94029850746267"/>
      <point x="578.3060747663551" y="271.4630845771144"/>
      <point x="578.3060747663551" y="469.30845771144277" type="qcurve" smooth="yes"/>
      <point x="578.3060747663551" y="478.77611940298505" type="line" smooth="yes"/>
      <point x="578.3060747663551" y="597.2091542288557"/>
      <point x="565.6925424280466" y="503.0597014925374"/>
      <point x="529.3060747663551" y="503.0597014925374" type="qcurve" smooth="yes"/>
      <point x="521.1460747663551" y="503.0597014925374"/>
      <point x="505.3060747663551" y="648.1317412935324"/>
      <point x="505.3060747663551" y="462.139303482587" type="qcurve" smooth="yes"/>
      <point x="505.3060747663551" y="451.636815920398" type="line" smooth="yes"/>
      <point x="505.3060747663551" y="281.86825870646766"/>
      <point x="519.1460747663551" y="412.94029850746267"/>
    </contour>
    <contour>
      <point x="351.6892523364486" y="-6.666666666666668" type="qcurve" smooth="yes"/>
      <point x="180.77785046728968" y="-6.666666666666668"/>
      <point x="21.25" y="90.56"/>
      <point x="21.25" y="242.0" type="qcurve" smooth="yes"/>
      <point x="21.25" y="674.0" type="line" smooth="yes"/>
      <point x="21.25" y="825.44"/>
      <point x="180.77785046728968" y="922.6666666666666"/>
      <point x="350.6892523364486" y="922.6666666666666" type="qcurve" smooth="yes"/>
      <point x="516.3909345794393" y="922.6666666666666"/>
      <point x="694.3154205607477" y="665.72"/>
      <point x="694.3154205607477" y="486.0" type="qcurve" smooth="yes"/>
      <point x="694.3154205607477" y="452.0" type="line" smooth="yes"/>
      <point x="694.3154205607477" y="222.84"/>
      <point x="513.3606542056075" y="-6.666666666666668"/>
    </contour>
  </outline>
</glyph>
<glyph name="r" format="2">
  <advance width="593"/>
  <unicode hex="0072"/>
  <anchor x="321.79345794392515" y="0.0" name="bottom"/>
  <anchor x="312.8682242990654" y="916.0" name="top"/>
  <outline>
    <contour>
      <point x="31" y="0" type="line"/>
      <point x="31" y="916" type="line"/>
      <point x="483" y="916" type="line"/>
      <point x="501" y="714" type="line"/>
      <point x="501" y="0" type="line"/>
    </contour>
    <contour>
      <point x="266" y="173" type="qcurve"/>
      <point x="266" y="404" type="line"/>
      <point x="440" y="806"/>
      <point x="512" y="926"/>
      <point x="554" y="926" type="qcurve" smooth="yes"/>
      <point x="564" y="926"/>
      <point x="578" y="916"/>
      <point x="580" y="912" type="qcurve"/>
      <point x="580" y="522" type="line"/>
      <point x="575" y="526"/>
      <point x="558" y="530"/>
      <point x="552" y="530" type="qcurve" smooth="yes"/>
      <point x="507" y="530"/>
      <point x="386" y="409"/>
    </contour>
  </outline>
</glyph>
<glyph name="s" format="2">
  <advance width="960"/>
  <unicode hex="0073"/>
  <anchor x="506.03271028037375" y="0.0" name="bottom"/>
  <anchor x="506.03271028037375" y="916.0" name="top"/>
  <outline>
    <contour>
      <point x="42" y="297" type="line"/>
      <point x="418" y="297" type="line"/>
      <point x="418" y="268" type="line" smooth="yes"/>
      <point x="418" y="258"/>
      <point x="431" y="247"/>
      <point x="443" y="247" type="qcurve" smooth="yes"/>
      <point x="454" y="247"/>
      <point x="465" y="257"/>
      <point x="465" y="266" type="qcurve" smooth="yes"/>
      <point x="465" y="278"/>
      <point x="433" y="300"/>
      <point x="403" y="308" type="qcurve" smooth="yes"/>
      <point x="235" y="351"/>
      <point x="55" y="521"/>
      <point x="55" y="636" type="qcurve" smooth="yes"/>
      <point x="55" y="776"/>
      <point x="265" y="926"/>
      <point x="460" y="926" type="qcurve" smooth="yes"/>
      <point x="668" y="926"/>
      <point x="891" y="786"/>
      <point x="891" y="655" type="qcurve" smooth="yes"/>
      <point x="891" y="621" type="line"/>
      <point x="500" y="621" type="line"/>
      <point x="500" y="632" type="line" smooth="yes"/>
      <point x="500" y="642"/>
      <point x="492" y="652"/>
      <point x="485" y="652" type="qcurve" smooth="yes"/>
      <point x="478" y="652"/>
      <point x="470" y="643"/>
      <point x="470" y="635" type="qcurve" smooth="yes"/>
      <point x="470" y="626"/>
      <point x="555" y="600"/>
      <point x="635" y="584" type="qcurve" smooth="yes"/>
      <point x="770" y="557"/>
      <point x="916" y="409"/>
      <point x="916" y="300" type="qcurve" smooth="yes"/>
      <point x="916" y="151"/>
      <point x="689" y="-10"/>
      <point x="477" y="-10" type="qcurve" smooth="yes"/>
      <point x="267" y="-10"/>
      <point x="42" y="135"/>
      <point x="42" y="269" type="qcurve" smooth="yes"/>
    </contour>
  </outline>
</glyph>
<glyph name="t" format="2">
  <advance width="603.6121495327102"/>
  <unicode hex="0074"/>
  <anchor x="381.86448598130846" y="0.0" name="bottom"/>
  <anchor x="279.74299065420564" y="551.0" name="center"/>
  <anchor x="279.74299065420564" y="1176.0" name="top"/>
  <anchor x="617.6121495327102" y="916.0" name="topright"/>
  <outline>
    <contour>
      <point x="8.5" y="477.48258706467664" type="line"/>
      <point x="8.5" y="916.0" type="line"/>
      <point x="587.6121495327102" y="916.0" type="line"/>
      <point x="587.6121495327102" y="477.48258706467664" type="line"/>
    </contour>
    <contour>
      <point x="48.5" y="402.0560747663551" type="qcurve" smooth="yes"/>
      <point x="48.5" y="830.0" type="line"/>
      <point x="48.5" y="860.0" type="line"/>
      <point x="48.5" y="1176.0" type="line"/>
      <point x="518.6121495327102" y="1176.0" type="line"/>
      <point x="518.6121495327102" y="504.6268656716418" type="line" smooth="yes"/>
      <point x="518.6121495327102" y="434.6268656716418"/>
      <point x="526.6121495327102" y="394.6268656716418"/>
      <point x="538.6121495327102" y="394.6268656716418" type="qcurve" smooth="yes"/>
      <point x="549.6121495327102" y="394.6268656716418"/>
      <point x="567.6121495327102" y="406.6268656716418"/>
      <point x="578.6121495327102" y="416.6268656716418" type="qcurve"/>
      <point x="578.6121495327102" y="20.0" type="line"/>
      <point x="575.6121495327102" y="8.0"/>
      <point x="456.48130841121497" y="-10.0"/>
      <point x="364.5560747663551" y="-10.0" type="qcurve" smooth="yes"/>
      <point x="193.52803738317755" y="-10.0"/>
      <point x="48.5" y="188.13084112149534"/>
    </contour>
  </outline>
</glyph>
<glyph name="u" format="2">
  <advance width="1030"/>
  <unicode hex="0075"/>
  <anchor x="507.2093457943925" y="0.0" name="bottom"/>
  <anchor x="987.2934579439252" y="0.0" name="ogonek"/>
  <anchor x="507.2093457943925" y="916.0" name="top"/>
  <anchor x="769.0504672897198" y="916.0" name="topright"/>
  <anchor x="913.0317757009345" y="0.0" name="cy_descender"/>
  <outline>
    <contour>
      <point x="313" y="-7" type="qcurve" smooth="yes"/>
      <point x="188" y="-7"/>
      <point x="29" y="98"/>
      <point x="29" y="226" type="qcurve" smooth="yes"/>
      <point x="29" y="916" type="line"/>
      <point x="499" y="916" type="line"/>
      <point x="499" y="363" type="line" smooth="yes"/>
      <point x="499" y="349"/>
      <point x="505" y="340"/>
      <point x="510" y="340" type="qcurve" smooth="yes"/>
      <point x="531" y="340"/>
      <point x="614" y="471"/>
      <point x="750" y="785" type="qcurve"/>
      <point x="750" y="514" type="line"/>
      <point x="607" y="143"/>
      <point x="431" y="-7"/>
    </contour>
    <contour>
      <point x="547" y="0" type="line"/>
      <point x="529" y="95" type="line"/>
      <point x="529" y="916" type="line"/>
      <point x="999" y="916" type="line"/>
      <point x="999" y="0" type="line"/>
    </contour>
  </outline>
</glyph>
<glyph name="v" format="2">
  <advance width="1077"/>
  <unicode hex="0076"/>
  <anchor x="588.1915887850466" y="0.0" name="bottom"/>
  <anchor x="587.481308411215" y="916.0" name="top"/>
  <outline>
    <contour>
      <point x="9" y="916" type="line"/>
      <point x="545" y="914" type="line"/>
      <point x="580" y="518" type="line" smooth="yes"/>
      <point x="580" y="518"/>
      <point x="580" y="518"/>
      <point x="580" y="518" type="qcurve"/>
      <point x="580" y="518" type="line"/>
      <point x="580" y="518"/>
      <point x="580" y="518"/>
      <point x="580" y="518" type="qcurve" smooth="yes"/>
      <point x="613" y="916" type="line"/>
      <point x="1069" y="916" type="line"/>
      <point x="779" y="0" type="line"/>
      <point x="303" y="0" type="line"/>
    </contour>
  </outline>
</glyph>
<glyph name="w" format="2">
  <advance width="1480"/>
  <unicode hex="0077"/>
  <anchor x="757.2593457943926" y="0.0" name="bottom"/>
  <anchor x="760.2593457943926" y="916.0" name="top"/>
  <outline>
    <contour>
      <point x="10" y="916" type="line"/>
      <point x="501" y="916" type="line"/>
      <point x="538" y="484" type="line" smooth="yes"/>
      <point x="538" y="484"/>
      <point x="538" y="484"/>
      <point x="538" y="484" type="qcurve"/>
      <point x="538" y="484" type="line"/>
      <point x="538" y="484"/>
      <point x="538" y="484"/>
      <point x="538" y="484" type="qcurve" smooth="yes"/>
      <point x="561" y="916" type="line"/>
      <point x="1012" y="916" type="line"/>
      <point x="1033" y="484" type="line" smooth="yes"/>
      <point x="1033" y="484"/>
      <point x="1033" y="484"/>
      <point x="1033" y="484" type="qcurve"/>
      <point x="1033" y="484" type="line"/>
      <point x="1033" y="484"/>
      <point x="1033" y="484"/>
      <point x="1033" y="484" type="qcurve" smooth="yes"/>
      <point x="1071" y="916" type="line"/>
      <point x="1470" y="916" type="line"/>
      <point x="1258" y="0" type="line"/>
      <point x="763" y="0" type="line"/>
      <point x="737" y="379" type="line" smooth="yes"/>
      <point x="737" y="379"/>
      <point x="737" y="379"/>
      <point x="737" y="379" type="qcurve"/>
      <point x="737" y="379" type="line"/>
      <point x="737" y="379"/>
      <point x="737" y="379"/>
      <point x="737" y="379" type="qcurve" smooth="yes"/>
      <point x="717" y="0" type="line"/>
      <point x="220" y="0" type="line"/>
    </contour>
  </outline>
</glyph>
<glyph name="x" format="2">
  <advance width="1149"/>
  <unicode hex="0078"/>
  <anchor x="567.6495327102804" y="0.0" name="bottom"/>
  <anchor x="568.3598130841121" y="916.0" name="top"/>
  <anchor x="740.7056074766356" y="0.0" name="cy_descender"/>
  <outline>
    <contour>
      <point x="10" y="0" type="line"/>
      <point x="347" y="557" type="line"/>
      <point x="470" y="557" type="line"/>
      <point x="692" y="916" type="line"/>
      <point x="1123" y="916" type="line"/>
      <point x="785" y="380" type="line"/>
      <point x="678" y="380" type="line"/>
      <point x="464" y="0" type="line"/>
    </contour>
    <contour>
      <point x="28" y="916" type="line"/>
      <point x="617" y="916" type="line"/>
      <point x="794" y="583" type="line"/>
      <point x="795" y="583" type="line"/>
      <point x="1139" y="0" type="line"/>
      <point x="544" y="0" type="line"/>
      <point x="381" y="340" type="line"/>
      <point x="373" y="340" type="line"/>
    </contour>
  </outline>
</glyph>
<glyph name="y" format="2">
  <advance width="1098.3691588785045"/>
  <unicode hex="0079"/>
  <anchor x="1055.504672897196" y="0.0" name="bottom"/>
  <anchor x="588.4766355140187" y="916.0" name="top"/>
  <outline>
    <contour>
      <point x="155.60747663551402" y="-403.9252336448598" type="qcurve"/>
      <point x="155.60747663551402" y="-79.00934579439254" type="line"/>
      <point x="173.1308411214953" y="-88.42990654205607"/>
      <point x="257.9252336448598" y="-109.08411214953273"/>
      <point x="316.22429906542055" y="-109.08411214953273" type="qcurve" smooth="yes"/>
      <point x="342.6448598130841" y="-109.08411214953273"/>
      <point x="381.4859813084113" y="-61.61682242990655"/>
      <point x="366.97196261682245" y="4.0" type="qcurve"/>
      <point x="337.85046728971963" y="3.2897196261682247" type="line"/>
      <point x="21.0" y="916.0" type="line"/>
      <point x="547.6168224299065" y="916.0" type="line"/>
      <point x="582.8971962616822" y="506.81869158878504" type="line" smooth="yes"/>
      <point x="587.327476635514" y="480.25345794392524"/>
      <point x="587.0280373831775" y="396.81869158878504"/>
      <point x="584.8971962616822" y="366.81869158878504" type="qcurve"/>
      <point x="591.8971962616822" y="366.81869158878504" type="line"/>
      <point x="589.0560747663551" y="396.81869158878504"/>
      <point x="590.8571962616822" y="480.963738317757"/>
      <point x="593.8971962616822" y="506.81869158878504" type="qcurve" smooth="yes"/>
      <point x="629.0467289719627" y="916.0" type="line"/>
      <point x="1089.8691588785045" y="916.0" type="line"/>
      <point x="783.532710280374" y="-76.07476635514018" type="line" smooth="yes"/>
      <point x="724.4781308411215" y="-233.9528971962617"/>
      <point x="540.233644859813" y="-436.0"/>
      <point x="342.803738317757" y="-436.0" type="qcurve" smooth="yes"/>
      <point x="283.8411214953271" y="-436.0"/>
      <point x="169.60747663551402" y="-413.9252336448598"/>
    </contour>
  </outline>
</glyph>
<glyph name="z" format="2">
  <advance width="901"/>
  <unicode hex="007A"/>
  <anchor x="493.7102803738318" y="0.0" name="bottom"/>
  <anchor x="493.7102803738318" y="916.0" name="top"/>
  <outline>
    <contour>
      <point x="25" y="0" type="line"/>
      <point x="25" y="349" type="line"/>
      <point x="241" y="549" type="line"/>
      <point x="43" y="549" type="line"/>
      <point x="43" y="916" type="line"/>
      <point x="858" y="916" type="line"/>
      <point x="858" y="567" type="line"/>
      <point x="698" y="398" type="line"/>
      <point x="876" y="398" type="line"/>
      <point x="876" y="0" type="line"/>
    </contour>
  </outline>
</glyph>
<glyph name="bar" format="2">
  <advance width="666"/>
  <unicode hex="007C"/>
  <outline>
    <contour>
      <point x="80.0" y="-416.0" type="line"/>
      <point x="80.0" y="1536.0" type="line"/>
      <point x="585.5820895522388" y="1536.0" type="line"/>
      <point x="585.5820895522388" y="-416.0" type="line"/>
    </contour>
  </outline>
</glyph>
<glyph name="asciitilde" format="2">
  <advance width="553.65"/>
  <unicode hex="007E"/>
  <outline>
    <contour>
      <point x="-230.8594527363184" y="309.6119402985075" type="qcurve"/>
      <point x="-230.8594527363184" y="904.4975124378109" type="line"/>
      <point x="-179.65547263681592" y="955.4975124378109"/>
      <point x="-35.973880597014926" y="1012.4975124378109"/>
      <point x="35.86691542288558" y="1013.4975124378109" type="qcurve" smooth="yes"/>
      <point x="121.37935323383086" y="1014.4975124378109"/>
      <point x="248.3047263681592" y="978.4975124378109"/>
      <point x="310.66293532338307" y="940.4975124378109" type="qcurve" smooth="yes"/>
      <point x="364.797263681592" y="910.4975124378109"/>
      <point x="447.01616915422886" y="871.4975124378109"/>
      <point x="528.3047263681592" y="871.4975124378109" type="qcurve" smooth="yes"/>
      <point x="599.1455223880597" y="871.4975124378109"/>
      <point x="735.1206467661691" y="939.4975124378109"/>
      <point x="787.3246268656717" y="999.4975124378109" type="qcurve"/>
      <point x="787.3246268656717" y="403.6119402985075" type="line"/>
      <point x="735.1206467661691" y="352.6119402985075"/>
      <point x="600.1455223880597" y="294.6119402985075"/>
      <point x="529.0460199004975" y="294.6119402985075" type="qcurve" smooth="yes"/>
      <point x="448.7574626865672" y="294.6119402985075"/>
      <point x="335.53855721393035" y="323.6119402985075"/>
      <point x="271.4042288557214" y="363.6119402985075" type="qcurve" smooth="yes"/>
      <point x="208.04601990049753" y="399.6119402985075"/>
      <point x="121.37935323383086" y="436.6119402985075"/>
      <point x="35.86691542288558" y="436.6119402985075" type="qcurve" smooth="yes"/>
      <point x="-35.973880597014926" y="436.6119402985075"/>
      <point x="-179.65547263681592" y="369.6119402985075"/>
    </contour>
  </outline>
</glyph>
<glyph name="currency" format="2">
  <advance width="698.6560747663551"/>
  <unicode hex="00A4"/>
  <guideline y="901.0" identifier="bRYxxRaQQf"/>
  <guideline y="555.0" identifier="917FhrihjR"/>
  <outline>
    <contour>
      <point x="330.32803738317756" y="712.0" type="qcurve"/>
      <point x="330.32803738317756" y="518.0"/>
      <point x="336.32803738317756" y="373.0"/>
      <point x="344.32803738317756" y="373.0" type="qcurve" smooth="yes"/>
      <point x="353.32803738317756" y="373.0"/>
      <point x="360.32803738317756" y="518.0"/>
      <point x="360.32803738317756" y="712.0" type="qcurve" smooth="yes"/>
      <point x="360.32803738317756" y="905.0"/>
      <point x="353.32803738317756" y="1049.0"/>
      <point x="344.32803738317756" y="1049.0" type="qcurve" smooth="yes"/>
      <point x="336.32803738317756" y="1049.0"/>
      <point x="330.32803738317756" y="905.0"/>
    </contour>
    <contour>
      <point x="64.22523364485981" y="718.0" type="qcurve"/>
      <point x="64.22523364485981" y="1044.2242990654206"/>
      <point x="197.94485981308412" y="1309.5233644859813"/>
      <point x="343.32803738317756" y="1309.5233644859813" type="qcurve" smooth="yes"/>
      <point x="491.71121495327105" y="1309.5233644859813"/>
      <point x="626.4308411214952" y="1044.2242990654206"/>
      <point x="626.4308411214952" y="718.0" type="qcurve" smooth="yes"/>
      <point x="626.4308411214952" y="390.4859813084112"/>
      <point x="491.71121495327105" y="124.4766355140187"/>
      <point x="343.32803738317756" y="124.4766355140187" type="qcurve" smooth="yes"/>
      <point x="197.94485981308412" y="124.4766355140187"/>
      <point x="64.22523364485981" y="390.4859813084112"/>
    </contour>
    <contour>
      <point x="661.356074766355" y="1247.0280373831777" type="line"/>
      <point x="481.6364485981308" y="1064.3084112149531" type="line"/>
      <point x="359.6364485981308" y="1191.3084112149534" type="line"/>
      <point x="539.356074766355" y="1374.0280373831777" type="line"/>
    </contour>
    <contour>
      <point x="325.0196261682243" y="273.69158878504675" type="line"/>
      <point x="131.3" y="76.97196261682244" type="line"/>
      <point x="10.3" y="202.97196261682245" type="line"/>
      <point x="204.0196261682243" y="398.69158878504675" type="line"/>
    </contour>
    <contour>
      <point x="565.356074766355" y="83.97196261682244" type="line"/>
      <point x="378.6364485981308" y="273.69158878504675" type="line"/>
      <point x="501.6364485981308" y="399.69158878504675" type="line"/>
      <point x="688.356074766355" y="210.97196261682245" type="line"/>
    </contour>
    <contour>
      <point x="219.0196261682243" y="1066.3084112149531" type="line"/>
      <point x="27.3" y="1261.0280373831777" type="line"/>
      <point x="148.3" y="1387.0280373831777" type="line"/>
      <point x="340.0196261682243" y="1192.3084112149534" type="line"/>
    </contour>
  </outline>
</glyph>
<glyph name="yen" format="2">
  <advance width="730.6121495327102"/>
  <unicode hex="00A5"/>
  <outline>
    <contour>
      <point x="81.25" y="154.74129353233832" type="line"/>
      <point x="81.25" y="462.0" type="line"/>
      <point x="657.3621495327102" y="462.0" type="line"/>
      <point x="657.3621495327102" y="154.74129353233832" type="line"/>
    </contour>
    <contour>
      <point x="81.25" y="509.39303482587064" type="line"/>
      <point x="81.25" y="816.9104477611941" type="line"/>
      <point x="390.536278885944" y="816.9104477611941" type="line"/>
      <point x="458.3621495327102" y="669.0" type="line"/>
      <point x="567.3621495327102" y="669.0" type="line"/>
      <point x="630.1880201794763" y="816.9104477611941" type="line"/>
      <point x="657.3621495327102" y="816.9104477611941" type="line"/>
      <point x="657.3621495327102" y="509.39303482587064" type="line"/>
    </contour>
    <contour>
      <point x="132.25" y="0.0" type="line"/>
      <point x="132.25" y="548.0" type="line"/>
      <point x="3.25" y="1456.0" type="line"/>
      <point x="531.1658878504672" y="1456.0" type="line"/>
      <point x="409.4742990654206" y="1137.3738317757009" type="line" smooth="yes"/>
      <point x="409.4742990654206" y="1104.3738317757009"/>
      <point x="410.4742990654206" y="1004.3738317757009"/>
      <point x="411.4742990654206" y="967.3738317757009" type="qcurve"/>
      <point x="417.4742990654206" y="967.3738317757009" type="line"/>
      <point x="418.4742990654206" y="1023.3738317757009"/>
      <point x="419.4742990654206" y="1104.3738317757009"/>
      <point x="420.4742990654206" y="1137.3738317757009" type="qcurve" smooth="yes"/>
      <point x="297.6518691588785" y="1456.0" type="line"/>
      <point x="727.3621495327102" y="1456.0" type="line"/>
      <point x="600.3621495327102" y="548.0" type="line"/>
      <point x="600.3621495327102" y="0.0" type="line"/>
    </contour>
  </outline>
</glyph>
<glyph name="logicalnot" format="2">
  <advance width="652.1560747663551"/>
  <unicode hex="00AC"/>
  <outline>
    <contour>
      <point x="629.2560747663551" y="801.0" type="line"/>
      <point x="629.2560747663551" y="233.94392523364488" type="line"/>
      <point x="167.1439252336449" y="233.94392523364488" type="line"/>
      <point x="167.1439252336449" y="637.0" type="line"/>
      <point x="17.200000000000003" y="637.0" type="line"/>
      <point x="17.200000000000003" y="801.0" type="line"/>
    </contour>
  </outline>
</glyph>
<glyph name="micro" format="2">
  <advance width="1280.5242990654203"/>
  <unicode hex="00B5"/>
  <outline>
    <contour>
      <point x="286.2" y="1052.0" type="line"/>
      <point x="756.3121495327102" y="1052.0" type="line"/>
      <point x="624.3121495327102" y="371.0" type="line" smooth="yes"/>
      <point x="599.3121495327102" y="245.0"/>
      <point x="584.3121495327102" y="136.0"/>
      <point x="591.3121495327102" y="136.0" type="qcurve" smooth="yes"/>
      <point x="602.3121495327102" y="136.0"/>
      <point x="627.3121495327102" y="232.0"/>
      <point x="642.3121495327102" y="308.0" type="qcurve"/>
      <point x="786.3121495327102" y="1052.0" type="line"/>
      <point x="1256.4242990654204" y="1052.0" type="line"/>
      <point x="1052.4242990654204" y="0.0" type="line"/>
      <point x="600.3121495327102" y="0.0" type="line"/>
      <point x="618.3121495327102" y="135.0" type="line"/>
      <point x="612.3121495327102" y="135.0" type="line"/>
      <point x="596.3121495327102" y="63.0"/>
      <point x="567.3121495327102" y="-20.0"/>
      <point x="563.3121495327102" y="-20.0" type="qcurve" smooth="yes"/>
      <point x="560.3121495327102" y="-20.0"/>
      <point x="556.3121495327102" y="15.0"/>
      <point x="560.3121495327102" y="42.0" type="qcurve"/>
      <point x="472.31214953271024" y="-416.0" type="line"/>
      <point x="2.1999999999999957" y="-416.0" type="line"/>
    </contour>
  </outline>
</glyph>
<glyph name="ordmasculine" format="2">
  <advance width="978.8448598130842"/>
  <unicode hex="00BA"/>
  <guideline y="1975.0" identifier="Jnt0R9CyOf"/>
  <outline>
    <contour>
      <point x="37.754205607476635" y="1065.728971962617" type="qcurve"/>
      <point x="37.754205607476635" y="1101.271028037383" type="line"/>
      <point x="37.754205607476635" y="1265.214953271028"/>
      <point x="267.3336448598131" y="1477.0"/>
      <point x="492.89439252336444" y="1477.0" type="qcurve" smooth="yes"/>
      <point x="720.1654205607477" y="1477.0"/>
      <point x="951.7448598130842" y="1265.214953271028"/>
      <point x="951.7448598130842" y="1101.271028037383" type="qcurve"/>
      <point x="951.7448598130842" y="1065.728971962617" type="line"/>
      <point x="951.7448598130842" y="901.7850467289719"/>
      <point x="722.5859813084113" y="691.0"/>
      <point x="496.314953271028" y="691.0" type="qcurve" smooth="yes"/>
      <point x="269.75420560747665" y="691.0"/>
      <point x="37.754205607476635" y="901.7850467289719"/>
    </contour>
    <contour>
      <point x="479.89439252336444" y="1124.0" type="qcurve"/>
      <point x="479.89439252336444" y="1043.0" type="line"/>
      <point x="479.89439252336444" y="952.0"/>
      <point x="484.89439252336444" y="830.0"/>
      <point x="494.89439252336444" y="830.0" type="qcurve" smooth="yes"/>
      <point x="504.89439252336444" y="830.0"/>
      <point x="509.89439252336444" y="952.0"/>
      <point x="509.89439252336444" y="1043.0" type="qcurve"/>
      <point x="509.89439252336444" y="1124.0" type="line"/>
      <point x="509.89439252336444" y="1213.0"/>
      <point x="503.89439252336444" y="1336.0"/>
      <point x="492.89439252336444" y="1336.0" type="qcurve" smooth="yes"/>
      <point x="484.89439252336444" y="1336.0"/>
      <point x="479.89439252336444" y="1213.0"/>
    </contour>
  </outline>
</glyph>
<glyph name="guillemotright" format="2">
  <advance width="1194.4742990654204"/>
  <unicode hex="00BB"/>
  <guideline y="98.0" identifier="MTEldNnfdj"/>
  <guideline y="443.0" identifier="G9bQni2n1K"/>
  <outline>
    <contour>
      <point x="21.549999999999997" y="153.0" type="line"/>
      <point x="144.55" y="551.0" type="line"/>
      <point x="21.549999999999997" y="949.0" type="line"/>
      <point x="467.6621495327102" y="949.0" type="line"/>
      <point x="627.6621495327101" y="581.0" type="line"/>
      <point x="627.6621495327101" y="522.0" type="line"/>
      <point x="467.6621495327102" y="153.0" type="line"/>
    </contour>
    <contour>
      <point x="563.6621495327101" y="153.0" type="line"/>
      <point x="686.6621495327101" y="551.0" type="line"/>
      <point x="563.6621495327101" y="949.0" type="line"/>
      <point x="1009.7742990654203" y="949.0" type="line"/>
      <point x="1169.7742990654203" y="581.0" type="line"/>
      <point x="1169.7742990654203" y="522.0" type="line"/>
      <point x="1009.7742990654203" y="153.0" type="line"/>
    </contour>
  </outline>
</glyph>
<glyph name="questiondown" format="2">
  <advance width="1010.0345794392523"/>
  <unicode hex="00BF"/>
  <outline>
    <contour>
      <point x="804.618691588785" y="926.7009345794393" type="qcurve" smooth="yes"/>
      <point x="804.618691588785" y="823.7196261682243"/>
      <point x="670.3009345794393" y="677.0093457943925"/>
      <point x="544.9551401869159" y="677.0093457943925" type="qcurve" smooth="yes"/>
      <point x="418.89906542056076" y="677.0093457943925"/>
      <point x="285.29158878504677" y="823.7196261682243"/>
      <point x="285.29158878504677" y="926.7009345794393" type="qcurve" smooth="yes"/>
      <point x="285.29158878504677" y="1028.9719626168223"/>
      <point x="418.89906542056076" y="1175.6822429906542"/>
      <point x="544.9551401869159" y="1175.6822429906542" type="qcurve" smooth="yes"/>
      <point x="670.3009345794393" y="1175.6822429906542"/>
      <point x="804.618691588785" y="1028.9719626168223"/>
    </contour>
    <contour>
      <point x="989.6934579439252" y="208.1814757985772" type="line"/>
      <point x="989.6934579439252" y="188.1814757985772" type="line" smooth="yes"/>
      <point x="989.6934579439252" y="-69.48021574371134"/>
      <point x="843.1752080717906" y="-350.7289719626168"/>
      <point x="505.581308411215" y="-350.7289719626168" type="qcurve" smooth="yes"/>
      <point x="167.21128934765426" y="-350.7289719626168"/>
      <point x="19.758878504672907" y="-152.8832008183382"/>
      <point x="19.758878504672907" y="25.27102803738318" type="qcurve" smooth="yes"/>
      <point x="19.758878504672907" y="181.28971962616822"/>
      <point x="108.37570093457946" y="346.6728971962617"/>
      <point x="230.6373831775701" y="403.5700934579439" type="qcurve" smooth="yes"/>
      <point x="366.79626168224297" y="483.94392523364485"/>
      <point x="455.0859813084113" y="541.9345794392524"/>
      <point x="458.6373831775701" y="583.1028037383178" type="qcurve" smooth="yes"/>
      <point x="462.188785046729" y="600.9158878504672" type="line"/>
      <point x="642.5065420560747" y="602.3364485981308" type="line"/>
      <point x="642.5065420560747" y="578.8411214953271" type="line" smooth="yes"/>
      <point x="642.5065420560747" y="523.4485981308411"/>
      <point x="614.4504672897197" y="437.22429906542055"/>
      <point x="537.4785046728972" y="336.58878504672896" type="qcurve" smooth="yes"/>
      <point x="474.82429906542063" y="261.2710280373832"/>
      <point x="490.581308411215" y="119.28167573348212"/>
      <point x="490.581308411215" y="82.29162598223833" type="qcurve" smooth="yes"/>
      <point x="490.581308411215" y="46.47403171060586"/>
      <point x="499.2877760729065" y="11.420281768726454"/>
      <point x="505.581308411215" y="11.420281768726454" type="qcurve" smooth="yes"/>
      <point x="514.0987213465384" y="11.420281768726454"/>
      <point x="520.581308411215" y="103.55958525131352"/>
      <point x="520.581308411215" y="188.1814757985772" type="qcurve" smooth="yes"/>
      <point x="520.581308411215" y="208.1814757985772" type="line"/>
    </contour>
  </outline>
</glyph>
<glyph name="multiply" format="2">
  <advance width="995"/>
  <unicode hex="00D7"/>
  <outline>
    <contour>
      <point x="370" y="287" type="line"/>
      <point x="122" y="538" type="line"/>
      <point x="623" y="1055" type="line"/>
      <point x="870" y="803" type="line"/>
    </contour>
    <contour>
      <point x="619" y="285" type="line"/>
      <point x="120" y="796" type="line"/>
      <point x="375" y="1056" type="line"/>
      <point x="875" y="545" type="line"/>
    </contour>
  </outline>
</glyph>
<glyph name="Thorn" format="2">
  <advance width="1062.9719626168226"/>
  <unicode hex="00DE"/>
  <guideline y="901.0" identifier="i9jYwjBDP4"/>
  <guideline y="555.0" identifier="T8KKW8oxop"/>
  <outline>
    <contour>
      <point x="34.0" y="0.0" type="line"/>
      <point x="34.0" y="1456.0" type="line"/>
      <point x="520.8691588785047" y="1456.0" type="line"/>
      <point x="520.8691588785047" y="0.0" type="line"/>
    </contour>
    <contour>
      <point x="281.0560747663551" y="248.76616915422886" type="line"/>
      <point x="281.0560747663551" y="664.407960199005" type="line"/>
      <point x="535.8691588785047" y="664.407960199005" type="line" smooth="yes"/>
      <point x="545.8691588785045" y="664.407960199005"/>
      <point x="550.8691588785045" y="700.3681592039801"/>
      <point x="550.8691588785045" y="738.223880597015" type="qcurve" smooth="yes"/>
      <point x="550.8691588785045" y="776.0796019900497"/>
      <point x="545.8691588785045" y="813.3333333333334"/>
      <point x="535.8691588785047" y="813.3333333333334" type="qcurve" smooth="yes"/>
      <point x="281.0560747663551" y="813.3333333333334" type="line"/>
      <point x="281.0560747663551" y="1233.4228855721392" type="line"/>
      <point x="646.6728971962616" y="1233.4228855721392" type="line" smooth="yes"/>
      <point x="871.1682242990655" y="1233.4228855721392"/>
      <point x="1046.9719626168226" y="968.3582089552239"/>
      <point x="1046.9719626168226" y="740.223880597015" type="qcurve" smooth="yes"/>
      <point x="1046.9719626168226" y="511.3482587064677"/>
      <point x="871.1682242990655" y="242.09452736318408"/>
      <point x="646.6728971962616" y="248.76616915422886" type="qcurve" smooth="yes"/>
    </contour>
  </outline>
</glyph>
<glyph name="germandbls" format="2">
  <advance width="1536.7644859813086"/>
  <unicode hex="00DF"/>
  <outline>
    <contour>
      <point x="498.8121495327102" y="1092.0" type="qcurve" name="hr00"/>
      <point x="498.8121495327102" y="0.0" type="line"/>
      <point x="30.700000000000003" y="0.0" type="line"/>
      <point x="30.700000000000003" y="1092.0" type="line" smooth="yes"/>
      <point x="30.700000000000003" y="1361.7164179104477"/>
      <point x="420.20834611986794" y="1534.0"/>
      <point x="659.8682242990654" y="1534.0" type="qcurve" smooth="yes"/>
      <point x="877.2345701399545" y="1534.0"/>
      <point x="1343.0644859813085" y="1347.03223880597"/>
      <point x="1343.0644859813085" y="1023.0431840796019" type="qcurve" smooth="yes"/>
      <point x="1343.0644859813085" y="931.0071641791044"/>
      <point x="1324.5044859813086" y="798.8427860696518"/>
      <point x="1322.5044859813086" y="754.8447761194029" type="qcurve" smooth="yes"/>
      <point x="1328.6644859813084" y="718.6841791044776"/>
      <point x="1335.1844859813084" y="679.8268656716418"/>
      <point x="1335.1844859813084" y="668.3727363184079" type="qcurve" smooth="yes"/>
      <point x="1335.1844859813084" y="650.2141293532338"/>
      <point x="1290.7844859813085" y="638.5046766169155"/>
      <point x="1387.1044859813085" y="625.3802985074626" type="qcurve" smooth="yes"/>
      <point x="1502.8644859813085" y="602.512039800995"/>
      <point x="1521.0644859813085" y="547.1297512437811"/>
      <point x="1521.0644859813085" y="479.7912437810945" type="qcurve" smooth="yes"/>
      <point x="1521.0644859813085" y="172.56716417910448"/>
      <point x="1278.2142046775468" y="-20.0"/>
      <point x="973.9242990654204" y="-20.0" type="qcurve" smooth="yes"/>
      <point x="687.529915841354" y="-20.0"/>
      <point x="513.8121495327102" y="164.5820895522388"/>
      <point x="513.8121495327102" y="492.23383084577114" type="qcurve" smooth="yes"/>
      <point x="513.8121495327102" y="509.33830845771143" type="line"/>
      <point x="960.9242990654204" y="509.33830845771143" type="line"/>
      <point x="960.9242990654204" y="503.30348258706465" type="line" smooth="yes"/>
      <point x="960.9242990654204" y="449.69651741293535"/>
      <point x="965.9242990654204" y="398.60696517412936"/>
      <point x="975.9242990654204" y="398.60696517412936" type="qcurve" smooth="yes"/>
      <point x="985.9242990654204" y="398.60696517412936"/>
      <point x="990.9242990654204" y="439.5126368159204"/>
      <point x="990.9242990654204" y="478.83960199004974" type="qcurve" smooth="yes"/>
      <point x="990.9242990654204" y="510.3956218905472"/>
      <point x="976.9642990654204" y="548.8561194029851"/>
      <point x="913.8442990654204" y="554.8147263681592" type="qcurve" smooth="yes"/>
      <point x="820.0842990654204" y="567.2642786069651"/>
      <point x="797.9242990654204" y="608.7426865671641"/>
      <point x="797.9242990654204" y="637.4011940298508" type="qcurve" smooth="yes"/>
      <point x="797.9242990654204" y="660.6752238805971"/>
      <point x="792.0042990654205" y="741.3596019900497"/>
      <point x="788.8842990654205" y="779.3576119402985" type="qcurve" smooth="yes"/>
      <point x="793.6042990654204" y="819.1182089552238"/>
      <point x="812.9242990654204" y="947.0155223880597"/>
      <point x="812.9242990654204" y="1011.6083582089552" type="qcurve" smooth="yes"/>
      <point x="812.9242990654204" y="1117.926368159204"/>
      <point x="779.7744706374668" y="1175.4378109452737"/>
      <point x="655.8682242990654" y="1175.4378109452737" type="qcurve" smooth="yes"/>
      <point x="543.705858557679" y="1175.4378109452737"/>
      <point x="498.8121495327102" y="1135.7363184079602"/>
    </contour>
  </outline>
</glyph>
<glyph name="thorn" format="2">
  <advance width="1035.4079439252337"/>
  <unicode hex="00FE"/>
  <outline>
    <contour>
      <point x="500.8121495327102" y="-416.0" type="line"/>
      <point x="30.700000000000003" y="-416.0" type="line"/>
      <point x="30.700000000000003" y="1536.0" type="line"/>
      <point x="500.8121495327102" y="1536.0" type="line"/>
      <point x="500.8121495327102" y="839.0" type="line"/>
    </contour>
    <contour>
      <point x="508.8121495327102" y="399.60696517412936" type="qcurve" smooth="yes"/>
      <point x="510.17214953271025" y="399.60696517412936"/>
      <point x="530.8121495327102" y="421.06825870646765"/>
      <point x="530.8121495327102" y="451.636815920398" type="qcurve" smooth="yes"/>
      <point x="530.8121495327102" y="463.62189054726366" type="line" smooth="yes"/>
      <point x="530.8121495327102" y="488.1317412935324"/>
      <point x="510.17214953271025" y="516.3930348258707"/>
      <point x="506.8121495327102" y="516.3930348258707" type="qcurve" smooth="yes"/>
      <point x="477.5321495327102" y="516.3930348258707"/>
      <point x="457.8121495327102" y="491.7956218905472"/>
      <point x="457.8121495327102" y="465.43283582089555" type="qcurve" smooth="yes"/>
      <point x="457.8121495327102" y="455.22388059701495" type="line" smooth="yes"/>
      <point x="457.8121495327102" y="425.9908457711442"/>
      <point x="479.1321495327102" y="399.60696517412936"/>
    </contour>
    <contour>
      <point x="674.428971962617" y="-20.0" type="qcurve" smooth="yes"/>
      <point x="510.838691588785" y="-20.0"/>
      <point x="342.5130841121495" y="233.04"/>
      <point x="342.5130841121495" y="452.0" type="qcurve" smooth="yes"/>
      <point x="342.5130841121495" y="486.0" type="line" smooth="yes"/>
      <point x="342.5130841121495" y="677.28"/>
      <point x="503.05700934579437" y="936.0"/>
      <point x="674.428971962617" y="936.0" type="qcurve" smooth="yes"/>
      <point x="848.5403738317757" y="936.0"/>
      <point x="1014.1579439252337" y="675.44"/>
      <point x="1014.1579439252337" y="474.0" type="qcurve" smooth="yes"/>
      <point x="1014.1579439252337" y="442.0" type="line" smooth="yes"/>
      <point x="1014.1579439252337" y="233.76"/>
      <point x="848.5403738317757" y="-20.0"/>
    </contour>
  </outline>
</glyph>
<glyph name="idotless" format="2">
  <advance width="534.2121495327102"/>
  <unicode hex="0131"/>
  <anchor x="273.4985981308411" y="916.0" name="top"/>
  <anchor x="273.4985981308411" y="0.0" name="bottom"/>
  <anchor x="177.65747663551406" y="0.0" name="ogonek"/>
  <anchor x="268.4563551401869" y="471.96" name="yu_dash"/>
  <outline>
    <contour>
      <point x="32.05" y="0.0" type="line"/>
      <point x="32.05" y="916.0" type="line"/>
      <point x="502.1621495327102" y="916.0" type="line"/>
      <point x="502.1621495327102" y="0.0" type="line"/>
    </contour>
  </outline>
</glyph>
<glyph name="OE" format="2">
  <advance width="1197.608878504673"/>
  <unicode hex="0152"/>
  <outline>
    <contour>
      <point x="438.5132398753894" y="-7.0" type="qcurve" smooth="yes"/>
      <point x="197.09267912772586" y="-7.0"/>
      <point x="25.083333333333332" y="360.61059190031153"/>
      <point x="25.083333333333332" y="708.5109034267913" type="qcurve" smooth="yes"/>
      <point x="25.083333333333332" y="750.2554517133956" type="line" smooth="yes"/>
      <point x="25.083333333333332" y="1093.417445482866"/>
      <point x="195.6721183800623" y="1463.0"/>
      <point x="448.42912772585663" y="1463.0" type="qcurve" smooth="yes"/>
      <point x="493.5038940809969" y="1463.0"/>
      <point x="601.5724299065421" y="1458.6666666666667"/>
      <point x="637.7219626168223" y="1456.0" type="qcurve"/>
      <point x="1174.9088785046729" y="1456.0" type="line"/>
      <point x="1174.9088785046729" y="1000.7412935323383" type="line"/>
      <point x="1052.5571190775095" y="1000.7412935323383" type="line"/>
      <point x="1052.5571190775095" y="444.68011763611844" type="line"/>
      <point x="1178.9088785046729" y="444.68011763611844" type="line"/>
      <point x="1178.9088785046729" y="0.0" type="line"/>
      <point x="637.7219626168223" y="0.0" type="line"/>
      <point x="595.9057632398755" y="-2.333333333333334"/>
      <point x="494.21417445482865" y="-7.0"/>
    </contour>
    <contour>
      <point x="549.7219626168223" y="467.13432835820896" type="qcurve" smooth="yes"/>
      <point x="552.7219626168223" y="467.13432835820896"/>
      <point x="557.7219626168223" y="464.9452736318408"/>
      <point x="559.7219626168223" y="463.9800995024875" type="qcurve"/>
      <point x="559.7219626168223" y="991.9850746268658" type="line"/>
      <point x="556.7219626168223" y="990.6119402985075"/>
      <point x="552.7219626168223" y="988.8308457711444"/>
      <point x="549.7219626168223" y="988.8308457711444" type="qcurve" smooth="yes"/>
      <point x="535.7219626168223" y="988.8308457711444"/>
      <point x="529.7219626168223" y="865.4328358208955"/>
      <point x="529.7219626168223" y="749.5373134328358" type="qcurve" smooth="yes"/>
      <point x="529.7219626168223" y="707.9452736318408" type="line" smooth="yes"/>
      <point x="529.7219626168223" y="588.4975124378109"/>
      <point x="534.7219626168223" y="467.13432835820896"/>
    </contour>
    <contour>
      <point x="809.8468387036778" y="530.1308276375133" type="line"/>
      <point x="809.8468387036778" y="963.4328358208955" type="line"/>
      <point x="1134.9088785046729" y="963.4328358208955" type="line"/>
      <point x="1134.9088785046729" y="530.1308276375133" type="line"/>
    </contour>
  </outline>
</glyph>
<glyph name="oe" format="2">
  <advance width="1480.021028037383"/>
  <unicode hex="0153"/>
  <outline>
    <contour>
      <point x="562.435046728972" y="-30.0" type="qcurve" smooth="yes"/>
      <point x="259.77336448598135" y="-30.0"/>
      <point x="21.25" y="231.3211214953271"/>
      <point x="21.25" y="446.97196261682245" type="qcurve" smooth="yes"/>
      <point x="21.25" y="466.8971962616822" type="line" smooth="yes"/>
      <point x="21.25" y="683.9685981308411"/>
      <point x="261.163644859813" y="947.3902803738316"/>
      <point x="537.41" y="947.3902803738316" type="qcurve" smooth="yes"/>
      <point x="556.2978504672898" y="947.3902803738316"/>
      <point x="669.0088785046729" y="1025.2007476635515"/>
      <point x="754.8742990654206" y="998.9857943925232" type="qcurve"/>
      <point x="837.3797196261684" y="1016.1790654205607"/>
      <point x="896.1258878504673" y="950.6482405728364"/>
      <point x="941.5838317757009" y="950.6482405728364" type="qcurve" smooth="yes"/>
      <point x="1233.3341121495328" y="950.6482405728364"/>
      <point x="1459.521028037383" y="700.72"/>
      <point x="1459.521028037383" y="492.0" type="qcurve" smooth="yes"/>
      <point x="1459.521028037383" y="267.7412935323383" type="line"/>
      <point x="754.5584112149531" y="267.7412935323383" type="line"/>
      <point x="754.5584112149531" y="638.1293532338309" type="line"/>
      <point x="986.7991588785045" y="638.1293532338309" type="line"/>
      <point x="990.0571190775095" y="501.0119402985074" type="line" smooth="yes"/>
      <point x="986.7991588785045" y="519.183880597015"/>
      <point x="989.2088785046728" y="549.5736137071651"/>
      <point x="972.4088785046729" y="549.5736137071651" type="qcurve" smooth="yes"/>
      <point x="967.2088785046728" y="549.5736137071651"/>
      <point x="958.4088785046729" y="505.1860380341284"/>
      <point x="958.4088785046729" y="474.0" type="qcurve" smooth="yes"/>
      <point x="958.4088785046729" y="442.0" type="line" smooth="yes"/>
      <point x="958.4088785046729" y="418.96819082159294"/>
      <point x="1052.3214018691588" y="390.3482587064676"/>
      <point x="1102.518545124843" y="390.3482587064676" type="qcurve" smooth="yes"/>
      <point x="1184.91190542614" y="390.3482587064676"/>
      <point x="1238.9449365322919" y="430.90547263681594"/>
      <point x="1258.7397475240618" y="458.28855721393035" type="qcurve"/>
      <point x="1425.8387850467288" y="175.0" type="line"/>
      <point x="1386.0070093457944" y="100.0"/>
      <point x="1172.0257009345796" y="-30.0"/>
      <point x="969.7830841121495" y="-30.0" type="qcurve" smooth="yes"/>
      <point x="950.3632710280373" y="-30.0"/>
      <point x="862.7206542056074" y="-85.62654205607475"/>
      <point x="752.5142990654206" y="-76.41158878504672" type="qcurve"/>
      <point x="634.5651401869159" y="-96.50990654205609"/>
      <point x="545.4619626168223" y="-30.0"/>
    </contour>
    <contour>
      <point x="520.0163551401869" y="395.5373134328358" type="qcurve" smooth="yes"/>
      <point x="526.5763551401869" y="395.5373134328358"/>
      <point x="535.016355140187" y="421.0637132096527"/>
      <point x="535.016355140187" y="453.11940298507466" type="qcurve" smooth="yes"/>
      <point x="535.016355140187" y="463.62189054726366" type="line" smooth="yes"/>
      <point x="535.016355140187" y="494.194993258009"/>
      <point x="526.5763551401869" y="519.721393034826"/>
      <point x="520.0163551401869" y="519.721393034826" type="qcurve" smooth="yes"/>
      <point x="513.4563551401869" y="519.721393034826"/>
      <point x="505.0163551401869" y="496.3265671641791"/>
      <point x="505.0163551401869" y="463.62189054726366" type="qcurve" smooth="yes"/>
      <point x="505.0163551401869" y="453.11940298507466" type="line" smooth="yes"/>
      <point x="505.0163551401869" y="418.9321393034826"/>
      <point x="513.4563551401869" y="395.5373134328358"/>
    </contour>
  </outline>
</glyph>
<glyph name="primemod" format="2">
  <advance width="603.064953271028"/>
  <unicode hex="02B9"/>
  <outline>
    <contour>
      <point x="93.40280373831777" y="1502.0" type="line"/>
      <point x="566.5149532710279" y="1502.0" type="line"/>
      <point x="440.4121495327102" y="919.9719626168225" type="line"/>
      <point x="34.30000000000001" y="924.9719626168225" type="line"/>
    </contour>
  </outline>
</glyph>
<glyph name="doubleprimemod" format="2">
  <advance width="1082.1345794392523"/>
  <unicode hex="02BA"/>
  <outline>
    <contour>
      <point x="85.45000000000002" y="1502.0" type="line"/>
      <point x="558.5621495327102" y="1502.0" type="line"/>
      <point x="440.56214953271024" y="921.607476635514" type="line"/>
      <point x="34.45000000000002" y="926.607476635514" type="line"/>
    </contour>
    <contour>
      <point x="588.5621495327102" y="1502.0" type="line"/>
      <point x="1061.6742990654204" y="1502.0" type="line"/>
      <point x="943.6742990654204" y="921.607476635514" type="line"/>
      <point x="537.5621495327102" y="926.607476635514" type="line"/>
    </contour>
  </outline>
</glyph>
<glyph name="gravecomb" format="2">
  <unicode hex="0300"/>
  <anchor x="0.0" y="1052.0" name="_top"/>
  <anchor x="0.0" y="1763.233644859813" name="top"/>
  <outline>
    <contour>
      <point x="-189" y="1000" type="line"/>
      <point x="-408" y="1352" type="line"/>
      <point x="-6" y="1451" type="line"/>
      <point x="172" y="1103" type="line"/>
    </contour>
  </outline>
</glyph>
<glyph name="circumflexcomb" format="2">
  <unicode hex="0302"/>
  <anchor x="0.0" y="1052.0" name="_top"/>
  <anchor x="0.0" y="1576.3271028037384" name="top"/>
  <outline>
    <contour>
      <point x="98.61682242990653" y="1577.03738317757" type="line"/>
      <point x="168.0" y="1220.0" type="line"/>
      <point x="15.0" y="1220.0" type="line"/>
      <point x="0.0" y="1379.0" type="line"/>
      <point x="-15.0" y="1220.0" type="line"/>
      <point x="-170.13084112149534" y="1220.0" type="line"/>
      <point x="-91.51401869158877" y="1577.03738317757" type="line"/>
    </contour>
  </outline>
</glyph>
<glyph name="dotaccentcomb" format="2">
  <unicode hex="0307"/>
  <anchor x="0.0" y="1052.0" name="_top"/>
  <anchor x="0.0" y="1529.7383177570093" name="top"/>
  <outline>
    <contour>
      <point x="-141.93457943925233" y="1394.5140186915887" type="qcurve" smooth="yes"/>
      <point x="-141.93457943925233" y="1453.1401869158879"/>
      <point x="-69.75700934579439" y="1529.7383177570093"/>
      <point x="0.0" y="1529.7383177570093" type="qcurve" smooth="yes"/>
      <point x="66.75700934579439" y="1529.7383177570093"/>
      <point x="139.93457943925233" y="1453.1401869158879"/>
      <point x="139.93457943925233" y="1394.5140186915887" type="qcurve" smooth="yes"/>
      <point x="139.93457943925233" y="1337.5981308411215"/>
      <point x="66.75700934579439" y="1260.0"/>
      <point x="0.0" y="1260.0" type="qcurve" smooth="yes"/>
      <point x="-69.75700934579439" y="1260.0"/>
      <point x="-141.93457943925233" y="1337.5981308411215"/>
    </contour>
  </outline>
</glyph>
<glyph name="hookabovecomb" format="2">
  <unicode hex="0309"/>
  <anchor x="0.0" y="1052.0" name="_top"/>
  <anchor x="0.0" y="1726.803738317757" name="top"/>
  <outline>
    <contour>
      <point x="-70.0" y="1220.0" type="line"/>
      <point x="-70.0" y="1259.0" type="line" smooth="yes"/>
      <point x="-70.0" y="1311.0"/>
      <point x="-22.55140186915888" y="1378.8691588785048"/>
      <point x="12.0" y="1392.0" type="qcurve" smooth="yes"/>
      <point x="5.953271028037392" y="1393.1588785046729"/>
      <point x="13.588785046728972" y="1424.8971962616822"/>
      <point x="13.588785046728972" y="1453.822429906542" type="qcurve" smooth="yes"/>
      <point x="13.588785046728972" y="1477.9065420560748"/>
      <point x="-10.495327102803742" y="1512.4859813084113"/>
      <point x="-26.0" y="1512.4859813084113" type="qcurve" smooth="yes"/>
      <point x="-55.0" y="1512.4859813084113"/>
      <point x="-96.0" y="1478.4859813084113"/>
      <point x="-106.0" y="1463.4859813084113" type="qcurve"/>
      <point x="-177.3551401869159" y="1650.4672897196263" type="line"/>
      <point x="-137.83177570093457" y="1683.2803738317757"/>
      <point x="-55.20560747663552" y="1727.5140186915887"/>
      <point x="-7.0" y="1727.5140186915887" type="qcurve" smooth="yes"/>
      <point x="81.0" y="1727.5140186915887"/>
      <point x="229.51401869158877" y="1613.5140186915887"/>
      <point x="229.51401869158877" y="1482.0" type="qcurve" smooth="yes"/>
      <point x="229.51401869158877" y="1381.0"/>
      <point x="108.0" y="1261.0"/>
      <point x="70.0" y="1251.0" type="qcurve"/>
      <point x="70.0" y="1220.0" type="line"/>
    </contour>
  </outline>
</glyph>
<glyph name="ringcomb" format="2">
  <unicode hex="030A"/>
  <anchor x="0.0" y="1052.0" name="_top"/>
  <anchor x="0.0" y="1676.9252336448599" name="top"/>
  <outline>
    <contour>
      <point x="-212.38317757009344" y="1460.252336448598" type="qcurve"/>
      <point x="-212.38317757009344" y="1546.4579439252336"/>
      <point x="-90.20560747663552" y="1665.9252336448599"/>
      <point x="0.0" y="1665.9252336448599" type="qcurve" smooth="yes"/>
      <point x="88.20560747663552" y="1665.9252336448599"/>
      <point x="212.38317757009344" y="1546.4579439252336"/>
      <point x="212.38317757009344" y="1460.252336448598" type="qcurve" smooth="yes"/>
      <point x="212.38317757009344" y="1375.4672897196263"/>
      <point x="88.20560747663552" y="1260.0"/>
      <point x="0.0" y="1260.0" type="qcurve" smooth="yes"/>
      <point x="-90.20560747663552" y="1260.0"/>
      <point x="-212.38317757009344" y="1375.4672897196263"/>
    </contour>
    <contour>
      <point x="-77.08411214953271" y="1460.96261682243" type="qcurve"/>
      <point x="-77.08411214953271" y="1432.6448598130842"/>
      <point x="-33.60747663551402" y="1384.8785046728972"/>
      <point x="0.0" y="1384.8785046728972" type="qcurve" smooth="yes"/>
      <point x="33.60747663551402" y="1384.8785046728972"/>
      <point x="77.08411214953271" y="1431.3551401869158"/>
      <point x="77.08411214953271" y="1460.96261682243" type="qcurve" smooth="yes"/>
      <point x="77.08411214953271" y="1492.2803738317757"/>
      <point x="33.60747663551402" y="1540.0467289719627"/>
      <point x="0.0" y="1540.0467289719627" type="qcurve" smooth="yes"/>
      <point x="-33.60747663551402" y="1540.0467289719627"/>
      <point x="-77.08411214953271" y="1492.2803738317757"/>
    </contour>
  </outline>
</glyph>
<glyph name="caroncomb" format="2">
  <unicode hex="030C"/>
  <anchor x="0.0" y="1052.0" name="_top"/>
  <anchor x="0.0" y="1572.7757009345794" name="top"/>
  <outline>
    <contour>
      <point x="-91.51401869158877" y="1213.0" type="line"/>
      <point x="-170.13084112149534" y="1570.03738317757" type="line"/>
      <point x="-15.710280373831779" y="1570.03738317757" type="line"/>
      <point x="0.0" y="1411.03738317757" type="line"/>
      <point x="14.289719626168221" y="1570.03738317757" type="line"/>
      <point x="168.0" y="1570.03738317757" type="line"/>
      <point x="98.61682242990653" y="1213.0" type="line"/>
    </contour>
  </outline>
</glyph>
<glyph name="dieresisbelowcomb" format="2">
  <unicode hex="0324"/>
  <anchor x="0.0" y="0.0" name="_bottom"/>
  <anchor x="0.0" y="-478.5327102803738" name="bottom"/>
  <outline>
    <contour>
      <point x="-250.2710280373832" y="-299.01869158878503" type="qcurve" smooth="yes"/>
      <point x="-250.2710280373832" y="-254.3644859813084"/>
      <point x="-186.09345794392522" y="-178.37383177570092"/>
      <point x="-124.62616822429908" y="-178.37383177570092" type="qcurve" smooth="yes"/>
      <point x="-59.60747663551402" y="-178.37383177570092"/>
      <point x="4.1495327102803685" y="-251.5233644859813"/>
      <point x="4.1495327102803685" y="-299.01869158878503" type="qcurve" smooth="yes"/>
      <point x="4.1495327102803685" y="-344.25233644859816"/>
      <point x="-62.448598130841134" y="-418.8224299065421"/>
      <point x="-124.62616822429908" y="-418.8224299065421" type="qcurve" smooth="yes"/>
      <point x="-188.22429906542055" y="-418.8224299065421"/>
      <point x="-250.2710280373832" y="-346.38317757009344"/>
    </contour>
    <contour>
      <point x="-5.1495327102803685" y="-299.01869158878503" type="qcurve" smooth="yes"/>
      <point x="-5.1495327102803685" y="-254.3644859813084"/>
      <point x="58.3177570093458" y="-178.37383177570092"/>
      <point x="121.9158878504673" y="-178.37383177570092" type="qcurve" smooth="yes"/>
      <point x="185.51401869158877" y="-178.37383177570092"/>
      <point x="249.2710280373832" y="-251.5233644859813"/>
      <point x="249.2710280373832" y="-299.01869158878503" type="qcurve" smooth="yes"/>
      <point x="249.2710280373832" y="-344.25233644859816"/>
      <point x="182.67289719626166" y="-418.8224299065421"/>
      <point x="121.9158878504673" y="-418.8224299065421" type="qcurve" smooth="yes"/>
      <point x="56.18691588785046" y="-418.8224299065421"/>
      <point x="-5.1495327102803685" y="-346.38317757009344"/>
    </contour>
  </outline>
</glyph>
<glyph name="commaaccentcomb" format="2">
  <unicode hex="0326"/>
  <anchor x="0.0" y="0.0" name="_bottom"/>
  <anchor x="0.0" y="-600.0" name="bottom"/>
  <outline>
    <contour>
      <point x="-159.84112149532712" y="-597.0" type="line"/>
      <point x="-118.7196261682243" y="-185.93457943925233" type="line"/>
      <point x="196.92523364485982" y="-183.93457943925233" type="line"/>
      <point x="7.420560747663552" y="-600.0" type="line"/>
    </contour>
  </outline>
</glyph>
<glyph name="ogonekcomb" format="2">
  <unicode hex="0328"/>
  <anchor x="88.0" y="0.0" name="_ogonek"/>
  <anchor x="21.0" y="-434.0" name="bottom"/>
  <outline>
    <contour>
      <point x="4.0" y="57.0" type="qcurve"/>
      <point x="88.0" y="0.0" type="line"/>
      <point x="73.0" y="-42.0"/>
      <point x="58.0" y="-144.0"/>
      <point x="58.0" y="-203.0" type="qcurve" smooth="yes"/>
      <point x="58.0" y="-252.0"/>
      <point x="81.0" y="-295.0"/>
      <point x="93.0" y="-295.0" type="qcurve" smooth="yes"/>
      <point x="99.0" y="-295.0"/>
      <point x="133.0" y="-276.0"/>
      <point x="140.0" y="-268.0" type="qcurve"/>
      <point x="175.0" y="-390.0" type="line"/>
      <point x="152.0" y="-405.0"/>
      <point x="80.0" y="-434.0"/>
      <point x="-15.168224299065422" y="-434.0" type="qcurve" smooth="yes"/>
      <point x="-118.28971962616822" y="-434.0"/>
      <point x="-207.54205607476638" y="-310.0"/>
      <point x="-207.54205607476638" y="-230.0" type="qcurve" smooth="yes"/>
      <point x="-207.54205607476638" y="-122.85046728971963"/>
      <point x="-111.79439252336448" y="10.074766355140186"/>
    </contour>
  </outline>
</glyph>
<glyph name="brevebelowcomb" format="2">
  <unicode hex="032E"/>
  <anchor x="0.0" y="0.0" name="_bottom"/>
  <anchor x="0.0" y="-463.0" name="bottom"/>
  <outline>
    <contour>
      <point x="356.78407262751665" y="-55.84310410564004" type="qcurve"/>
      <point x="366.8598302878132" y="-167.16822429906543" type="line"/>
      <point x="325.45378388431675" y="-298.13084112149534"/>
      <point x="133.11692844190262" y="-463.0"/>
      <point x="0.0" y="-463.0" type="qcurve" smooth="yes"/>
      <point x="-113.88248709722417" y="-463.0"/>
      <point x="-360.77054958850607" y="-252.83455479611285"/>
      <point x="-369.0875101129865" y="-174.4647054447389" type="qcurve"/>
      <point x="-362.4663156181708" y="-55.13282373180826" type="line"/>
      <point x="-311.70095178314034" y="-118.71385595387548"/>
      <point x="-101.68960617473381" y="-212.5438438647882"/>
      <point x="0.0" y="-212.5438438647882" type="qcurve" smooth="yes"/>
      <point x="113.27580694657553" y="-212.5438438647882"/>
      <point x="311.3772297391547" y="-122.39013390988978"/>
    </contour>
  </outline>
</glyph>
<glyph name="lownumeralsign" format="2">
  <advance width="336.0"/>
  <unicode hex="0375"/>
  <outline>
    <contour>
      <point x="176.0" y="285.0" type="line"/>
      <point x="299.0" y="255.0" type="line"/>
      <point x="210.0" y="-198.0" type="line"/>
      <point x="25.0" y="-179.0" type="line"/>
    </contour>
  </outline>
</glyph>
<glyph name="Xi" format="2">
  <advance width="360.4"/>
  <unicode hex="039E"/>
  <outline>
    <contour>
      <point x="18.700000000000003" y="0.0" type="line"/>
      <point x="18.700000000000003" y="459.6915422885572" type="line"/>
      <point x="341.7" y="459.6915422885572" type="line"/>
      <point x="341.7" y="0.0" type="line"/>
    </contour>
    <contour>
      <point x="120.7" y="513.7412935323383" type="line"/>
      <point x="120.7" y="973.4328358208955" type="line"/>
      <point x="239.7" y="973.4328358208955" type="line"/>
      <point x="239.7" y="513.7412935323383" type="line"/>
    </contour>
    <contour>
      <point x="18.700000000000003" y="994.8258706467661" type="line"/>
      <point x="18.700000000000003" y="1456.0" type="line"/>
      <point x="341.7" y="1456.0" type="line"/>
      <point x="341.7" y="994.8258706467661" type="line"/>
    </contour>
  </outline>
</glyph>
<glyph name="Pi" format="2">
  <advance width="1090.0"/>
  <unicode hex="03A0"/>
  <outline>
    <contour>
      <point x="34.0" y="0.0" type="line"/>
      <point x="34.0" y="1456.0" type="line"/>
      <point x="1056.0" y="1456.0" type="line"/>
      <point x="1056.0" y="0.0" type="line"/>
      <point x="560.0" y="0.0" type="line"/>
      <point x="560.0" y="1000.0" type="line"/>
      <point x="530.0" y="1000.0" type="line"/>
      <point x="530.0" y="0.0" type="line"/>
    </contour>
  </outline>
</glyph>
<glyph name="Sigma" format="2">
  <advance width="714.0799065420559"/>
  <unicode hex="03A3"/>
  <outline>
    <contour>
      <point x="18.25" y="0.0" type="line"/>
      <point x="18.25" y="269.2587064676617" type="line"/>
      <point x="100.25" y="748.0" type="line"/>
      <point x="100.25" y="702.0" type="line"/>
      <point x="30.25" y="1155.7412935323382" type="line"/>
      <point x="30.25" y="1456.0" type="line"/>
      <point x="691.679906542056" y="1456.0" type="line"/>
      <point x="691.679906542056" y="1074.3880597014925" type="line"/>
      <point x="643.3835379178872" y="1074.3880597014925" type="line"/>
      <point x="447.13148044822617" y="1322.0" type="line"/>
      <point x="661.3901869158879" y="756.0" type="line"/>
      <point x="661.3901869158879" y="716.0" type="line"/>
      <point x="439.13148044822617" y="135.0" type="line"/>
      <point x="709.5128911517181" y="456.0" type="line"/>
      <point x="695.679906542056" y="456.0" type="line"/>
      <point x="695.679906542056" y="0.0" type="line"/>
    </contour>
  </outline>
</glyph>
<glyph name="Phi" format="2">
  <advance width="1571.9485981308412"/>
  <unicode hex="03A6"/>
  <outline>
    <contour>
      <point x="544.6705607476636" y="-20.0" type="line"/>
      <point x="544.6705607476636" y="242.0" type="line"/>
      <point x="544.6705607476636" y="285.0" type="line"/>
      <point x="544.6705607476636" y="1192.0" type="line"/>
      <point x="544.6705607476636" y="1228.0" type="line"/>
      <point x="544.6705607476636" y="1476.0" type="line"/>
      <point x="1027.9883177570093" y="1476.0" type="line"/>
      <point x="1027.9883177570093" y="1230.0" type="line"/>
      <point x="1027.9883177570093" y="1193.0" type="line"/>
      <point x="1027.9883177570093" y="283.0" type="line"/>
      <point x="1027.9883177570093" y="240.0" type="line"/>
      <point x="1027.9883177570093" y="-20.0" type="line"/>
    </contour>
    <contour>
      <point x="494.1565420560747" y="162.12437810945275" type="line" smooth="yes"/>
      <point x="188.93224299065423" y="162.12437810945275"/>
      <point x="24.25" y="471.1741293532338"/>
      <point x="24.25" y="739.0" type="qcurve" smooth="yes"/>
      <point x="24.25" y="1006.8258706467661"/>
      <point x="188.93224299065423" y="1314.8756218905473"/>
      <point x="494.1565420560747" y="1314.8756218905473" type="qcurve" smooth="yes"/>
      <point x="1078.5023364485983" y="1314.8756218905473" type="line" smooth="yes"/>
      <point x="1383.7266355140187" y="1314.8756218905473"/>
      <point x="1547.6985981308412" y="1005.0845771144278"/>
      <point x="1547.6985981308412" y="738.0" type="qcurve" smooth="yes"/>
      <point x="1547.6985981308412" y="469.43283582089555"/>
      <point x="1383.7266355140187" y="162.12437810945275"/>
      <point x="1078.5023364485983" y="162.12437810945275" type="qcurve" smooth="yes"/>
    </contour>
    <contour>
      <point x="539.6705607476636" y="619.278606965174" type="qcurve" smooth="yes"/>
      <point x="1032.9883177570093" y="619.278606965174" type="line" smooth="yes"/>
      <point x="1042.9883177570093" y="619.278606965174"/>
      <point x="1057.988317757009" y="678.4328358208955"/>
      <point x="1057.988317757009" y="731.5522388059702" type="qcurve" smooth="yes"/>
      <point x="1057.988317757009" y="783.4129353233831"/>
      <point x="1042.9883177570093" y="844.3781094527363"/>
      <point x="1032.9883177570093" y="844.3781094527363" type="qcurve" smooth="yes"/>
      <point x="539.6705607476636" y="844.3781094527363" type="line" smooth="yes"/>
      <point x="529.6705607476636" y="844.3781094527363"/>
      <point x="514.6705607476636" y="785.223880597015"/>
      <point x="514.6705607476636" y="732.8457711442786" type="qcurve" smooth="yes"/>
      <point x="514.6705607476636" y="680.9850746268656"/>
      <point x="529.6705607476636" y="619.278606965174"/>
    </contour>
  </outline>
</glyph>
<glyph name="Psi" format="2">
  <advance width="1570.4065420560746"/>
  <unicode hex="03A8"/>
  <outline>
    <contour>
      <point x="545.6752336448599" y="0.0" type="line"/>
      <point x="545.6752336448599" y="1456.0" type="line"/>
      <point x="1024.731308411215" y="1456.0" type="line"/>
      <point x="1024.731308411215" y="0.0" type="line"/>
    </contour>
    <contour>
      <point x="494.357476635514" y="208.29353233830847" type="line" smooth="yes"/>
      <point x="240.33878504672896" y="208.29353233830847"/>
      <point x="31.75" y="527.5124378109452"/>
      <point x="31.75" y="868.6965174129353" type="qcurve" smooth="yes"/>
      <point x="31.75" y="1456.0" type="line"/>
      <point x="514.964953271028" y="1456.0" type="line"/>
      <point x="514.964953271028" y="955.6517412935324" type="line" smooth="yes"/>
      <point x="514.964953271028" y="802.9203980099503"/>
      <point x="498.6565420560747" y="667.2587064676617"/>
      <point x="563.964953271028" y="667.2587064676617" type="qcurve" smooth="yes"/>
      <point x="1009.4415887850469" y="667.2587064676617" type="line" smooth="yes"/>
      <point x="1071.75" y="667.2587064676617"/>
      <point x="1059.4415887850469" y="802.9203980099503"/>
      <point x="1055.4415887850469" y="955.6517412935324" type="qcurve" smooth="yes"/>
      <point x="1055.4415887850469" y="1456.0" type="line"/>
      <point x="1538.6565420560746" y="1456.0" type="line"/>
      <point x="1538.6565420560746" y="868.6965174129353" type="line" smooth="yes"/>
      <point x="1538.6565420560746" y="527.5124378109452"/>
      <point x="1329.357476635514" y="208.29353233830847"/>
      <point x="1075.3387850467288" y="208.29353233830847" type="qcurve" smooth="yes"/>
    </contour>
  </outline>
</glyph>
<glyph name="Omega" format="2">
  <advance width="1082.3411214953271"/>
  <unicode hex="03A9"/>
  <anchor x="-75.25" y="1074.0" name="tonos"/>
  <outline>
    <contour>
      <point x="25.75" y="0.0" type="line"/>
      <point x="25.75" y="455.51741293532336" type="line"/>
      <point x="268.73130841121497" y="455.51741293532336" type="line"/>
      <point x="268.73130841121497" y="310.42056074766356" type="line"/>
      <point x="102.48831775700933" y="347.5607476635514"/>
      <point x="26.75" y="640.2056074766355"/>
      <point x="26.75" y="849.2056074766355" type="qcurve"/>
      <point x="26.75" y="856.7943925233645" type="line"/>
      <point x="26.75" y="1136.7943925233644"/>
      <point x="210.04906542056074" y="1466.0"/>
      <point x="541.1705607476636" y="1466.0" type="qcurve"/>
      <point x="867.2920560747664" y="1466.0"/>
      <point x="1055.5911214953271" y="1136.7943925233644"/>
      <point x="1055.5911214953271" y="856.7943925233645" type="qcurve"/>
      <point x="1055.5911214953271" y="849.2056074766355" type="line"/>
      <point x="1055.5911214953271" y="598.2990654205607"/>
      <point x="903.5070093457944" y="347.5607476635514"/>
      <point x="813.6098130841121" y="311.13084112149534" type="qcurve"/>
      <point x="813.6098130841121" y="455.51741293532336" type="line"/>
      <point x="1056.5911214953271" y="455.51741293532336" type="line"/>
      <point x="1056.5911214953271" y="0.0" type="line"/>
      <point x="546.1705607476636" y="0.0" type="line"/>
      <point x="546.1705607476636" y="511.87064676616916" type="line"/>
      <point x="551.1705607476636" y="529.5583763425861"/>
      <point x="556.1705607476636" y="660.0305016971218"/>
      <point x="556.1705607476636" y="743.0175756730367" type="qcurve"/>
      <point x="556.1705607476636" y="755.2961826382108" type="line"/>
      <point x="556.1705607476636" y="873.306132886967"/>
      <point x="547.1705607476636" y="1002.5174129353234"/>
      <point x="540.1705607476636" y="1002.5174129353234" type="qcurve"/>
      <point x="532.1705607476636" y="1002.5174129353234"/>
      <point x="526.1705607476636" y="873.306132886967"/>
      <point x="526.1705607476636" y="755.2961826382108" type="qcurve"/>
      <point x="526.1705607476636" y="743.0175756730367" type="line"/>
      <point x="526.1705607476636" y="660.0305016971218"/>
      <point x="526.1705607476636" y="529.5583763425861"/>
      <point x="536.1705607476636" y="511.87064676616916" type="qcurve"/>
      <point x="536.1705607476636" y="0.0" type="line"/>
    </contour>
  </outline>
</glyph>
<glyph name="alpha" format="2">
  <advance width="1061.1285046728972"/>
  <unicode hex="03B1"/>
  <anchor x="540.6705607476636" y="916.0" name="top"/>
  <outline>
    <contour>
      <point x="362.39953271028037" y="-20.0" type="qcurve" smooth="yes"/>
      <point x="180.77785046728968" y="-20.0"/>
      <point x="21.25" y="240.56"/>
      <point x="21.25" y="442.0" type="qcurve" smooth="yes"/>
      <point x="21.25" y="474.0" type="line" smooth="yes"/>
      <point x="21.25" y="675.44"/>
      <point x="187.5778504672897" y="936.0"/>
      <point x="362.39953271028037" y="936.0" type="qcurve" smooth="yes"/>
      <point x="533.8623364485981" y="936.0"/>
      <point x="694.3154205607477" y="660.96"/>
      <point x="694.3154205607477" y="486.0" type="qcurve" smooth="yes"/>
      <point x="694.3154205607477" y="452.0" type="line" smooth="yes"/>
      <point x="694.3154205607477" y="222.84"/>
      <point x="524.781214953271" y="-20.0"/>
    </contour>
    <contour>
      <point x="528.7266355140187" y="397.3830845771144" type="qcurve" smooth="yes"/>
      <point x="555.0066355140186" y="397.3830845771144"/>
      <point x="578.3060747663551" y="415.9804975124378"/>
      <point x="578.3060747663551" y="467.0845771144278" type="qcurve" smooth="yes"/>
      <point x="578.3060747663551" y="476.5522388059702" type="line" smooth="yes"/>
      <point x="578.3060747663551" y="475.7265671641791"/>
      <point x="562.6963551401868" y="515.6517412935324"/>
      <point x="530.7266355140187" y="515.6517412935324" type="qcurve" smooth="yes"/>
      <point x="526.6563551401869" y="515.6517412935324"/>
      <point x="506.0163551401869" y="486.64915422885576"/>
      <point x="506.0163551401869" y="461.3980099502487" type="qcurve" smooth="yes"/>
      <point x="506.0163551401869" y="451.636815920398" type="line" smooth="yes"/>
      <point x="506.0163551401869" y="426.385671641791"/>
      <point x="519.8563551401869" y="397.3830845771144"/>
    </contour>
    <contour>
      <point x="791.7453271028037" y="-30.0" type="qcurve" smooth="yes"/>
      <point x="671.1845794392523" y="-30.0"/>
      <point x="562.464953271028" y="72.17757009345794"/>
      <point x="553.4369158878503" y="124.51962616822429" type="qcurve"/>
      <point x="540.1569158878503" y="124.51962616822429" type="line"/>
      <point x="540.1569158878503" y="847.0" type="line"/>
      <point x="549.0369158878503" y="847.0" type="line"/>
      <point x="557.0369158878503" y="916.0" type="line"/>
      <point x="1007.5490654205607" y="916.0" type="line"/>
      <point x="1007.5490654205607" y="558.5174129353234" type="line" smooth="yes"/>
      <point x="1007.5490654205607" y="492.75105779513643"/>
      <point x="1013.5490654205607" y="426.51741293532336"/>
      <point x="1027.5490654205607" y="426.51741293532336" type="qcurve"/>
      <point x="1033.5490654205607" y="426.51741293532336"/>
      <point x="1043.5490654205607" y="433.51741293532336"/>
      <point x="1046.5490654205607" y="440.51741293532336" type="qcurve"/>
      <point x="1046.5490654205607" y="-8.0" type="line"/>
      <point x="1032.7359813084113" y="-14.869158878504674"/>
      <point x="924.9976635514017" y="-30.0"/>
    </contour>
  </outline>
</glyph>
<glyph name="delta" format="2">
  <advance width="1018.7242990654204"/>
  <unicode hex="03B4"/>
  <outline>
    <contour>
      <point x="506.3621495327102" y="-30.0" type="qcurve" smooth="yes"/>
      <point x="279.59728971962613" y="-30.0"/>
      <point x="21.25" y="214.0"/>
      <point x="21.25" y="405.0" type="qcurve" smooth="yes"/>
      <point x="21.25" y="435.0" type="line" smooth="yes"/>
      <point x="21.25" y="631.4"/>
      <point x="295.35733249639657" y="894.6172278792951"/>
      <point x="542.7492142093271" y="917.8388059701492" type="qcurve"/>
      <point x="692.1621495327101" y="657.2109452736319" type="line"/>
      <point x="547.1621495327101" y="654.08"/>
      <point x="494.3621495327102" y="594.2734328358209"/>
      <point x="494.3621495327102" y="530.6467661691543" type="qcurve" smooth="yes"/>
      <point x="494.3621495327102" y="521.0248756218905" type="line" smooth="yes"/>
      <point x="494.3621495327102" y="469.6788059701492"/>
      <point x="512.9621495327102" y="403.35120751383266"/>
      <point x="512.0103901055471" y="394.79601990049747" type="qcurve" smooth="yes"/>
      <point x="513.2421495327102" y="390.88907285999903"/>
      <point x="524.3621495327102" y="466.12457711442784"/>
      <point x="524.3621495327102" y="519.905472636816" type="qcurve" smooth="yes"/>
      <point x="524.3621495327102" y="528.5273631840796" type="line" smooth="yes"/>
      <point x="524.3621495327102" y="585.6172408983122"/>
      <point x="487.43175663737395" y="698.4152992049101"/>
      <point x="450.2967289719626" y="697.9158878504672" type="qcurve" smooth="yes"/>
      <point x="325.28179057981123" y="732.0355121588319"/>
      <point x="41.25" y="983.7907323197098"/>
      <point x="41.25" y="1197.21073138978" type="qcurve" smooth="yes"/>
      <point x="41.25" y="1384.7172176500674"/>
      <point x="241.35728971962612" y="1556.0"/>
      <point x="402.1939252336449" y="1556.0" type="qcurve" smooth="yes"/>
      <point x="500.27803738317755" y="1556.0"/>
      <point x="626.3621495327102" y="1515.8691588785048"/>
      <point x="647.3621495327102" y="1487.0" type="qcurve"/>
      <point x="616.3621495327102" y="1073.547263681592" type="line"/>
      <point x="586.3621495327102" y="1114.547263681592"/>
      <point x="521.7164062863253" y="1144.547263681592"/>
      <point x="464.8076323987539" y="1144.547263681592" type="qcurve" smooth="yes"/>
      <point x="502.11039522016085" y="1144.547263681592"/>
      <point x="510.0724299065421" y="1112.857041893337"/>
      <point x="509.3621495327102" y="1067.1736364904452" type="qcurve" smooth="yes"/>
      <point x="508.6518691588785" y="1009.9000548658577"/>
      <point x="621.2190500767192" y="927.2012498256382"/>
      <point x="581.905414516204" y="942.6227274840751" type="qcurve" smooth="yes"/>
      <point x="663.9793997303203" y="931.0435188543265"/>
      <point x="997.4742990654204" y="671.5272720509603"/>
      <point x="997.4742990654204" y="461.0" type="qcurve" smooth="yes"/>
      <point x="997.4742990654204" y="432.0" type="line" smooth="yes"/>
      <point x="997.4742990654204" y="223.56"/>
      <point x="743.2503738317757" y="-30.0"/>
    </contour>
  </outline>
</glyph>
<glyph name="psi" format="2">
  <advance width="1520.2130841121493"/>
  <unicode hex="03C8"/>
  <outline>
    <contour>
      <point x="525.0504672897197" y="-416.0" type="line"/>
      <point x="525.0504672897197" y="1400.0" type="line"/>
      <point x="995.16261682243" y="1400.0" type="line"/>
      <point x="995.16261682243" y="-416.0" type="line"/>
    </contour>
    <contour>
      <point x="480.3028037383178" y="-20.0" type="line"/>
      <point x="270.44299065420563" y="-10.0"/>
      <point x="29.200000000000003" y="237.0"/>
      <point x="29.200000000000003" y="480.0" type="qcurve" smooth="yes"/>
      <point x="29.200000000000003" y="916.0" type="line"/>
      <point x="495.0504672897196" y="916.0" type="line"/>
      <point x="495.0504672897196" y="640.4825870646766" type="line" smooth="yes"/>
      <point x="495.0504672897196" y="516.9601990049752"/>
      <point x="500.0504672897196" y="387.6616915422885"/>
      <point x="525.0504672897197" y="380.6268656716418" type="qcurve"/>
      <point x="995.16261682243" y="380.6268656716418" type="line"/>
      <point x="1023.16261682243" y="387.6616915422885"/>
      <point x="1028.16261682243" y="516.9601990049752"/>
      <point x="1025.16261682243" y="640.4825870646766" type="qcurve" smooth="yes"/>
      <point x="1025.16261682243" y="916.0" type="line"/>
      <point x="1491.0130841121493" y="916.0" type="line"/>
      <point x="1491.0130841121493" y="480.0" type="line" smooth="yes"/>
      <point x="1491.0130841121493" y="237.0"/>
      <point x="1249.770093457944" y="-10.0"/>
      <point x="1039.9102803738317" y="-20.0" type="qcurve"/>
    </contour>
  </outline>
</glyph>
<glyph name="Kaisymbol" format="2">
  <advance width="1107.8830566792208"/>
  <unicode hex="03CF"/>
  <outline>
    <contour>
      <point x="34.0" y="0.0" type="line"/>
      <point x="34.0" y="1456.0" type="line"/>
      <point x="524.3177570093458" y="1456.0" type="line"/>
      <point x="524.3177570093458" y="0.0" type="line"/>
    </contour>
    <contour>
      <point x="387.2145348026224" y="108.3909424838425" type="line"/>
      <point x="387.2145348026224" y="677.4904449714046" type="line"/>
      <point x="481.07969498302884" y="1456.0" type="line"/>
      <point x="1061.8186636908913" y="1456.0" type="line"/>
      <point x="760.7225554470638" y="713.7999256056169" type="line"/>
    </contour>
    <contour>
      <point x="523.7782117450133" y="139.3059933974985" type="line"/>
      <point x="507.25805551680844" y="699.1986330032082" type="line"/>
      <point x="810.2176965639094" y="1030.2360161807783" type="line"/>
      <point x="1099.7352954851908" y="94.26168224299064" type="line"/>
      <point x="854.3708095038825" y="-589.2897196261682" type="line"/>
      <point x="594.3669967917423" y="-257.48839912586595" type="line"/>
    </contour>
  </outline>
</glyph>
<glyph name="Ieukran" format="2">
  <advance width="1044.1490654205606"/>
  <unicode hex="0404"/>
  <guideline x="211.0" y="787.0" angle="90.0" identifier="mFTeE97JTj"/>
  <outline>
    <contour>
      <point x="535.9088785046729" y="-12.13084112149533" type="qcurve" smooth="yes"/>
      <point x="208.28271028037386" y="-12.13084112149533"/>
      <point x="25.75" y="376.6542056074766"/>
      <point x="25.75" y="730.411214953271" type="qcurve" smooth="yes"/>
      <point x="25.75" y="732.6915887850467" type="line" smooth="yes"/>
      <point x="25.75" y="1068.6915887850466"/>
      <point x="219.6471962616822" y="1464.5794392523355"/>
      <point x="535.9088785046729" y="1465.999999999999" type="qcurve" smooth="yes"/>
      <point x="852.1705607476636" y="1467.4205607476626"/>
      <point x="1010.9742990654204" y="1103.9054726368158"/>
      <point x="1020.2079439252336" y="848.0497512437811" type="qcurve" smooth="yes"/>
      <point x="1023.0490654205607" y="828.7230669084483" type="line"/>
      <point x="552.6191588785045" y="828.7230669084483" type="line"/>
      <point x="550.4883177570093" y="840.636815920398" type="line" smooth="yes"/>
      <point x="535.5724299065421" y="906.2797693774121"/>
      <point x="547.6191588785045" y="994.363184079602"/>
      <point x="536.6191588785047" y="994.363184079602" type="qcurve" smooth="yes"/>
      <point x="526.6191588785047" y="994.363184079602"/>
      <point x="521.6191588785047" y="858.8474450179011"/>
      <point x="521.6191588785047" y="715.2305760915051" type="qcurve" smooth="yes"/>
      <point x="521.6191588785047" y="752.8042497791417" type="line" smooth="yes"/>
      <point x="521.6191588785047" y="612.480913191054"/>
      <point x="526.6191588785047" y="465.34328358208955"/>
      <point x="536.6191588785047" y="465.34328358208955" type="qcurve" smooth="yes"/>
      <point x="553.7219626168223" y="465.34328358208955"/>
      <point x="554.5038940809969" y="553.5235504719394"/>
      <point x="550.1985981308412" y="620.5522388059701" type="qcurve" smooth="yes"/>
      <point x="551.6191588785045" y="641.2994838889664" type="line"/>
      <point x="1022.0490654205607" y="641.2994838889664" type="line"/>
      <point x="1019.9182242990655" y="614.1287022829777" type="line" smooth="yes"/>
      <point x="1013.5257009345794" y="340.3298925931092"/>
      <point x="863.535046728972" y="-12.13084112149533"/>
    </contour>
    <contour>
      <point x="289.66588785046724" y="538.5671641791045" type="line"/>
      <point x="289.66588785046724" y="941.1940298507462" type="line"/>
      <point x="548.6191588785045" y="941.1940298507462" type="line"/>
      <point x="548.6191588785045" y="538.5671641791045" type="line"/>
    </contour>
  </outline>
</glyph>
<glyph name="Lje" format="2">
  <advance width="1649.3738317757006"/>
  <unicode hex="0409"/>
  <outline>
    <contour>
      <point x="209.46417445482868" y="-10.0" type="qcurve" smooth="yes"/>
      <point x="147.68847352024923" y="-10.0"/>
      <point x="90.43613707165109" y="-0.9563862928348925"/>
      <point x="73.0" y="7.666666666666664" type="qcurve"/>
      <point x="73.0" y="171.66666666666666" type="line"/>
      <point x="76.0" y="163.66666666666666"/>
      <point x="82.33333333333333" y="158.0"/>
      <point x="100.9595015576324" y="158.0" type="qcurve" smooth="yes"/>
      <point x="102.33333333333333" y="158.0"/>
      <point x="113.33333333333333" y="356.0"/>
      <point x="116.33333333333333" y="595.0" type="qcurve" smooth="yes"/>
      <point x="125.0" y="1456.0" type="line"/>
      <point x="1107.3738317757009" y="1456.0" type="line"/>
      <point x="1107.3738317757009" y="407.07462686567163" type="line"/>
      <point x="1122.3738317757006" y="407.07462686567163" type="line" smooth="yes"/>
      <point x="1132.3738317757006" y="407.07462686567163"/>
      <point x="1137.3738317757006" y="453.98507462686564"/>
      <point x="1137.3738317757006" y="487.9950248756219" type="qcurve" smooth="yes"/>
      <point x="1137.3738317757006" y="522.0049751243781"/>
      <point x="1132.3738317757006" y="570.8457711442786"/>
      <point x="1122.3738317757006" y="567.8805970149253" type="qcurve" smooth="yes"/>
      <point x="868.214953271028" y="567.8805970149253" type="line"/>
      <point x="868.214953271028" y="930.4776119402985" type="line"/>
      <point x="1313.4392523364486" y="930.4776119402985" type="line" smooth="yes"/>
      <point x="1518.7850467289718" y="930.4776119402985"/>
      <point x="1633.3738317757006" y="674.6517412935324"/>
      <point x="1633.3738317757006" y="474.6517412935323" type="qcurve" smooth="yes"/>
      <point x="1633.3738317757006" y="274.6517412935323"/>
      <point x="1518.7850467289718" y="0.0"/>
      <point x="1313.4392523364486" y="0.0" type="qcurve" smooth="yes"/>
      <point x="618.4766355140187" y="0.0" type="line"/>
      <point x="618.4766355140187" y="1001.4825870646766" type="line"/>
      <point x="598.4766355140187" y="1001.4825870646766" type="line"/>
      <point x="590.809968847352" y="562.0" type="line" smooth="yes"/>
      <point x="574.497698423769" y="261.69456456037574"/>
      <point x="383.34267912772583" y="-10.0"/>
    </contour>
  </outline>
</glyph>
<glyph name="Nje" format="2">
  <advance width="1583.0841121495328"/>
  <unicode hex="040A"/>
  <outline>
    <contour>
      <point x="34.0" y="0.0" type="line"/>
      <point x="522.1869158878504" y="0.0" type="line"/>
      <point x="522.1869158878504" y="1456.0" type="line"/>
      <point x="34.0" y="1456.0" type="line"/>
    </contour>
    <contour>
      <point x="552.1869158878503" y="0.0" type="line"/>
      <point x="1276.271028037383" y="0.0" type="line" smooth="yes"/>
      <point x="1456.7570093457944" y="0.0"/>
      <point x="1567.0841121495328" y="278.8059701492537"/>
      <point x="1567.0841121495328" y="505.19900497512435" type="qcurve" smooth="yes"/>
      <point x="1567.0841121495328" y="731.592039800995"/>
      <point x="1456.7570093457944" y="1005.6567164179105"/>
      <point x="1276.271028037383" y="1005.6567164179105" type="qcurve" smooth="yes"/>
      <point x="857.1495327102803" y="1005.6567164179105" type="line"/>
      <point x="857.1495327102803" y="575.6019900497513" type="line"/>
      <point x="1056.0841121495328" y="575.6019900497513" type="line" smooth="yes"/>
      <point x="1066.0841121495328" y="575.6019900497513"/>
      <point x="1071.0841121495328" y="532.502487562189"/>
      <point x="1071.0841121495328" y="500.7512437810945" type="qcurve" smooth="yes"/>
      <point x="1071.0841121495328" y="468.2587064676617"/>
      <point x="1066.0841121495328" y="424.86567164179104"/>
      <point x="1056.0841121495328" y="424.1243781094527" type="qcurve" smooth="yes"/>
      <point x="1041.0841121495328" y="424.1243781094527" type="line"/>
      <point x="1041.0841121495328" y="1456.0" type="line"/>
      <point x="552.1869158878503" y="1456.0" type="line"/>
    </contour>
    <contour>
      <point x="270.95327102803736" y="535.5721393034826" type="line"/>
      <point x="806.6822429906542" y="535.5721393034826" type="line"/>
      <point x="806.6822429906542" y="987.1243781094528" type="line"/>
      <point x="270.95327102803736" y="987.1243781094528" type="line"/>
    </contour>
  </outline>
</glyph>
<glyph name="De" format="2">
  <advance width="1359.532710280374"/>
  <unicode hex="0414"/>
  <outline>
    <contour>
      <point x="952.1446505788813" y="-290.0" type="line"/>
      <point x="952.1446505788813" y="0.0" type="line"/>
      <point x="404.3880597014925" y="0.0" type="line"/>
      <point x="404.3880597014925" y="-290.0" type="line"/>
      <point x="10.0" y="-290.0" type="line"/>
      <point x="10.0" y="456.0" type="line"/>
      <point x="1346.5327102803737" y="456.0" type="line"/>
      <point x="1346.5327102803737" y="-290.0" type="line"/>
    </contour>
    <contour>
      <point x="196.0" y="1456.0" type="line"/>
      <point x="1166.5327102803737" y="1456.0" type="line"/>
      <point x="1166.5327102803737" y="79.0" type="line"/>
      <point x="676.214953271028" y="79.0" type="line"/>
      <point x="676.214953271028" y="1000.0" type="line"/>
      <point x="636.2000278978936" y="1000.0" type="line"/>
      <point x="649.214953271028" y="659.0" type="line" smooth="yes"/>
      <point x="647.9562468033663" y="446.2587064676617"/>
      <point x="642.214953271028" y="205.0"/>
      <point x="617.214953271028" y="79.0" type="qcurve"/>
      <point x="123.0" y="79.0" type="line"/>
      <point x="163.0" y="209.0"/>
      <point x="173.0" y="457.0"/>
      <point x="178.0" y="657.0" type="qcurve" smooth="yes"/>
    </contour>
  </outline>
</glyph>
<glyph name="Zhe" format="2">
  <advance width="1850.946110568652"/>
  <unicode hex="0416"/>
  <anchor x="923.5437996931231" y="1456.0" name="top"/>
  <anchor x="1596.9269772632165" y="0.7102803738317757" name="cy_descender"/>
  <outline>
    <contour>
      <point x="687.487724926768" y="0.0" type="line"/>
      <point x="687.487724926768" y="1456.0" type="line"/>
      <point x="1182.3288464220952" y="1456.0" type="line"/>
      <point x="1182.3288464220952" y="0.0" type="line"/>
    </contour>
    <contour>
      <point x="1228.192332728879" y="0.0" type="line"/>
      <point x="1181.6876598316826" y="686.1087087924863" type="line"/>
      <point x="1568.0053238480493" y="947.1190310131585" type="line"/>
      <point x="1786.8839215139258" y="0.0" type="line"/>
    </contour>
    <contour>
      <point x="934.9082856744316" y="899.8676709908402" type="line"/>
      <point x="1156.6970056260752" y="899.8676709908402" type="line"/>
      <point x="1192.010345468917" y="1456.0" type="line"/>
      <point x="1748.6571116380712" y="1456.0" type="line"/>
      <point x="1495.8976844748222" y="549.110940623983" type="line"/>
      <point x="934.9082856744316" y="549.110940623983" type="line"/>
    </contour>
    <contour>
      <point x="79.62935323383084" y="0.0" type="line"/>
      <point x="276.4242107220905" y="946.9639652206258" type="line"/>
      <point x="660.0558190356627" y="684.6881480448227" type="line"/>
      <point x="640.451783140373" y="0.0" type="line"/>
    </contour>
    <contour>
      <point x="934.9082856744316" y="899.8676709908402" type="line"/>
      <point x="934.9082856744316" y="549.110940623983" type="line"/>
      <point x="354.34116799181663" y="549.110940623983" type="line"/>
      <point x="113.31536244013576" y="1456.0" type="line"/>
      <point x="669.96212860929" y="1456.0" type="line"/>
      <point x="692.4904217231599" y="899.8676709908402" type="line"/>
    </contour>
  </outline>
</glyph>
<glyph name="El" format="2">
  <advance width="1058.4859813084113"/>
  <unicode hex="041B"/>
  <outline>
    <contour>
      <point x="62.0" y="1456.0" type="line"/>
      <point x="1024.4859813084113" y="1456.0" type="line"/>
      <point x="1024.4859813084113" y="0.0" type="line"/>
      <point x="529.9065420560746" y="0.0" type="line"/>
      <point x="529.9065420560746" y="1000.0" type="line"/>
      <point x="493.59808434463196" y="1000.0" type="line"/>
      <point x="501.5732087227414" y="547.1741293532339" type="line" smooth="yes"/>
      <point x="497.9249546659227" y="241.00339424373462"/>
      <point x="313.99376947040497" y="-10.0"/>
      <point x="148.63862928348908" y="-10.710280373831775" type="qcurve" smooth="yes"/>
      <point x="63.42367601246105" y="-10.0"/>
      <point x="23.8411214953271" y="-1.5794392523364493"/>
      <point x="10.0" y="7.0" type="qcurve"/>
      <point x="10.0" y="467.51741293532336" type="line"/>
      <point x="10.158878504672899" y="460.22769330915514"/>
      <point x="23.607616124982563" y="453.8071325614916"/>
      <point x="34.79285813921048" y="453.8071325614916" type="qcurve" smooth="yes"/>
      <point x="31.594876086855436" y="453.8071325614916"/>
      <point x="60.10680243641604" y="552.5078346584833"/>
      <point x="60.82089552238806" y="743.2587064676617" type="qcurve" smooth="yes"/>
    </contour>
  </outline>
</glyph>
<glyph name="Che" format="2">
  <advance width="1093.3130841121495"/>
  <unicode hex="0427"/>
  <guideline x="1123.0" y="741.0" angle="90.0" identifier="nfCxFSb4p1"/>
  <anchor x="960.7616822429907" y="0.0" name="cy_descender"/>
  <outline>
    <contour>
      <point x="531.1822429906542" y="1254.3880597014925" type="line" smooth="yes"/>
      <point x="531.1822429906542" y="1076.3880597014925"/>
      <point x="536.1822429906542" y="955.6777793276608"/>
      <point x="546.1822429906542" y="956.3880597014925" type="qcurve" smooth="yes"/>
      <point x="591.7788312349369" y="957.0983400753244"/>
      <point x="702.5107474962235" y="986.2243353673366"/>
      <point x="816.9953271028037" y="1043.556284000558" type="qcurve"/>
      <point x="816.9953271028037" y="587.556284000558" type="line"/>
      <point x="711.902894765712" y="530.6727630054054"/>
      <point x="555.5670702718584" y="500.3880597014925"/>
      <point x="485.59345794392516" y="500.3880597014925" type="qcurve" smooth="yes"/>
      <point x="321.0607476635514" y="500.3880597014925"/>
      <point x="33.051401869158866" y="698.2385269912122"/>
      <point x="31.630841121495337" y="985.6684335332683" type="qcurve" smooth="yes"/>
      <point x="29.5" y="1456.0" type="line"/>
      <point x="531.1822429906542" y="1456.0" type="line"/>
    </contour>
    <contour>
      <point x="1059.3130841121495" y="1456.0" type="line"/>
      <point x="1059.3130841121495" y="0.0" type="line"/>
      <point x="561.1822429906542" y="0.0" type="line"/>
      <point x="561.1822429906542" y="1456.0" type="line"/>
    </contour>
  </outline>
</glyph>
<glyph name="Sha" format="2">
  <advance width="1594.6915887850464"/>
  <unicode hex="0428"/>
  <anchor x="1467.9813084112147" y="0.0" name="cy_descender"/>
  <outline>
    <contour>
      <point x="34.0" y="1456.0" type="line"/>
      <point x="522.8971962616822" y="1456.0" type="line"/>
      <point x="522.8971962616822" y="456.0" type="line"/>
      <point x="552.8971962616822" y="456.0" type="line"/>
      <point x="552.8971962616822" y="1456.0" type="line"/>
      <point x="1041.7943925233644" y="1456.0" type="line"/>
      <point x="1041.7943925233644" y="456.0" type="line"/>
      <point x="1071.7943925233644" y="456.0" type="line"/>
      <point x="1071.7943925233644" y="1456.0" type="line"/>
      <point x="1560.6915887850464" y="1456.0" type="line"/>
      <point x="1560.6915887850464" y="0.0" type="line"/>
      <point x="34.0" y="0.0" type="line"/>
    </contour>
  </outline>
</glyph>
<glyph name="be" format="2">
  <advance width="1022.2242990654204"/>
  <unicode hex="0431"/>
  <outline>
    <contour>
      <point x="496.8621495327102" y="472.78905472636814" type="qcurve" smooth="yes"/>
      <point x="496.8621495327102" y="463.76915422885577" type="line" smooth="yes"/>
      <point x="496.8621495327102" y="439.49930348258704"/>
      <point x="502.5421495327102" y="408.88059701492534"/>
      <point x="511.8621495327102" y="408.88059701492534" type="qcurve" smooth="yes"/>
      <point x="509.6221495327102" y="408.88059701492534"/>
      <point x="526.8621495327102" y="437.459303482587"/>
      <point x="526.8621495327102" y="463.76915422885577" type="qcurve" smooth="yes"/>
      <point x="526.8621495327102" y="472.78905472636814" type="line" smooth="yes"/>
      <point x="526.8621495327102" y="499.09890547263683"/>
      <point x="509.6221495327102" y="526.9363184079602"/>
      <point x="511.8621495327102" y="526.9363184079602" type="qcurve" smooth="yes"/>
      <point x="514.1021495327102" y="526.9363184079602"/>
      <point x="496.8621495327102" y="499.09890547263683"/>
    </contour>
    <contour>
      <point x="621.0584112149533" y="933.2" type="qcurve" smooth="yes"/>
      <point x="826.3585981308412" y="933.2"/>
      <point x="1000.9742990654204" y="669.52"/>
      <point x="1000.9742990654204" y="467.6" type="qcurve" smooth="yes"/>
      <point x="1000.9742990654204" y="435.6" type="line" smooth="yes"/>
      <point x="1000.9742990654204" y="231.76"/>
      <point x="780.931308411215" y="-30.0"/>
      <point x="511.8621495327102" y="-30.0" type="qcurve" smooth="yes"/>
      <point x="279.1331775700935" y="-30.0"/>
      <point x="22.75" y="273.2"/>
      <point x="22.75" y="550.6" type="qcurve" smooth="yes"/>
      <point x="22.75" y="576.6" type="line" smooth="yes"/>
      <point x="22.75" y="944.6"/>
      <point x="226.60414051239127" y="1421.7464546426745"/>
      <point x="383.56364207002366" y="1467.0646766169154" type="qcurve" smooth="yes"/>
      <point x="333.6810174758475" y="1463.9465615339718"/>
      <point x="358.7646853819134" y="1522.796261335568"/>
      <point x="369.7079206769888" y="1536.0" type="qcurve"/>
      <point x="690.8621495327102" y="1536.0" type="line"/>
      <point x="688.0163783884316" y="1286.2707490584462"/>
      <point x="529.6432440600734" y="1024.698377272516"/>
      <point x="460.1606569953968" y="1015.4744966755011" type="qcurve" smooth="yes"/>
      <point x="481.58214364647387" y="1016.9194290404871"/>
      <point x="436.2237360190759" y="841.2138343731589"/>
      <point x="448.8621495327102" y="733.0" type="qcurve"/>
      <point x="459.8621495327102" y="733.0" type="line"/>
      <point x="454.9821495327102" y="822.56"/>
      <point x="546.8905607476636" y="933.2"/>
    </contour>
  </outline>
</glyph>
<glyph name="ghe" format="2">
  <advance width="613.8121495327102"/>
  <unicode hex="0433"/>
  <anchor x="174.7" y="916.0" name="top"/>
  <outline>
    <contour>
      <point x="30.700000000000003" y="916.0" type="line"/>
      <point x="600.8121495327102" y="916.0" type="line"/>
      <point x="600.8121495327102" y="476.7064676616915" type="line"/>
      <point x="500.8121495327102" y="476.7064676616915" type="line"/>
      <point x="500.8121495327102" y="0.0" type="line"/>
      <point x="30.700000000000003" y="0.0" type="line"/>
    </contour>
  </outline>
</glyph>
<glyph name="zhe" format="2">
  <advance width="1875.8191263309618"/>
  <unicode hex="0436"/>
  <anchor x="925.931915190403" y="916.0" name="top"/>
  <anchor x="1563.8197656576929" y="0.0" name="cy_descender"/>
  <outline>
    <contour>
      <point x="1157.69827033059" y="0.0" type="line"/>
      <point x="693.5861207978797" y="0.0" type="line"/>
      <point x="693.5861207978797" y="916.0" type="line"/>
      <point x="1157.69827033059" y="916.0" type="line"/>
    </contour>
    <contour>
      <point x="1228.69827033059" y="0.0" type="line"/>
      <point x="1254.3121332589392" y="294.9569781931464" type="line"/>
      <point x="1621.1826005486585" y="441.3056074766355" type="line"/>
      <point x="1737.3451550657928" y="0.0" type="line"/>
    </contour>
    <contour>
      <point x="925.6421955642348" y="616.1293532338309" type="line"/>
      <point x="1365.3435765099737" y="616.1293532338309" type="line"/>
      <point x="1346.653029246292" y="916.0" type="line"/>
      <point x="1767.2271948667876" y="916.0" type="line"/>
      <point x="1567.5953540707674" y="322.87064676616916" type="line"/>
      <point x="925.6421955642348" y="322.87064676616916" type="line"/>
    </contour>
    <contour>
      <point x="622.5861207978797" y="0.0" type="line"/>
      <point x="133.47397126516944" y="0.0" type="line"/>
      <point x="233.6540024178175" y="456.578660436137" type="line"/>
      <point x="592.7105756265402" y="294.6022429906542" type="line"/>
    </contour>
    <contour>
      <point x="925.6421955642348" y="616.1293532338309" type="line"/>
      <point x="925.6421955642348" y="322.87064676616916" type="line"/>
      <point x="275.87514297670526" y="322.87064676616916" type="line"/>
      <point x="76.24330218068535" y="916.0" type="line"/>
      <point x="504.6313618821778" y="916.0" type="line"/>
      <point x="486.68210815083455" y="616.1293532338309" type="line"/>
    </contour>
  </outline>
</glyph>
<glyph name="ka" format="2">
  <advance width="1067.1742990654204"/>
  <unicode hex="043A"/>
  <guideline x="241.0" y="553.0" angle="90.0" identifier="lmgRx0QBdK"/>
  <anchor x="484.01775700934576" y="916.0" name="top"/>
  <anchor x="899.1205607476636" y="0.0" name="cy_descender"/>
  <outline>
    <contour>
      <point x="579.2250848560933" y="0.0" type="line"/>
      <point x="522.0811596224485" y="417.49532710280374" type="line"/>
      <point x="912.3933091551588" y="536.4953271028037" type="line"/>
      <point x="1068.3372343888036" y="0.0" type="line"/>
    </contour>
    <contour>
      <point x="268.7560747663551" y="586.4776119402985" type="line"/>
      <point x="674.5470544473892" y="586.4776119402985" type="line"/>
      <point x="668.458497233459" y="916.0" type="line"/>
      <point x="1104.2594922583346" y="916.0" type="line"/>
      <point x="858.6674524573394" y="293.21890547263683" type="line"/>
      <point x="268.7560747663551" y="293.21890547263683" type="line"/>
    </contour>
    <contour>
      <point x="500.8121495327102" y="916.0" type="line"/>
      <point x="500.8121495327102" y="0.0" type="line"/>
      <point x="30.700000000000003" y="0.0" type="line"/>
      <point x="30.700000000000003" y="916.0" type="line"/>
    </contour>
  </outline>
</glyph>
<glyph name="el" format="2">
  <advance width="1079.6345794392523"/>
  <unicode hex="043B"/>
  <outline>
    <contour>
      <point x="535.4791463244526" y="489.30845771144277" type="line"/>
      <point x="542.0811363742038" y="469.6" type="line" smooth="yes"/>
      <point x="536.3476040358953" y="197.28"/>
      <point x="404.8971962616822" y="-22.0"/>
      <point x="209.76635514018687" y="-22.0" type="qcurve" smooth="yes"/>
      <point x="154.25233644859813" y="-22.0"/>
      <point x="47.54205607476635" y="-12.289719626168225"/>
      <point x="10.0" y="-4.0" type="qcurve"/>
      <point x="10.0" y="374.3880597014925" type="line"/>
      <point x="15.0" y="367.3880597014925"/>
      <point x="25.0" y="361.3880597014925"/>
      <point x="33.0" y="361.3880597014925" type="qcurve" smooth="yes"/>
      <point x="61.0" y="361.3880597014925"/>
      <point x="86.75041614358115" y="502.9880597014925"/>
      <point x="96.15422885572139" y="643.8587064676617" type="qcurve" smooth="yes"/>
      <point x="99.0" y="916.0" type="line"/>
      <point x="1048.9345794392523" y="916.0" type="line"/>
      <point x="1048.9345794392523" y="0.0" type="line"/>
      <point x="578.8224299065421" y="0.0" type="line"/>
      <point x="578.8224299065421" y="489.30845771144277" type="line"/>
    </contour>
  </outline>
</glyph>
<glyph name="tse" format="2">
  <advance width="1177.4242990654204"/>
  <unicode hex="0446"/>
  <outline>
    <contour>
      <point x="797.4118612544752" y="-270.0" type="line"/>
      <point x="797.4118612544752" y="0.0" type="line"/>
      <point x="30.700000000000003" y="0.0" type="line"/>
      <point x="30.700000000000003" y="916.0" type="line"/>
      <point x="500.8121495327102" y="916.0" type="line"/>
      <point x="500.8121495327102" y="437.81094527363183" type="line"/>
      <point x="530.8121495327102" y="437.81094527363183" type="line"/>
      <point x="530.8121495327102" y="916.0" type="line"/>
      <point x="1000.9242990654204" y="916.0" type="line"/>
      <point x="1000.9242990654204" y="437.81094527363183" type="line"/>
      <point x="1155.9242990654204" y="437.81094527363183" type="line"/>
      <point x="1155.9242990654204" y="-270.0" type="line"/>
    </contour>
  </outline>
</glyph>
<glyph name="hard" format="2">
  <advance width="1118.7242990654204"/>
  <unicode hex="044A"/>
  <outline>
    <contour>
      <point x="131.0" y="0.0" type="line"/>
      <point x="131.0" y="476.7064676616915" type="line"/>
      <point x="13.0" y="476.7064676616915" type="line"/>
      <point x="13.0" y="916.0" type="line"/>
      <point x="601.1121495327102" y="916.0" type="line"/>
      <point x="601.1121495327102" y="345.14925373134326" type="line"/>
      <point x="616.1121495327102" y="345.14925373134326" type="line" smooth="yes"/>
      <point x="615.2321495327102" y="345.14925373134326"/>
      <point x="631.1121495327102" y="355.3030845771144"/>
      <point x="631.1121495327102" y="373.4318407960199" type="qcurve" smooth="yes"/>
      <point x="631.1121495327102" y="391.9205970149254"/>
      <point x="615.2321495327102" y="401.9783084577114"/>
      <point x="616.1121495327102" y="399.9383084577114" type="qcurve" smooth="yes"/>
      <point x="369.0560747663551" y="399.9383084577114" type="line"/>
      <point x="369.0560747663551" y="748.7940298507463" type="line"/>
      <point x="837.0093457943926" y="748.7940298507463" type="line" smooth="yes"/>
      <point x="966.2314018691587" y="748.7940298507463"/>
      <point x="1101.2242990654204" y="551.4409950248756"/>
      <point x="1101.2242990654204" y="376.3970149253731" type="qcurve" smooth="yes"/>
      <point x="1101.2242990654204" y="199.99303482587064"/>
      <point x="966.2314018691587" y="0.0"/>
      <point x="837.0093457943926" y="0.0" type="qcurve" smooth="yes"/>
    </contour>
  </outline>
</glyph>
<glyph name="ecyr" format="2">
  <advance width="994.5112149532712"/>
  <unicode hex="044D"/>
  <guideline x="889.0" y="493.0" angle="90.0" identifier="9ss4WcbEUf"/>
  <anchor x="494.9901869158879" y="916.0" name="top"/>
  <outline>
    <contour>
      <point x="973.2612149532712" y="442.0" type="line" smooth="yes"/>
      <point x="973.2612149532712" y="217.84"/>
      <point x="740.3184112149531" y="-30.0"/>
      <point x="481.6257009345794" y="-30.0" type="qcurve" smooth="yes"/>
      <point x="237.94383177570091" y="-30.0"/>
      <point x="18.85" y="226.8067661691542"/>
      <point x="18.85" y="420.1243781094527" type="qcurve" smooth="yes"/>
      <point x="18.85" y="426.60696517412936" type="line"/>
      <point x="475.14906542056076" y="426.60696517412936" type="line"/>
      <point x="475.14906542056076" y="424.5721393034826" type="line" smooth="yes"/>
      <point x="475.14906542056076" y="397.8278606965174"/>
      <point x="487.6290654205608" y="382.19402985074623"/>
      <point x="490.14906542056076" y="382.19402985074623" type="qcurve" smooth="yes"/>
      <point x="500.82906542056077" y="382.19402985074623"/>
      <point x="505.14906542056076" y="410.2921393034826"/>
      <point x="505.14906542056076" y="448.30845771144277" type="qcurve" smooth="yes"/>
      <point x="505.14906542056076" y="470.7960199004975" type="line" smooth="yes"/>
      <point x="505.14906542056076" y="508.2039800995025"/>
      <point x="504.8690654205608" y="533.0646766169154"/>
      <point x="492.14906542056076" y="533.0646766169154" type="qcurve" smooth="yes"/>
      <point x="491.6290654205608" y="533.0646766169154"/>
      <point x="479.14906542056076" y="518.6947263681592"/>
      <point x="479.14906542056076" y="490.6865671641791" type="qcurve" smooth="yes"/>
      <point x="479.14906542056076" y="489.3930348258707" type="line"/>
      <point x="25.691121495327103" y="489.3930348258707" type="line"/>
      <point x="25.691121495327103" y="495.1343283582089" type="line" smooth="yes"/>
      <point x="25.691121495327103" y="689.1932338308458"/>
      <point x="244.78495327102803" y="946.0"/>
      <point x="488.46682242990653" y="946.0" type="qcurve" smooth="yes"/>
      <point x="743.7389719626169" y="946.0"/>
      <point x="973.2612149532712" y="697.84"/>
      <point x="973.2612149532712" y="474.0" type="qcurve" smooth="yes"/>
    </contour>
    <contour>
      <point x="737.2051401869159" y="668.0199004975125" type="line"/>
      <point x="737.2051401869159" y="270.9800995024876" type="line"/>
      <point x="384.14906542056076" y="270.9800995024876" type="line"/>
      <point x="384.14906542056076" y="668.0199004975125" type="line"/>
    </contour>
  </outline>
</glyph>
<glyph name="ya" format="2">
  <advance width="1056.1742990654204"/>
  <unicode hex="044F"/>
  <anchor x="563.1752336448599" y="916.0" name="top"/>
  <outline>
    <contour>
      <point x="21.25" y="0.0" type="line"/>
      <point x="146.25" y="386.0" type="line"/>
      <point x="615.3621495327102" y="369.0" type="line"/>
      <point x="509.3621495327102" y="0.0" type="line"/>
    </contour>
    <contour>
      <point x="55.25" y="548.7661691542289" type="qcurve" smooth="yes"/>
      <point x="55.25" y="718.4979104477612"/>
      <point x="194.53261682242987" y="913.28"/>
      <point x="318.04439252336454" y="916.0" type="qcurve" smooth="yes"/>
      <point x="1025.4742990654204" y="916.0" type="line"/>
      <point x="1025.4742990654204" y="0.0" type="line"/>
      <point x="555.3621495327102" y="0.0" type="line"/>
      <point x="555.3621495327102" y="567.1442786069651" type="line"/>
      <point x="540.3621495327102" y="567.1442786069651" type="line" smooth="yes"/>
      <point x="541.5621495327102" y="567.1442786069651"/>
      <point x="525.3621495327102" y="559.7947266856844"/>
      <point x="525.3621495327102" y="548.0248756218905" type="qcurve" smooth="yes"/>
      <point x="525.3621495327102" y="535.6997511373139"/>
      <point x="541.2421495327102" y="530.681592039801"/>
      <point x="540.3621495327102" y="530.681592039801" type="qcurve" smooth="yes"/>
      <point x="787.4182242990655" y="530.681592039801" type="line"/>
      <point x="787.4182242990655" y="198.13432835820896" type="line"/>
      <point x="558.3621495327102" y="198.13432835820896" type="line"/>
      <point x="318.04439252336454" y="201.23880597014926" type="line"/>
      <point x="194.53261682242987" y="201.23880597014926"/>
      <point x="55.25" y="385.1570149253732"/>
    </contour>
  </outline>
</glyph>
<glyph name="Kaverticalstrokecyr" format="2">
  <advance width="1607.9041009903751"/>
  <unicode hex="049C"/>
  <guideline x="637.0" y="675.0" angle="90.0" identifier="5CJVZV5P4J"/>
  <outline>
    <contour>
      <point x="34.0" y="0.0" type="line"/>
      <point x="34.0" y="1456.0" type="line"/>
      <point x="530.0" y="1456.0" type="line"/>
      <point x="530.0" y="0.0" type="line"/>
    </contour>
    <contour>
      <point x="1123.481006184033" y="0.0" type="line"/>
      <point x="1078.2108150834613" y="718.1984005207606" type="line"/>
      <point x="1428.645324777979" y="914.1700376621565" type="line"/>
      <point x="1607.5931557167432" y="0.0" type="line"/>
    </contour>
    <contour>
      <point x="761.3830845771145" y="881.8905472636816" type="line"/>
      <point x="1055.3479797275306" y="881.8905472636816" type="line"/>
      <point x="1070.5934346956803" y="1456.0" type="line"/>
      <point x="1597.5884595713023" y="1456.0" type="line"/>
      <point x="1405.3579299762869" y="555.6169154228855" type="line"/>
      <point x="761.3830845771145" y="555.6169154228855" type="line"/>
    </contour>
    <contour>
      <point x="560.0" y="300.0" type="line"/>
      <point x="560.0" y="1156.0" type="line"/>
      <point x="952.3880597014925" y="1156.0" type="line"/>
      <point x="952.3880597014925" y="300.0" type="line"/>
    </contour>
  </outline>
</glyph>
<glyph name="kabashkircyr" format="2">
  <advance width="1153.699853536058"/>
  <unicode hex="04A1"/>
  <outline>
    <contour>
      <point x="678.7837913237549" y="0.0" type="line"/>
      <point x="631.5837913237549" y="404.0" type="line"/>
      <point x="1021.1546473241268" y="523.0" type="line"/>
      <point x="1167.154647324127" y="0.0" type="line"/>
    </contour>
    <contour>
      <point x="366.21348770167845" y="586.4776119402985" type="line"/>
      <point x="793.9315850653275" y="586.4776119402985" type="line"/>
      <point x="790.066908448412" y="916.0" type="line"/>
      <point x="1219.196261682243" y="916.0" type="line"/>
      <point x="978.7932766076161" y="293.21890547263683" type="line"/>
      <point x="366.21348770167845" y="293.21890547263683" type="line"/>
    </contour>
    <contour>
      <point x="601.1121495327102" y="916.0" type="line"/>
      <point x="601.1121495327102" y="0.0" type="line"/>
      <point x="131.0" y="0.0" type="line"/>
      <point x="131.0" y="476.7064676616915" type="line"/>
      <point x="13.0" y="476.7064676616915" type="line"/>
      <point x="13.0" y="916.0" type="line"/>
    </contour>
  </outline>
</glyph>
<glyph name="ustraight" format="2">
  <advance width="705.1121495327102"/>
  <unicode hex="04AF"/>
  <outline>
    <contour>
      <point x="120.5" y="-416.0" type="line"/>
      <point x="120.5" y="0.0" type="line"/>
      <point x="8.5" y="916.0" type="line"/>
      <point x="472.61214953271025" y="916.0" type="line"/>
      <point x="492.6121495327102" y="275.4" type="line" smooth="yes"/>
      <point x="495.6521495327102" y="234.76"/>
      <point x="496.6121495327102" y="165.4"/>
      <point x="497.6121495327102" y="145.4" type="qcurve"/>
      <point x="503.6121495327102" y="145.4" type="line"/>
      <point x="503.6121495327102" y="165.4"/>
      <point x="504.4435514018692" y="233.3697196261682"/>
      <point x="504.6121495327102" y="275.4" type="qcurve" smooth="yes"/>
      <point x="520.6121495327102" y="916.0" type="line"/>
      <point x="696.6121495327102" y="916.0" type="line"/>
      <point x="590.6121495327102" y="0.0" type="line"/>
      <point x="590.6121495327102" y="-416.0" type="line"/>
    </contour>
  </outline>
</glyph>
<glyph name="Germandbls" format="2">
  <advance width="1550.286448598131"/>
  <unicode hex="1E9E"/>
  <outline>
    <contour>
      <point x="40.45" y="1120.8557213930349" type="line" smooth="yes"/>
      <point x="40.45" y="1267.0"/>
      <point x="397.5621495327102" y="1510.0"/>
      <point x="666.6182242990656" y="1510.0" type="qcurve" smooth="yes"/>
      <point x="940.6046473241269" y="1510.0"/>
      <point x="1306.7864485981308" y="1261.7512437810944"/>
      <point x="1306.7864485981308" y="958.6019900497513" type="qcurve" smooth="yes"/>
      <point x="1306.7864485981308" y="914.4228855721393"/>
      <point x="1300.7864485981308" y="856.5522388059701"/>
      <point x="1299.7864485981308" y="837.7562189054727" type="qcurve" smooth="yes"/>
      <point x="1298.7864485981308" y="821.5124378109452"/>
      <point x="1295.7864485981308" y="803.1641791044776"/>
      <point x="1295.7864485981308" y="796.5074626865671" type="qcurve" smooth="yes"/>
      <point x="1295.7864485981308" y="789.8507462686567"/>
      <point x="1317.7864485981308" y="747.5721393034826"/>
      <point x="1352.7864485981308" y="754.5323383084577" type="qcurve" smooth="yes"/>
      <point x="1451.9058515832057" y="703.4925373134329"/>
      <point x="1529.786448598131" y="549.7512437810946"/>
      <point x="1529.786448598131" y="336.0" type="qcurve" smooth="yes"/>
      <point x="1529.786448598131" y="190.0"/>
      <point x="1306.7303738317758" y="-30.0"/>
      <point x="1044.6742990654204" y="-30.0" type="qcurve" smooth="yes"/>
      <point x="740.8968312642397" y="-30.0"/>
      <point x="531.5621495327102" y="235.02487562189054"/>
      <point x="531.5621495327102" y="575.955223880597" type="qcurve" smooth="yes"/>
      <point x="531.5621495327102" y="583.5074626865671" type="line"/>
      <point x="1018.6742990654204" y="583.5074626865671" type="line"/>
      <point x="1018.6742990654204" y="575.955223880597" type="line" smooth="yes"/>
      <point x="1018.6742990654204" y="518.2089552238806"/>
      <point x="1023.6742990654204" y="458.9452736318408"/>
      <point x="1033.6742990654204" y="458.9452736318408" type="qcurve" smooth="yes"/>
      <point x="1043.6742990654204" y="458.9452736318408"/>
      <point x="1048.6742990654204" y="519.726368159204"/>
      <point x="1048.6742990654204" y="572.4029850746268" type="qcurve" smooth="yes"/>
      <point x="1048.6742990654204" y="599.7213930348258"/>
      <point x="996.6742990654204" y="611.3830845771145"/>
      <point x="931.6742990654204" y="661.8358208955224" type="qcurve" smooth="yes"/>
      <point x="877.6742990654204" y="685.4278606965174"/>
      <point x="820.6742990654204" y="731.8308457711443"/>
      <point x="820.6742990654204" y="760.5771144278607" type="qcurve" smooth="yes"/>
      <point x="820.6742990654204" y="789.0995024875622"/>
      <point x="820.6742990654204" y="783.363184079602"/>
      <point x="826.6742990654204" y="869.1940298507463" type="qcurve" smooth="yes"/>
      <point x="830.6742990654204" y="924.4378109452737"/>
      <point x="830.6742990654204" y="927.3731343283582"/>
      <point x="830.6742990654204" y="952.4975124378109" type="qcurve" smooth="yes"/>
      <point x="830.6742990654204" y="976.363184079602"/>
      <point x="825.6742990654204" y="1004.039800995025"/>
      <point x="672.6182242990656" y="1004.039800995025" type="qcurve" smooth="yes"/>
      <point x="521.5621495327102" y="1004.039800995025"/>
      <point x="516.5621495327102" y="938.5472636815921"/>
      <point x="516.5621495327102" y="868.4676616915423" type="qcurve" smooth="yes"/>
      <point x="516.5621495327102" y="355.0" type="line" smooth="yes"/>
      <point x="516.5621495327102" y="184.0"/>
      <point x="391.5341121495327" y="-16.0"/>
      <point x="43.45" y="-16.0" type="qcurve" smooth="yes"/>
      <point x="33.45" y="-16.0"/>
      <point x="20.45" y="-14.0"/>
      <point x="12.45" y="-12.0" type="qcurve"/>
      <point x="10.45" y="470.7412935323383" type="line"/>
      <point x="14.45" y="468.4825870646766"/>
      <point x="19.45" y="467.2238805970149"/>
      <point x="23.45" y="467.2238805970149" type="qcurve" smooth="yes"/>
      <point x="35.45" y="467.2238805970149"/>
      <point x="40.45" y="538.278606965174"/>
      <point x="40.45" y="604.0746268656717" type="qcurve" smooth="yes"/>
    </contour>
  </outline>
</glyph>
<glyph name="quoteright" format="2">
  <advance width="519.0121495327102"/>
  <unicode hex="2019"/>
  <outline>
    <contour>
      <point x="496.7121495327102" y="1456.0" type="line"/>
      <point x="496.7121495327102" y="1221.4579439252336" type="line" smooth="yes"/>
      <point x="496.7121495327102" y="1081.7383177570093"/>
      <point x="260.1046728971963" y="896.2056074766356"/>
      <point x="39.60000000000001" y="859.4579439252336" type="qcurve"/>
      <point x="-66.39999999999999" y="932.4579439252336" type="line"/>
      <point x="-19.39999999999999" y="998.4579439252336"/>
      <point x="28.60000000000001" y="1137.4579439252336"/>
      <point x="28.60000000000001" y="1218.4579439252336" type="qcurve" smooth="yes"/>
      <point x="28.60000000000001" y="1456.0" type="line"/>
    </contour>
  </outline>
</glyph>
<glyph name="quotedblright" format="2">
  <advance width="1017.1242990654204"/>
  <unicode hex="201D"/>
  <outline>
    <contour>
      <point x="496.7121495327102" y="1456.0" type="line"/>
      <point x="496.7121495327102" y="1221.4579439252336" type="line" smooth="yes"/>
      <point x="496.7121495327102" y="1110.1495327102805"/>
      <point x="207.54392523364487" y="916.803738317757"/>
      <point x="39.60000000000001" y="859.4579439252336" type="qcurve"/>
      <point x="-66.39999999999999" y="932.4579439252336" type="line"/>
      <point x="-19.39999999999999" y="998.4579439252336"/>
      <point x="28.60000000000001" y="1137.4579439252336"/>
      <point x="28.60000000000001" y="1218.4579439252336" type="qcurve" smooth="yes"/>
      <point x="28.60000000000001" y="1456.0" type="line"/>
    </contour>
    <contour>
      <point x="994.8242990654204" y="1456.0" type="line"/>
      <point x="994.8242990654204" y="1221.4579439252336" type="line" smooth="yes"/>
      <point x="994.8242990654204" y="1131.4579439252336"/>
      <point x="683.6373831775701" y="905.4392523364486"/>
      <point x="537.7121495327102" y="859.4579439252336" type="qcurve"/>
      <point x="431.7121495327102" y="932.4579439252336" type="line"/>
      <point x="478.7121495327102" y="998.4579439252336"/>
      <point x="526.7121495327102" y="1137.4579439252336"/>
      <point x="526.7121495327102" y="1218.4579439252336" type="qcurve" smooth="yes"/>
      <point x="526.7121495327102" y="1456.0" type="line"/>
    </contour>
  </outline>
</glyph>
<glyph name="dagger" format="2">
  <advance width="781.3224299065421"/>
  <unicode hex="2020"/>
  <outline>
    <contour>
      <point x="19.75" y="852.0" type="line"/>
      <point x="19.75" y="1025.0" type="line"/>
      <point x="760.8621495327102" y="1025.0" type="line"/>
      <point x="760.8621495327102" y="852.0" type="line"/>
    </contour>
    <contour>
      <point x="148.75" y="8.0" type="line"/>
      <point x="169.75" y="748.0" type="line"/>
      <point x="169.75" y="905.0" type="line"/>
      <point x="152.75" y="1508.0" type="line"/>
      <point x="627.8621495327102" y="1508.0" type="line"/>
      <point x="610.8621495327102" y="905.0" type="line"/>
      <point x="610.8621495327102" y="748.0" type="line"/>
      <point x="631.8621495327102" y="8.0" type="line"/>
      <point x="627.8621495327102" y="-117.73831775700936" type="line"/>
      <point x="414.22663551401865" y="-410.7383177570093"/>
      <point x="344.6565420560747" y="-411.02803738317755"/>
      <point x="152.75" y="-117.73831775700936" type="qcurve"/>
    </contour>
  </outline>
</glyph>
<glyph name="daggerdbl" format="2">
  <advance width="781.3224299065421"/>
  <unicode hex="2021"/>
  <outline>
    <contour>
      <point x="19.75" y="852.0" type="line"/>
      <point x="19.75" y="1025.0" type="line"/>
      <point x="760.8621495327102" y="1025.0" type="line"/>
      <point x="760.8621495327102" y="852.0" type="line"/>
    </contour>
    <contour>
      <point x="19.75" y="33.0" type="line"/>
      <point x="19.75" y="206.0" type="line"/>
      <point x="760.8621495327102" y="206.0" type="line"/>
      <point x="760.8621495327102" y="33.0" type="line"/>
    </contour>
    <contour>
      <point x="152.75" y="-451.0" type="line"/>
      <point x="169.75" y="152.0" type="line"/>
      <point x="154.75" y="536.0" type="line"/>
      <point x="169.75" y="905.0" type="line"/>
      <point x="152.75" y="1508.0" type="line"/>
      <point x="627.8621495327102" y="1508.0" type="line"/>
      <point x="610.8621495327102" y="905.0" type="line"/>
      <point x="625.8621495327102" y="534.0" type="line"/>
      <point x="610.8621495327102" y="152.0" type="line"/>
      <point x="627.8621495327102" y="-451.0" type="line"/>
    </contour>
  </outline>
</glyph>
<glyph name="minute" format="2">
  <advance width="529.9"/>
  <unicode hex="2032"/>
  <outline>
    <contour>
      <point x="23.5" y="964.0" type="line"/>
      <point x="318.5" y="1559.0" type="line"/>
      <point x="691.911214953271" y="1347.588785046729" type="line"/>
      <point x="334.91121495327104" y="779.588785046729" type="line"/>
    </contour>
  </outline>
</glyph>
<glyph name="guilsinglleft" format="2">
  <advance width="592.3621495327102"/>
  <unicode hex="2039"/>
  <guideline y="901.0" identifier="Amp5Ormvx4"/>
  <guideline y="555.0" identifier="JDX5vz3jKp"/>
  <outline>
    <contour>
      <point x="24.700000000000003" y="522.0" type="line"/>
      <point x="24.700000000000003" y="581.0" type="line"/>
      <point x="184.7" y="949.0" type="line"/>
      <point x="630.8121495327102" y="949.0" type="line"/>
      <point x="507.8121495327102" y="551.0" type="line"/>
      <point x="630.8121495327102" y="153.0" type="line"/>
      <point x="184.7" y="153.0" type="line"/>
    </contour>
  </outline>
</glyph>
<glyph name="guilsinglright" format="2">
  <advance width="652.3621495327102"/>
  <unicode hex="203A"/>
  <guideline y="901.0" identifier="Amp5Ormvx4"/>
  <guideline y="555.0" identifier="JDX5vz3jKp"/>
  <outline>
    <contour>
      <point x="21.549999999999997" y="153.0" type="line"/>
      <point x="144.55" y="551.0" type="line"/>
      <point x="21.549999999999997" y="949.0" type="line"/>
      <point x="467.6621495327102" y="949.0" type="line"/>
      <point x="627.6621495327101" y="581.0" type="line"/>
      <point x="627.6621495327101" y="522.0" type="line"/>
      <point x="467.6621495327102" y="153.0" type="line"/>
    </contour>
  </outline>
</glyph>
<glyph name="fraction" format="2">
  <advance width="2"/>
  <unicode hex="2044"/>
  <guideline y="901.0" identifier="tcCoNUQTdD"/>
  <guideline y="555.0" identifier="0lx51aIE0d"/>
  <outline>
    <contour>
      <point x="441" y="1369" type="line"/>
      <point x="-116" y="-25" type="line"/>
      <point x="-439" y="128" type="line"/>
      <point x="115" y="1516" type="line"/>
    </contour>
  </outline>
</glyph>
<glyph name="foursuperior" format="2">
  <advance width="691.8621495327102"/>
  <unicode hex="2074"/>
  <outline>
    <contour>
      <point x="204.6" y="697.0" type="line"/>
      <point x="204.6" y="925.1588785046729" type="line"/>
      <point x="204.6" y="950.5794392523364" type="line"/>
      <point x="204.6" y="1112.0" type="line"/>
      <point x="204.6" y="1112.0" type="line"/>
      <point x="174.6" y="1010.0" type="line"/>
      <point x="274.7588785046729" y="1010.0" type="line"/>
      <point x="299.4691588785047" y="1010.0" type="line"/>
      <point x="675.7121495327102" y="1010.0" type="line"/>
      <point x="675.7121495327102" y="880.0" type="line"/>
      <point x="16.6" y="880.0" type="line"/>
      <point x="16.6" y="982.0" type="line"/>
      <point x="201.6" y="1496.0" type="line"/>
      <point x="645.7121495327102" y="1496.0" type="line"/>
      <point x="645.7121495327102" y="697.0" type="line"/>
    </contour>
  </outline>
</glyph>
